G04 #@! TF.GenerationSoftware,KiCad,Pcbnew,(6.0.0)*
G04 #@! TF.CreationDate,2022-01-24T15:56:27+01:00*
G04 #@! TF.ProjectId,flex,666c6578-2e6b-4696-9361-645f70636258,rev?*
G04 #@! TF.SameCoordinates,Original*
G04 #@! TF.FileFunction,Legend,Bot*
G04 #@! TF.FilePolarity,Positive*
%FSLAX46Y46*%
G04 Gerber Fmt 4.6, Leading zero omitted, Abs format (unit mm)*
G04 Created by KiCad (PCBNEW (6.0.0)) date 2022-01-24 15:56:27*
%MOMM*%
%LPD*%
G01*
G04 APERTURE LIST*
%ADD10C,0.120000*%
%ADD11C,0.150000*%
%ADD12C,0.200000*%
%ADD13C,0.100000*%
G04 APERTURE END LIST*
D10*
X147471005Y-104466220D02*
X147471005Y-98641220D01*
X148242083Y-97860331D02*
G75*
G03*
X147471005Y-98641220I29640J-800407D01*
G01*
X38907916Y-93893591D02*
X38907917Y-88068591D01*
X149261194Y-97860331D02*
X148242083Y-97860331D01*
X150042084Y-98656409D02*
X150042083Y-104481409D01*
X41478995Y-88083780D02*
X41478995Y-93908780D01*
X41478996Y-88083780D02*
G75*
G03*
X40698106Y-87287702I-800386J-4081D01*
G01*
X39678995Y-87287702D02*
G75*
G03*
X38907917Y-88068591I29640J-800407D01*
G01*
X150042084Y-98656409D02*
G75*
G03*
X149261194Y-97860331I-800386J-4081D01*
G01*
X38907916Y-93893591D02*
G75*
G03*
X39688806Y-94689669I800386J4081D01*
G01*
X39688806Y-94689669D02*
X40707917Y-94689669D01*
X40707917Y-94689669D02*
G75*
G03*
X41478995Y-93908780I-29640J800407D01*
G01*
X148251894Y-105262298D02*
X149271005Y-105262298D01*
X40698106Y-87287702D02*
X39678995Y-87287702D01*
X147471004Y-104466220D02*
G75*
G03*
X148251894Y-105262298I800386J4081D01*
G01*
X149271005Y-105262298D02*
G75*
G03*
X150042083Y-104481409I-29640J800407D01*
G01*
D11*
X146875594Y-116889617D02*
X146309909Y-116323931D01*
X146175222Y-116458618D01*
X146121347Y-116566368D01*
X146121347Y-116674117D01*
X146148284Y-116754930D01*
X146229096Y-116889617D01*
X146309909Y-116970429D01*
X146444596Y-117051241D01*
X146525408Y-117078179D01*
X146633157Y-117078179D01*
X146740907Y-117024304D01*
X146875594Y-116889617D01*
X145636473Y-116997366D02*
X145528724Y-117105116D01*
X145501786Y-117185928D01*
X145501786Y-117293678D01*
X145582599Y-117428365D01*
X145771160Y-117616927D01*
X145905847Y-117697739D01*
X146013597Y-117697739D01*
X146094409Y-117670801D01*
X146202159Y-117563052D01*
X146229096Y-117482240D01*
X146229096Y-117374490D01*
X146148284Y-117239803D01*
X145959722Y-117051241D01*
X145825035Y-116970429D01*
X145717286Y-116970429D01*
X145636473Y-116997366D01*
X146624689Y-111019151D02*
X147001812Y-111773398D01*
X146247565Y-111396275D01*
X146247565Y-112419896D02*
X146301440Y-112419896D01*
X146409189Y-112366021D01*
X146463064Y-112312146D01*
X146516939Y-112204397D01*
X146516939Y-112096647D01*
X146490002Y-112015835D01*
X146409189Y-111881148D01*
X146328377Y-111800336D01*
X146193690Y-111719524D01*
X146112878Y-111692586D01*
X146005128Y-111692586D01*
X145897379Y-111746461D01*
X145843504Y-111800336D01*
X145789629Y-111908085D01*
X145789629Y-111961960D01*
X145681880Y-112985581D02*
X145735754Y-112985581D01*
X145843504Y-112931707D01*
X145897379Y-112877832D01*
X145951254Y-112770082D01*
X145951254Y-112662333D01*
X145924316Y-112581520D01*
X145843504Y-112446833D01*
X145762692Y-112366021D01*
X145628005Y-112285209D01*
X145547193Y-112258272D01*
X145439443Y-112258272D01*
X145331693Y-112312146D01*
X145277819Y-112366021D01*
X145223944Y-112473771D01*
X145223944Y-112527646D01*
D10*
X159299085Y-109455886D02*
X159260990Y-109493981D01*
X159222895Y-109608267D01*
X159222895Y-109684458D01*
X159260990Y-109798743D01*
X159337180Y-109874934D01*
X159413371Y-109913029D01*
X159565752Y-109951124D01*
X159680038Y-109951124D01*
X159832419Y-109913029D01*
X159908609Y-109874934D01*
X159984800Y-109798743D01*
X160022895Y-109684458D01*
X160022895Y-109608267D01*
X159984800Y-109493981D01*
X159946704Y-109455886D01*
X160022895Y-108770172D02*
X160022895Y-108922553D01*
X159984800Y-108998743D01*
X159946704Y-109036839D01*
X159832419Y-109113029D01*
X159680038Y-109151124D01*
X159375276Y-109151124D01*
X159299085Y-109113029D01*
X159260990Y-109074934D01*
X159222895Y-108998743D01*
X159222895Y-108846362D01*
X159260990Y-108770172D01*
X159299085Y-108732077D01*
X159375276Y-108693981D01*
X159565752Y-108693981D01*
X159641942Y-108732077D01*
X159680038Y-108770172D01*
X159718133Y-108846362D01*
X159718133Y-108998743D01*
X159680038Y-109074934D01*
X159641942Y-109113029D01*
X159565752Y-109151124D01*
X159222895Y-107893981D02*
X159603847Y-108160648D01*
X159222895Y-108351124D02*
X160022895Y-108351124D01*
X160022895Y-108046362D01*
X159984800Y-107970172D01*
X159946704Y-107932077D01*
X159870514Y-107893981D01*
X159756228Y-107893981D01*
X159680038Y-107932077D01*
X159641942Y-107970172D01*
X159603847Y-108046362D01*
X159603847Y-108351124D01*
X160022895Y-107627315D02*
X160022895Y-107132077D01*
X159718133Y-107398743D01*
X159718133Y-107284458D01*
X159680038Y-107208267D01*
X159641942Y-107170172D01*
X159565752Y-107132077D01*
X159375276Y-107132077D01*
X159299085Y-107170172D01*
X159260990Y-107208267D01*
X159222895Y-107284458D01*
X159222895Y-107513029D01*
X159260990Y-107589220D01*
X159299085Y-107627315D01*
D11*
X119233333Y-68652380D02*
X118566666Y-69652380D01*
X118566666Y-68652380D02*
X119233333Y-69652380D01*
D10*
X137799085Y-86605886D02*
X137760990Y-86643981D01*
X137722895Y-86758267D01*
X137722895Y-86834458D01*
X137760990Y-86948743D01*
X137837180Y-87024934D01*
X137913371Y-87063029D01*
X138065752Y-87101124D01*
X138180038Y-87101124D01*
X138332419Y-87063029D01*
X138408609Y-87024934D01*
X138484800Y-86948743D01*
X138522895Y-86834458D01*
X138522895Y-86758267D01*
X138484800Y-86643981D01*
X138446704Y-86605886D01*
X138522895Y-85882077D02*
X138522895Y-86263029D01*
X138141942Y-86301124D01*
X138180038Y-86263029D01*
X138218133Y-86186839D01*
X138218133Y-85996362D01*
X138180038Y-85920172D01*
X138141942Y-85882077D01*
X138065752Y-85843981D01*
X137875276Y-85843981D01*
X137799085Y-85882077D01*
X137760990Y-85920172D01*
X137722895Y-85996362D01*
X137722895Y-86186839D01*
X137760990Y-86263029D01*
X137799085Y-86301124D01*
X137722895Y-85043981D02*
X138103847Y-85310648D01*
X137722895Y-85501124D02*
X138522895Y-85501124D01*
X138522895Y-85196362D01*
X138484800Y-85120172D01*
X138446704Y-85082077D01*
X138370514Y-85043981D01*
X138256228Y-85043981D01*
X138180038Y-85082077D01*
X138141942Y-85120172D01*
X138103847Y-85196362D01*
X138103847Y-85501124D01*
X138446704Y-84739220D02*
X138484800Y-84701124D01*
X138522895Y-84624934D01*
X138522895Y-84434458D01*
X138484800Y-84358267D01*
X138446704Y-84320172D01*
X138370514Y-84282077D01*
X138294323Y-84282077D01*
X138180038Y-84320172D01*
X137722895Y-84777315D01*
X137722895Y-84282077D01*
X48914285Y-75314285D02*
X48876190Y-75352380D01*
X48838095Y-75466666D01*
X48838095Y-75542857D01*
X48876190Y-75657142D01*
X48952380Y-75733333D01*
X49028571Y-75771428D01*
X49180952Y-75809523D01*
X49295238Y-75809523D01*
X49447619Y-75771428D01*
X49523809Y-75733333D01*
X49600000Y-75657142D01*
X49638095Y-75542857D01*
X49638095Y-75466666D01*
X49600000Y-75352380D01*
X49561904Y-75314285D01*
X48838095Y-74552380D02*
X48838095Y-75009523D01*
X48838095Y-74780952D02*
X49638095Y-74780952D01*
X49523809Y-74857142D01*
X49447619Y-74933333D01*
X49409523Y-75009523D01*
X48838095Y-73752380D02*
X49219047Y-74019047D01*
X48838095Y-74209523D02*
X49638095Y-74209523D01*
X49638095Y-73904761D01*
X49600000Y-73828571D01*
X49561904Y-73790476D01*
X49485714Y-73752380D01*
X49371428Y-73752380D01*
X49295238Y-73790476D01*
X49257142Y-73828571D01*
X49219047Y-73904761D01*
X49219047Y-74209523D01*
X48838095Y-72990476D02*
X48838095Y-73447619D01*
X48838095Y-73219047D02*
X49638095Y-73219047D01*
X49523809Y-73295238D01*
X49447619Y-73371428D01*
X49409523Y-73447619D01*
D11*
X118721265Y-112591481D02*
X119054599Y-112115291D01*
X119292694Y-112591481D02*
X119292694Y-111591481D01*
X118911741Y-111591481D01*
X118816503Y-111639101D01*
X118768884Y-111686720D01*
X118721265Y-111781958D01*
X118721265Y-111924815D01*
X118768884Y-112020053D01*
X118816503Y-112067672D01*
X118911741Y-112115291D01*
X119292694Y-112115291D01*
X117864122Y-111924815D02*
X117864122Y-112591481D01*
X118102218Y-111543862D02*
X118340313Y-112258148D01*
X117721265Y-112258148D01*
D10*
X48852285Y-121114285D02*
X48814190Y-121152380D01*
X48776095Y-121266666D01*
X48776095Y-121342857D01*
X48814190Y-121457142D01*
X48890380Y-121533333D01*
X48966571Y-121571428D01*
X49118952Y-121609523D01*
X49233238Y-121609523D01*
X49385619Y-121571428D01*
X49461809Y-121533333D01*
X49538000Y-121457142D01*
X49576095Y-121342857D01*
X49576095Y-121266666D01*
X49538000Y-121152380D01*
X49499904Y-121114285D01*
X48776095Y-120352380D02*
X48776095Y-120809523D01*
X48776095Y-120580952D02*
X49576095Y-120580952D01*
X49461809Y-120657142D01*
X49385619Y-120733333D01*
X49347523Y-120809523D01*
X48776095Y-119552380D02*
X49157047Y-119819047D01*
X48776095Y-120009523D02*
X49576095Y-120009523D01*
X49576095Y-119704761D01*
X49538000Y-119628571D01*
X49499904Y-119590476D01*
X49423714Y-119552380D01*
X49309428Y-119552380D01*
X49233238Y-119590476D01*
X49195142Y-119628571D01*
X49157047Y-119704761D01*
X49157047Y-120009523D01*
X49576095Y-119285714D02*
X49576095Y-118790476D01*
X49271333Y-119057142D01*
X49271333Y-118942857D01*
X49233238Y-118866666D01*
X49195142Y-118828571D01*
X49118952Y-118790476D01*
X48928476Y-118790476D01*
X48852285Y-118828571D01*
X48814190Y-118866666D01*
X48776095Y-118942857D01*
X48776095Y-119171428D01*
X48814190Y-119247619D01*
X48852285Y-119285714D01*
D11*
X119166666Y-77352380D02*
X119500000Y-76876190D01*
X119738095Y-77352380D02*
X119738095Y-76352380D01*
X119357142Y-76352380D01*
X119261904Y-76400000D01*
X119214285Y-76447619D01*
X119166666Y-76542857D01*
X119166666Y-76685714D01*
X119214285Y-76780952D01*
X119261904Y-76828571D01*
X119357142Y-76876190D01*
X119738095Y-76876190D01*
X118214285Y-77352380D02*
X118785714Y-77352380D01*
X118500000Y-77352380D02*
X118500000Y-76352380D01*
X118595238Y-76495238D01*
X118690476Y-76590476D01*
X118785714Y-76638095D01*
D10*
X114299085Y-60005886D02*
X114260990Y-60043981D01*
X114222895Y-60158267D01*
X114222895Y-60234458D01*
X114260990Y-60348743D01*
X114337180Y-60424934D01*
X114413371Y-60463029D01*
X114565752Y-60501124D01*
X114680038Y-60501124D01*
X114832419Y-60463029D01*
X114908609Y-60424934D01*
X114984800Y-60348743D01*
X115022895Y-60234458D01*
X115022895Y-60158267D01*
X114984800Y-60043981D01*
X114946704Y-60005886D01*
X114756228Y-59320172D02*
X114222895Y-59320172D01*
X115060990Y-59510648D02*
X114489561Y-59701124D01*
X114489561Y-59205886D01*
X114222895Y-58443981D02*
X114603847Y-58710648D01*
X114222895Y-58901124D02*
X115022895Y-58901124D01*
X115022895Y-58596362D01*
X114984800Y-58520172D01*
X114946704Y-58482077D01*
X114870514Y-58443981D01*
X114756228Y-58443981D01*
X114680038Y-58482077D01*
X114641942Y-58520172D01*
X114603847Y-58596362D01*
X114603847Y-58901124D01*
X114222895Y-57682077D02*
X114222895Y-58139220D01*
X114222895Y-57910648D02*
X115022895Y-57910648D01*
X114908609Y-57986839D01*
X114832419Y-58063029D01*
X114794323Y-58139220D01*
X159299085Y-63505886D02*
X159260990Y-63543981D01*
X159222895Y-63658267D01*
X159222895Y-63734458D01*
X159260990Y-63848743D01*
X159337180Y-63924934D01*
X159413371Y-63963029D01*
X159565752Y-64001124D01*
X159680038Y-64001124D01*
X159832419Y-63963029D01*
X159908609Y-63924934D01*
X159984800Y-63848743D01*
X160022895Y-63734458D01*
X160022895Y-63658267D01*
X159984800Y-63543981D01*
X159946704Y-63505886D01*
X160022895Y-62820172D02*
X160022895Y-62972553D01*
X159984800Y-63048743D01*
X159946704Y-63086839D01*
X159832419Y-63163029D01*
X159680038Y-63201124D01*
X159375276Y-63201124D01*
X159299085Y-63163029D01*
X159260990Y-63124934D01*
X159222895Y-63048743D01*
X159222895Y-62896362D01*
X159260990Y-62820172D01*
X159299085Y-62782077D01*
X159375276Y-62743981D01*
X159565752Y-62743981D01*
X159641942Y-62782077D01*
X159680038Y-62820172D01*
X159718133Y-62896362D01*
X159718133Y-63048743D01*
X159680038Y-63124934D01*
X159641942Y-63163029D01*
X159565752Y-63201124D01*
X159222895Y-61943981D02*
X159603847Y-62210648D01*
X159222895Y-62401124D02*
X160022895Y-62401124D01*
X160022895Y-62096362D01*
X159984800Y-62020172D01*
X159946704Y-61982077D01*
X159870514Y-61943981D01*
X159756228Y-61943981D01*
X159680038Y-61982077D01*
X159641942Y-62020172D01*
X159603847Y-62096362D01*
X159603847Y-62401124D01*
X159222895Y-61182077D02*
X159222895Y-61639220D01*
X159222895Y-61410648D02*
X160022895Y-61410648D01*
X159908609Y-61486839D01*
X159832419Y-61563029D01*
X159794323Y-61639220D01*
X98675619Y-135998857D02*
X98942285Y-135998857D01*
X98942285Y-136417904D02*
X98942285Y-135617904D01*
X98561333Y-135617904D01*
X97875619Y-136417904D02*
X98256571Y-136417904D01*
X98256571Y-135617904D01*
X97608952Y-135998857D02*
X97342285Y-135998857D01*
X97228000Y-136417904D02*
X97608952Y-136417904D01*
X97608952Y-135617904D01*
X97228000Y-135617904D01*
X96961333Y-135617904D02*
X96428000Y-136417904D01*
X96428000Y-135617904D02*
X96961333Y-136417904D01*
X95513714Y-136417904D02*
X95513714Y-135617904D01*
X95208952Y-135617904D01*
X95132761Y-135656000D01*
X95094666Y-135694095D01*
X95056571Y-135770285D01*
X95056571Y-135884571D01*
X95094666Y-135960761D01*
X95132761Y-135998857D01*
X95208952Y-136036952D01*
X95513714Y-136036952D01*
X94256571Y-136341714D02*
X94294666Y-136379809D01*
X94408952Y-136417904D01*
X94485142Y-136417904D01*
X94599428Y-136379809D01*
X94675619Y-136303619D01*
X94713714Y-136227428D01*
X94751809Y-136075047D01*
X94751809Y-135960761D01*
X94713714Y-135808380D01*
X94675619Y-135732190D01*
X94599428Y-135656000D01*
X94485142Y-135617904D01*
X94408952Y-135617904D01*
X94294666Y-135656000D01*
X94256571Y-135694095D01*
X93647047Y-135998857D02*
X93532761Y-136036952D01*
X93494666Y-136075047D01*
X93456571Y-136151238D01*
X93456571Y-136265523D01*
X93494666Y-136341714D01*
X93532761Y-136379809D01*
X93608952Y-136417904D01*
X93913714Y-136417904D01*
X93913714Y-135617904D01*
X93647047Y-135617904D01*
X93570857Y-135656000D01*
X93532761Y-135694095D01*
X93494666Y-135770285D01*
X93494666Y-135846476D01*
X93532761Y-135922666D01*
X93570857Y-135960761D01*
X93647047Y-135998857D01*
X93913714Y-135998857D01*
X92237523Y-135998857D02*
X92504190Y-135998857D01*
X92504190Y-136417904D02*
X92504190Y-135617904D01*
X92123238Y-135617904D01*
X91666095Y-135617904D02*
X91513714Y-135617904D01*
X91437523Y-135656000D01*
X91361333Y-135732190D01*
X91323238Y-135884571D01*
X91323238Y-136151238D01*
X91361333Y-136303619D01*
X91437523Y-136379809D01*
X91513714Y-136417904D01*
X91666095Y-136417904D01*
X91742285Y-136379809D01*
X91818476Y-136303619D01*
X91856571Y-136151238D01*
X91856571Y-135884571D01*
X91818476Y-135732190D01*
X91742285Y-135656000D01*
X91666095Y-135617904D01*
X90523238Y-136417904D02*
X90789904Y-136036952D01*
X90980380Y-136417904D02*
X90980380Y-135617904D01*
X90675619Y-135617904D01*
X90599428Y-135656000D01*
X90561333Y-135694095D01*
X90523238Y-135770285D01*
X90523238Y-135884571D01*
X90561333Y-135960761D01*
X90599428Y-135998857D01*
X90675619Y-136036952D01*
X90980380Y-136036952D01*
X89685142Y-135617904D02*
X89228000Y-135617904D01*
X89456571Y-136417904D02*
X89456571Y-135617904D01*
X88694666Y-135998857D02*
X88580380Y-136036952D01*
X88542285Y-136075047D01*
X88504190Y-136151238D01*
X88504190Y-136265523D01*
X88542285Y-136341714D01*
X88580380Y-136379809D01*
X88656571Y-136417904D01*
X88961333Y-136417904D01*
X88961333Y-135617904D01*
X88694666Y-135617904D01*
X88618476Y-135656000D01*
X88580380Y-135694095D01*
X88542285Y-135770285D01*
X88542285Y-135846476D01*
X88580380Y-135922666D01*
X88618476Y-135960761D01*
X88694666Y-135998857D01*
X88961333Y-135998857D01*
X88161333Y-136417904D02*
X88161333Y-135617904D01*
X87704190Y-136417904D02*
X88047047Y-135960761D01*
X87704190Y-135617904D02*
X88161333Y-136075047D01*
X86751809Y-136417904D02*
X86751809Y-135617904D01*
X86485142Y-136189333D01*
X86218476Y-135617904D01*
X86218476Y-136417904D01*
X85837523Y-136417904D02*
X85837523Y-135617904D01*
X85456571Y-136417904D02*
X85456571Y-135617904D01*
X84999428Y-136417904D01*
X84999428Y-135617904D01*
X84618476Y-136417904D02*
X84618476Y-135617904D01*
X100123238Y-136982095D02*
X100085142Y-136944000D01*
X100008952Y-136905904D01*
X99818476Y-136905904D01*
X99742285Y-136944000D01*
X99704190Y-136982095D01*
X99666095Y-137058285D01*
X99666095Y-137134476D01*
X99704190Y-137248761D01*
X100161333Y-137705904D01*
X99666095Y-137705904D01*
X99170857Y-136905904D02*
X99094666Y-136905904D01*
X99018476Y-136944000D01*
X98980380Y-136982095D01*
X98942285Y-137058285D01*
X98904190Y-137210666D01*
X98904190Y-137401142D01*
X98942285Y-137553523D01*
X98980380Y-137629714D01*
X99018476Y-137667809D01*
X99094666Y-137705904D01*
X99170857Y-137705904D01*
X99247047Y-137667809D01*
X99285142Y-137629714D01*
X99323238Y-137553523D01*
X99361333Y-137401142D01*
X99361333Y-137210666D01*
X99323238Y-137058285D01*
X99285142Y-136982095D01*
X99247047Y-136944000D01*
X99170857Y-136905904D01*
X98599428Y-136982095D02*
X98561333Y-136944000D01*
X98485142Y-136905904D01*
X98294666Y-136905904D01*
X98218476Y-136944000D01*
X98180380Y-136982095D01*
X98142285Y-137058285D01*
X98142285Y-137134476D01*
X98180380Y-137248761D01*
X98637523Y-137705904D01*
X98142285Y-137705904D01*
X97837523Y-136982095D02*
X97799428Y-136944000D01*
X97723238Y-136905904D01*
X97532761Y-136905904D01*
X97456571Y-136944000D01*
X97418476Y-136982095D01*
X97380380Y-137058285D01*
X97380380Y-137134476D01*
X97418476Y-137248761D01*
X97875619Y-137705904D01*
X97380380Y-137705904D01*
X95894666Y-137782095D02*
X95970857Y-137744000D01*
X96047047Y-137667809D01*
X96161333Y-137553523D01*
X96237523Y-137515428D01*
X96313714Y-137515428D01*
X96275619Y-137705904D02*
X96351809Y-137667809D01*
X96428000Y-137591619D01*
X96466095Y-137439238D01*
X96466095Y-137172571D01*
X96428000Y-137020190D01*
X96351809Y-136944000D01*
X96275619Y-136905904D01*
X96123238Y-136905904D01*
X96047047Y-136944000D01*
X95970857Y-137020190D01*
X95932761Y-137172571D01*
X95932761Y-137439238D01*
X95970857Y-137591619D01*
X96047047Y-137667809D01*
X96123238Y-137705904D01*
X96275619Y-137705904D01*
X95589904Y-136905904D02*
X95589904Y-137553523D01*
X95551809Y-137629714D01*
X95513714Y-137667809D01*
X95437523Y-137705904D01*
X95285142Y-137705904D01*
X95208952Y-137667809D01*
X95170857Y-137629714D01*
X95132761Y-137553523D01*
X95132761Y-136905904D01*
X94751809Y-137286857D02*
X94485142Y-137286857D01*
X94370857Y-137705904D02*
X94751809Y-137705904D01*
X94751809Y-136905904D01*
X94370857Y-136905904D01*
X94028000Y-137705904D02*
X94028000Y-136905904D01*
X93570857Y-137705904D01*
X93570857Y-136905904D01*
X93304190Y-136905904D02*
X92847047Y-136905904D01*
X93075619Y-137705904D02*
X93075619Y-136905904D01*
X92580380Y-137705904D02*
X92580380Y-136905904D01*
X92199428Y-137705904D02*
X92199428Y-136905904D01*
X91742285Y-137705904D01*
X91742285Y-136905904D01*
X90370857Y-137705904D02*
X90751809Y-137705904D01*
X90751809Y-136905904D01*
X90104190Y-137286857D02*
X89837523Y-137286857D01*
X89723238Y-137705904D02*
X90104190Y-137705904D01*
X90104190Y-136905904D01*
X89723238Y-136905904D01*
X89113714Y-137286857D02*
X88999428Y-137324952D01*
X88961333Y-137363047D01*
X88923238Y-137439238D01*
X88923238Y-137553523D01*
X88961333Y-137629714D01*
X88999428Y-137667809D01*
X89075619Y-137705904D01*
X89380380Y-137705904D01*
X89380380Y-136905904D01*
X89113714Y-136905904D01*
X89037523Y-136944000D01*
X88999428Y-136982095D01*
X88961333Y-137058285D01*
X88961333Y-137134476D01*
X88999428Y-137210666D01*
X89037523Y-137248761D01*
X89113714Y-137286857D01*
X89380380Y-137286857D01*
X88618476Y-137477333D02*
X88237523Y-137477333D01*
X88694666Y-137705904D02*
X88428000Y-136905904D01*
X88161333Y-137705904D01*
X87932761Y-137667809D02*
X87818476Y-137705904D01*
X87628000Y-137705904D01*
X87551809Y-137667809D01*
X87513714Y-137629714D01*
X87475619Y-137553523D01*
X87475619Y-137477333D01*
X87513714Y-137401142D01*
X87551809Y-137363047D01*
X87628000Y-137324952D01*
X87780380Y-137286857D01*
X87856571Y-137248761D01*
X87894666Y-137210666D01*
X87932761Y-137134476D01*
X87932761Y-137058285D01*
X87894666Y-136982095D01*
X87856571Y-136944000D01*
X87780380Y-136905904D01*
X87589904Y-136905904D01*
X87475619Y-136944000D01*
X87247047Y-136905904D02*
X86789904Y-136905904D01*
X87018476Y-137705904D02*
X87018476Y-136905904D01*
X86561333Y-137477333D02*
X86180380Y-137477333D01*
X86637523Y-137705904D02*
X86370857Y-136905904D01*
X86104190Y-137705904D01*
X85380380Y-137705904D02*
X85647047Y-137324952D01*
X85837523Y-137705904D02*
X85837523Y-136905904D01*
X85532761Y-136905904D01*
X85456571Y-136944000D01*
X85418476Y-136982095D01*
X85380380Y-137058285D01*
X85380380Y-137172571D01*
X85418476Y-137248761D01*
X85456571Y-137286857D01*
X85532761Y-137324952D01*
X85837523Y-137324952D01*
X85037523Y-137705904D02*
X85037523Y-136905904D01*
X84847047Y-136905904D01*
X84732761Y-136944000D01*
X84656571Y-137020190D01*
X84618476Y-137096380D01*
X84580380Y-137248761D01*
X84580380Y-137363047D01*
X84618476Y-137515428D01*
X84656571Y-137591619D01*
X84732761Y-137667809D01*
X84847047Y-137705904D01*
X85037523Y-137705904D01*
D11*
X119166666Y-91020642D02*
X119214285Y-91068261D01*
X119357142Y-91115880D01*
X119452380Y-91115880D01*
X119595238Y-91068261D01*
X119690476Y-90973023D01*
X119738095Y-90877785D01*
X119785714Y-90687309D01*
X119785714Y-90544452D01*
X119738095Y-90353976D01*
X119690476Y-90258738D01*
X119595238Y-90163500D01*
X119452380Y-90115880D01*
X119357142Y-90115880D01*
X119214285Y-90163500D01*
X119166666Y-90211119D01*
X118309523Y-90115880D02*
X118500000Y-90115880D01*
X118595238Y-90163500D01*
X118642857Y-90211119D01*
X118738095Y-90353976D01*
X118785714Y-90544452D01*
X118785714Y-90925404D01*
X118738095Y-91020642D01*
X118690476Y-91068261D01*
X118595238Y-91115880D01*
X118404761Y-91115880D01*
X118309523Y-91068261D01*
X118261904Y-91020642D01*
X118214285Y-90925404D01*
X118214285Y-90687309D01*
X118261904Y-90592071D01*
X118309523Y-90544452D01*
X118404761Y-90496833D01*
X118595238Y-90496833D01*
X118690476Y-90544452D01*
X118738095Y-90592071D01*
X118785714Y-90687309D01*
X119166666Y-72257142D02*
X119214285Y-72304761D01*
X119357142Y-72352380D01*
X119452380Y-72352380D01*
X119595238Y-72304761D01*
X119690476Y-72209523D01*
X119738095Y-72114285D01*
X119785714Y-71923809D01*
X119785714Y-71780952D01*
X119738095Y-71590476D01*
X119690476Y-71495238D01*
X119595238Y-71400000D01*
X119452380Y-71352380D01*
X119357142Y-71352380D01*
X119214285Y-71400000D01*
X119166666Y-71447619D01*
X118785714Y-71447619D02*
X118738095Y-71400000D01*
X118642857Y-71352380D01*
X118404761Y-71352380D01*
X118309523Y-71400000D01*
X118261904Y-71447619D01*
X118214285Y-71542857D01*
X118214285Y-71638095D01*
X118261904Y-71780952D01*
X118833333Y-72352380D01*
X118214285Y-72352380D01*
X118670465Y-107398743D02*
X118718084Y-107446362D01*
X118860941Y-107493981D01*
X118956179Y-107493981D01*
X119099037Y-107446362D01*
X119194275Y-107351124D01*
X119241894Y-107255886D01*
X119289513Y-107065410D01*
X119289513Y-106922553D01*
X119241894Y-106732077D01*
X119194275Y-106636839D01*
X119099037Y-106541601D01*
X118956179Y-106493981D01*
X118860941Y-106493981D01*
X118718084Y-106541601D01*
X118670465Y-106589220D01*
X117765703Y-106493981D02*
X118241894Y-106493981D01*
X118289513Y-106970172D01*
X118241894Y-106922553D01*
X118146656Y-106874934D01*
X117908560Y-106874934D01*
X117813322Y-106922553D01*
X117765703Y-106970172D01*
X117718084Y-107065410D01*
X117718084Y-107303505D01*
X117765703Y-107398743D01*
X117813322Y-107446362D01*
X117908560Y-107493981D01*
X118146656Y-107493981D01*
X118241894Y-107446362D01*
X118289513Y-107398743D01*
D10*
X70364285Y-75214285D02*
X70326190Y-75252380D01*
X70288095Y-75366666D01*
X70288095Y-75442857D01*
X70326190Y-75557142D01*
X70402380Y-75633333D01*
X70478571Y-75671428D01*
X70630952Y-75709523D01*
X70745238Y-75709523D01*
X70897619Y-75671428D01*
X70973809Y-75633333D01*
X71050000Y-75557142D01*
X71088095Y-75442857D01*
X71088095Y-75366666D01*
X71050000Y-75252380D01*
X71011904Y-75214285D01*
X71011904Y-74909523D02*
X71050000Y-74871428D01*
X71088095Y-74795238D01*
X71088095Y-74604761D01*
X71050000Y-74528571D01*
X71011904Y-74490476D01*
X70935714Y-74452380D01*
X70859523Y-74452380D01*
X70745238Y-74490476D01*
X70288095Y-74947619D01*
X70288095Y-74452380D01*
X70288095Y-73652380D02*
X70669047Y-73919047D01*
X70288095Y-74109523D02*
X71088095Y-74109523D01*
X71088095Y-73804761D01*
X71050000Y-73728571D01*
X71011904Y-73690476D01*
X70935714Y-73652380D01*
X70821428Y-73652380D01*
X70745238Y-73690476D01*
X70707142Y-73728571D01*
X70669047Y-73804761D01*
X70669047Y-74109523D01*
X70288095Y-72890476D02*
X70288095Y-73347619D01*
X70288095Y-73119047D02*
X71088095Y-73119047D01*
X70973809Y-73195238D01*
X70897619Y-73271428D01*
X70859523Y-73347619D01*
X70326285Y-98164285D02*
X70288190Y-98202380D01*
X70250095Y-98316666D01*
X70250095Y-98392857D01*
X70288190Y-98507142D01*
X70364380Y-98583333D01*
X70440571Y-98621428D01*
X70592952Y-98659523D01*
X70707238Y-98659523D01*
X70859619Y-98621428D01*
X70935809Y-98583333D01*
X71012000Y-98507142D01*
X71050095Y-98392857D01*
X71050095Y-98316666D01*
X71012000Y-98202380D01*
X70973904Y-98164285D01*
X70973904Y-97859523D02*
X71012000Y-97821428D01*
X71050095Y-97745238D01*
X71050095Y-97554761D01*
X71012000Y-97478571D01*
X70973904Y-97440476D01*
X70897714Y-97402380D01*
X70821523Y-97402380D01*
X70707238Y-97440476D01*
X70250095Y-97897619D01*
X70250095Y-97402380D01*
X70250095Y-96602380D02*
X70631047Y-96869047D01*
X70250095Y-97059523D02*
X71050095Y-97059523D01*
X71050095Y-96754761D01*
X71012000Y-96678571D01*
X70973904Y-96640476D01*
X70897714Y-96602380D01*
X70783428Y-96602380D01*
X70707238Y-96640476D01*
X70669142Y-96678571D01*
X70631047Y-96754761D01*
X70631047Y-97059523D01*
X70973904Y-96297619D02*
X71012000Y-96259523D01*
X71050095Y-96183333D01*
X71050095Y-95992857D01*
X71012000Y-95916666D01*
X70973904Y-95878571D01*
X70897714Y-95840476D01*
X70821523Y-95840476D01*
X70707238Y-95878571D01*
X70250095Y-96335714D01*
X70250095Y-95840476D01*
D11*
X119166666Y-67157142D02*
X119214285Y-67204761D01*
X119357142Y-67252380D01*
X119452380Y-67252380D01*
X119595238Y-67204761D01*
X119690476Y-67109523D01*
X119738095Y-67014285D01*
X119785714Y-66823809D01*
X119785714Y-66680952D01*
X119738095Y-66490476D01*
X119690476Y-66395238D01*
X119595238Y-66300000D01*
X119452380Y-66252380D01*
X119357142Y-66252380D01*
X119214285Y-66300000D01*
X119166666Y-66347619D01*
X118833333Y-66252380D02*
X118214285Y-66252380D01*
X118547619Y-66633333D01*
X118404761Y-66633333D01*
X118309523Y-66680952D01*
X118261904Y-66728571D01*
X118214285Y-66823809D01*
X118214285Y-67061904D01*
X118261904Y-67157142D01*
X118309523Y-67204761D01*
X118404761Y-67252380D01*
X118690476Y-67252380D01*
X118785714Y-67204761D01*
X118833333Y-67157142D01*
X119166666Y-83598280D02*
X119500000Y-83122090D01*
X119738095Y-83598280D02*
X119738095Y-82598280D01*
X119357142Y-82598280D01*
X119261904Y-82645900D01*
X119214285Y-82693519D01*
X119166666Y-82788757D01*
X119166666Y-82931614D01*
X119214285Y-83026852D01*
X119261904Y-83074471D01*
X119357142Y-83122090D01*
X119738095Y-83122090D01*
X118785714Y-82693519D02*
X118738095Y-82645900D01*
X118642857Y-82598280D01*
X118404761Y-82598280D01*
X118309523Y-82645900D01*
X118261904Y-82693519D01*
X118214285Y-82788757D01*
X118214285Y-82883995D01*
X118261904Y-83026852D01*
X118833333Y-83598280D01*
X118214285Y-83598280D01*
D10*
X92349085Y-108255886D02*
X92310990Y-108293981D01*
X92272895Y-108408267D01*
X92272895Y-108484458D01*
X92310990Y-108598743D01*
X92387180Y-108674934D01*
X92463371Y-108713029D01*
X92615752Y-108751124D01*
X92730038Y-108751124D01*
X92882419Y-108713029D01*
X92958609Y-108674934D01*
X93034800Y-108598743D01*
X93072895Y-108484458D01*
X93072895Y-108408267D01*
X93034800Y-108293981D01*
X92996704Y-108255886D01*
X93072895Y-107989220D02*
X93072895Y-107493981D01*
X92768133Y-107760648D01*
X92768133Y-107646362D01*
X92730038Y-107570172D01*
X92691942Y-107532077D01*
X92615752Y-107493981D01*
X92425276Y-107493981D01*
X92349085Y-107532077D01*
X92310990Y-107570172D01*
X92272895Y-107646362D01*
X92272895Y-107874934D01*
X92310990Y-107951124D01*
X92349085Y-107989220D01*
X92272895Y-106693981D02*
X92653847Y-106960648D01*
X92272895Y-107151124D02*
X93072895Y-107151124D01*
X93072895Y-106846362D01*
X93034800Y-106770172D01*
X92996704Y-106732077D01*
X92920514Y-106693981D01*
X92806228Y-106693981D01*
X92730038Y-106732077D01*
X92691942Y-106770172D01*
X92653847Y-106846362D01*
X92653847Y-107151124D01*
X93072895Y-106427315D02*
X93072895Y-105932077D01*
X92768133Y-106198743D01*
X92768133Y-106084458D01*
X92730038Y-106008267D01*
X92691942Y-105970172D01*
X92615752Y-105932077D01*
X92425276Y-105932077D01*
X92349085Y-105970172D01*
X92310990Y-106008267D01*
X92272895Y-106084458D01*
X92272895Y-106313029D01*
X92310990Y-106389220D01*
X92349085Y-106427315D01*
D11*
X50990476Y-76807142D02*
X51038095Y-76854761D01*
X51180952Y-76902380D01*
X51276190Y-76902380D01*
X51419047Y-76854761D01*
X51514285Y-76759523D01*
X51561904Y-76664285D01*
X51609523Y-76473809D01*
X51609523Y-76330952D01*
X51561904Y-76140476D01*
X51514285Y-76045238D01*
X51419047Y-75950000D01*
X51276190Y-75902380D01*
X51180952Y-75902380D01*
X51038095Y-75950000D01*
X50990476Y-75997619D01*
X118721265Y-109937844D02*
X118768884Y-109985463D01*
X118911741Y-110033082D01*
X119006979Y-110033082D01*
X119149837Y-109985463D01*
X119245075Y-109890225D01*
X119292694Y-109794987D01*
X119340313Y-109604511D01*
X119340313Y-109461654D01*
X119292694Y-109271178D01*
X119245075Y-109175940D01*
X119149837Y-109080702D01*
X119006979Y-109033082D01*
X118911741Y-109033082D01*
X118768884Y-109080702D01*
X118721265Y-109128321D01*
X117864122Y-109366416D02*
X117864122Y-110033082D01*
X118102218Y-108985463D02*
X118340313Y-109699749D01*
X117721265Y-109699749D01*
D10*
X48902285Y-98114285D02*
X48864190Y-98152380D01*
X48826095Y-98266666D01*
X48826095Y-98342857D01*
X48864190Y-98457142D01*
X48940380Y-98533333D01*
X49016571Y-98571428D01*
X49168952Y-98609523D01*
X49283238Y-98609523D01*
X49435619Y-98571428D01*
X49511809Y-98533333D01*
X49588000Y-98457142D01*
X49626095Y-98342857D01*
X49626095Y-98266666D01*
X49588000Y-98152380D01*
X49549904Y-98114285D01*
X48826095Y-97352380D02*
X48826095Y-97809523D01*
X48826095Y-97580952D02*
X49626095Y-97580952D01*
X49511809Y-97657142D01*
X49435619Y-97733333D01*
X49397523Y-97809523D01*
X48826095Y-96552380D02*
X49207047Y-96819047D01*
X48826095Y-97009523D02*
X49626095Y-97009523D01*
X49626095Y-96704761D01*
X49588000Y-96628571D01*
X49549904Y-96590476D01*
X49473714Y-96552380D01*
X49359428Y-96552380D01*
X49283238Y-96590476D01*
X49245142Y-96628571D01*
X49207047Y-96704761D01*
X49207047Y-97009523D01*
X49549904Y-96247619D02*
X49588000Y-96209523D01*
X49626095Y-96133333D01*
X49626095Y-95942857D01*
X49588000Y-95866666D01*
X49549904Y-95828571D01*
X49473714Y-95790476D01*
X49397523Y-95790476D01*
X49283238Y-95828571D01*
X48826095Y-96285714D01*
X48826095Y-95790476D01*
D11*
X119205133Y-73793981D02*
X118538466Y-74793981D01*
X118538466Y-73793981D02*
X119205133Y-74793981D01*
D10*
X70326285Y-121164285D02*
X70288190Y-121202380D01*
X70250095Y-121316666D01*
X70250095Y-121392857D01*
X70288190Y-121507142D01*
X70364380Y-121583333D01*
X70440571Y-121621428D01*
X70592952Y-121659523D01*
X70707238Y-121659523D01*
X70859619Y-121621428D01*
X70935809Y-121583333D01*
X71012000Y-121507142D01*
X71050095Y-121392857D01*
X71050095Y-121316666D01*
X71012000Y-121202380D01*
X70973904Y-121164285D01*
X70973904Y-120859523D02*
X71012000Y-120821428D01*
X71050095Y-120745238D01*
X71050095Y-120554761D01*
X71012000Y-120478571D01*
X70973904Y-120440476D01*
X70897714Y-120402380D01*
X70821523Y-120402380D01*
X70707238Y-120440476D01*
X70250095Y-120897619D01*
X70250095Y-120402380D01*
X70250095Y-119602380D02*
X70631047Y-119869047D01*
X70250095Y-120059523D02*
X71050095Y-120059523D01*
X71050095Y-119754761D01*
X71012000Y-119678571D01*
X70973904Y-119640476D01*
X70897714Y-119602380D01*
X70783428Y-119602380D01*
X70707238Y-119640476D01*
X70669142Y-119678571D01*
X70631047Y-119754761D01*
X70631047Y-120059523D01*
X71050095Y-119335714D02*
X71050095Y-118840476D01*
X70745333Y-119107142D01*
X70745333Y-118992857D01*
X70707238Y-118916666D01*
X70669142Y-118878571D01*
X70592952Y-118840476D01*
X70402476Y-118840476D01*
X70326285Y-118878571D01*
X70288190Y-118916666D01*
X70250095Y-118992857D01*
X70250095Y-119221428D01*
X70288190Y-119297619D01*
X70326285Y-119335714D01*
D11*
X119166666Y-88432242D02*
X119214285Y-88479861D01*
X119357142Y-88527480D01*
X119452380Y-88527480D01*
X119595238Y-88479861D01*
X119690476Y-88384623D01*
X119738095Y-88289385D01*
X119785714Y-88098909D01*
X119785714Y-87956052D01*
X119738095Y-87765576D01*
X119690476Y-87670338D01*
X119595238Y-87575100D01*
X119452380Y-87527480D01*
X119357142Y-87527480D01*
X119214285Y-87575100D01*
X119166666Y-87622719D01*
X118261904Y-87527480D02*
X118738095Y-87527480D01*
X118785714Y-88003671D01*
X118738095Y-87956052D01*
X118642857Y-87908433D01*
X118404761Y-87908433D01*
X118309523Y-87956052D01*
X118261904Y-88003671D01*
X118214285Y-88098909D01*
X118214285Y-88337004D01*
X118261904Y-88432242D01*
X118309523Y-88479861D01*
X118404761Y-88527480D01*
X118642857Y-88527480D01*
X118738095Y-88479861D01*
X118785714Y-88432242D01*
D10*
X76067857Y-102819047D02*
X76105952Y-102933333D01*
X76144047Y-102971428D01*
X76220238Y-103009523D01*
X76334523Y-103009523D01*
X76410714Y-102971428D01*
X76448809Y-102933333D01*
X76486904Y-102857142D01*
X76486904Y-102552380D01*
X75686904Y-102552380D01*
X75686904Y-102819047D01*
X75725000Y-102895238D01*
X75763095Y-102933333D01*
X75839285Y-102971428D01*
X75915476Y-102971428D01*
X75991666Y-102933333D01*
X76029761Y-102895238D01*
X76067857Y-102819047D01*
X76067857Y-102552380D01*
X76258333Y-103314285D02*
X76258333Y-103695238D01*
X76486904Y-103238095D02*
X75686904Y-103504761D01*
X76486904Y-103771428D01*
X76448809Y-104000000D02*
X76486904Y-104114285D01*
X76486904Y-104304761D01*
X76448809Y-104380952D01*
X76410714Y-104419047D01*
X76334523Y-104457142D01*
X76258333Y-104457142D01*
X76182142Y-104419047D01*
X76144047Y-104380952D01*
X76105952Y-104304761D01*
X76067857Y-104152380D01*
X76029761Y-104076190D01*
X75991666Y-104038095D01*
X75915476Y-104000000D01*
X75839285Y-104000000D01*
X75763095Y-104038095D01*
X75725000Y-104076190D01*
X75686904Y-104152380D01*
X75686904Y-104342857D01*
X75725000Y-104457142D01*
X75686904Y-104685714D02*
X75686904Y-105142857D01*
X76486904Y-104914285D02*
X75686904Y-104914285D01*
X76258333Y-105371428D02*
X76258333Y-105752380D01*
X76486904Y-105295238D02*
X75686904Y-105561904D01*
X76486904Y-105828571D01*
X76486904Y-106552380D02*
X76105952Y-106285714D01*
X76486904Y-106095238D02*
X75686904Y-106095238D01*
X75686904Y-106400000D01*
X75725000Y-106476190D01*
X75763095Y-106514285D01*
X75839285Y-106552380D01*
X75953571Y-106552380D01*
X76029761Y-106514285D01*
X76067857Y-106476190D01*
X76105952Y-106400000D01*
X76105952Y-106095238D01*
X76486904Y-106895238D02*
X75686904Y-106895238D01*
X75686904Y-107085714D01*
X75725000Y-107200000D01*
X75801190Y-107276190D01*
X75877380Y-107314285D01*
X76029761Y-107352380D01*
X76144047Y-107352380D01*
X76296428Y-107314285D01*
X76372619Y-107276190D01*
X76448809Y-107200000D01*
X76486904Y-107085714D01*
X76486904Y-106895238D01*
X76486904Y-107695238D02*
X75686904Y-107695238D01*
X76486904Y-108152380D02*
X76029761Y-107809523D01*
X75686904Y-108152380D02*
X76144047Y-107695238D01*
X76067857Y-108761904D02*
X76105952Y-108876190D01*
X76144047Y-108914285D01*
X76220238Y-108952380D01*
X76334523Y-108952380D01*
X76410714Y-108914285D01*
X76448809Y-108876190D01*
X76486904Y-108800000D01*
X76486904Y-108495238D01*
X75686904Y-108495238D01*
X75686904Y-108761904D01*
X75725000Y-108838095D01*
X75763095Y-108876190D01*
X75839285Y-108914285D01*
X75915476Y-108914285D01*
X75991666Y-108876190D01*
X76029761Y-108838095D01*
X76067857Y-108761904D01*
X76067857Y-108495238D01*
X76410714Y-109295238D02*
X76448809Y-109333333D01*
X76486904Y-109295238D01*
X76448809Y-109257142D01*
X76410714Y-109295238D01*
X76486904Y-109295238D01*
X76410714Y-110133333D02*
X76448809Y-110095238D01*
X76486904Y-109980952D01*
X76486904Y-109904761D01*
X76448809Y-109790476D01*
X76372619Y-109714285D01*
X76296428Y-109676190D01*
X76144047Y-109638095D01*
X76029761Y-109638095D01*
X75877380Y-109676190D01*
X75801190Y-109714285D01*
X75725000Y-109790476D01*
X75686904Y-109904761D01*
X75686904Y-109980952D01*
X75725000Y-110095238D01*
X75763095Y-110133333D01*
X75686904Y-110628571D02*
X75686904Y-110780952D01*
X75725000Y-110857142D01*
X75801190Y-110933333D01*
X75953571Y-110971428D01*
X76220238Y-110971428D01*
X76372619Y-110933333D01*
X76448809Y-110857142D01*
X76486904Y-110780952D01*
X76486904Y-110628571D01*
X76448809Y-110552380D01*
X76372619Y-110476190D01*
X76220238Y-110438095D01*
X75953571Y-110438095D01*
X75801190Y-110476190D01*
X75725000Y-110552380D01*
X75686904Y-110628571D01*
X76486904Y-111314285D02*
X75686904Y-111314285D01*
X76258333Y-111580952D01*
X75686904Y-111847619D01*
X76486904Y-111847619D01*
D11*
X118721265Y-114996243D02*
X118768884Y-115043862D01*
X118911741Y-115091481D01*
X119006979Y-115091481D01*
X119149837Y-115043862D01*
X119245075Y-114948624D01*
X119292694Y-114853386D01*
X119340313Y-114662910D01*
X119340313Y-114520053D01*
X119292694Y-114329577D01*
X119245075Y-114234339D01*
X119149837Y-114139101D01*
X119006979Y-114091481D01*
X118911741Y-114091481D01*
X118768884Y-114139101D01*
X118721265Y-114186720D01*
X118340313Y-114186720D02*
X118292694Y-114139101D01*
X118197456Y-114091481D01*
X117959360Y-114091481D01*
X117864122Y-114139101D01*
X117816503Y-114186720D01*
X117768884Y-114281958D01*
X117768884Y-114377196D01*
X117816503Y-114520053D01*
X118387932Y-115091481D01*
X117768884Y-115091481D01*
D12*
X160157514Y-51622172D02*
X160214657Y-51679315D01*
X160386085Y-51736458D01*
X160500371Y-51736458D01*
X160671800Y-51679315D01*
X160786085Y-51565029D01*
X160843228Y-51450743D01*
X160900371Y-51222172D01*
X160900371Y-51050743D01*
X160843228Y-50822172D01*
X160786085Y-50707886D01*
X160671800Y-50593601D01*
X160500371Y-50536458D01*
X160386085Y-50536458D01*
X160214657Y-50593601D01*
X160157514Y-50650743D01*
X159128942Y-50936458D02*
X159128942Y-51736458D01*
X159643228Y-50936458D02*
X159643228Y-51565029D01*
X159586085Y-51679315D01*
X159471800Y-51736458D01*
X159300371Y-51736458D01*
X159186085Y-51679315D01*
X159128942Y-51622172D01*
X158614657Y-51679315D02*
X158500371Y-51736458D01*
X158271800Y-51736458D01*
X158157514Y-51679315D01*
X158100371Y-51565029D01*
X158100371Y-51507886D01*
X158157514Y-51393601D01*
X158271800Y-51336458D01*
X158443228Y-51336458D01*
X158557514Y-51279315D01*
X158614657Y-51165029D01*
X158614657Y-51107886D01*
X158557514Y-50993601D01*
X158443228Y-50936458D01*
X158271800Y-50936458D01*
X158157514Y-50993601D01*
X157757514Y-50936458D02*
X157300371Y-50936458D01*
X157586085Y-50536458D02*
X157586085Y-51565029D01*
X157528942Y-51679315D01*
X157414657Y-51736458D01*
X157300371Y-51736458D01*
X156728942Y-51736458D02*
X156843228Y-51679315D01*
X156900371Y-51622172D01*
X156957514Y-51507886D01*
X156957514Y-51165029D01*
X156900371Y-51050743D01*
X156843228Y-50993601D01*
X156728942Y-50936458D01*
X156557514Y-50936458D01*
X156443228Y-50993601D01*
X156386085Y-51050743D01*
X156328942Y-51165029D01*
X156328942Y-51507886D01*
X156386085Y-51622172D01*
X156443228Y-51679315D01*
X156557514Y-51736458D01*
X156728942Y-51736458D01*
X155814657Y-51736458D02*
X155814657Y-50936458D01*
X155814657Y-51050743D02*
X155757514Y-50993601D01*
X155643228Y-50936458D01*
X155471800Y-50936458D01*
X155357514Y-50993601D01*
X155300371Y-51107886D01*
X155300371Y-51736458D01*
X155300371Y-51107886D02*
X155243228Y-50993601D01*
X155128942Y-50936458D01*
X154957514Y-50936458D01*
X154843228Y-50993601D01*
X154786085Y-51107886D01*
X154786085Y-51736458D01*
X153300371Y-51736458D02*
X153300371Y-50536458D01*
X153186085Y-51279315D02*
X152843228Y-51736458D01*
X152843228Y-50936458D02*
X153300371Y-51393601D01*
X151871800Y-51679315D02*
X151986085Y-51736458D01*
X152214657Y-51736458D01*
X152328942Y-51679315D01*
X152386085Y-51565029D01*
X152386085Y-51107886D01*
X152328942Y-50993601D01*
X152214657Y-50936458D01*
X151986085Y-50936458D01*
X151871800Y-50993601D01*
X151814657Y-51107886D01*
X151814657Y-51222172D01*
X152386085Y-51336458D01*
X151414657Y-50936458D02*
X151128942Y-51736458D01*
X150843228Y-50936458D02*
X151128942Y-51736458D01*
X151243228Y-52022172D01*
X151300371Y-52079315D01*
X151414657Y-52136458D01*
X150386085Y-51736458D02*
X150386085Y-50536458D01*
X150386085Y-50993601D02*
X150271800Y-50936458D01*
X150043228Y-50936458D01*
X149928942Y-50993601D01*
X149871800Y-51050743D01*
X149814657Y-51165029D01*
X149814657Y-51507886D01*
X149871800Y-51622172D01*
X149928942Y-51679315D01*
X150043228Y-51736458D01*
X150271800Y-51736458D01*
X150386085Y-51679315D01*
X149128942Y-51736458D02*
X149243228Y-51679315D01*
X149300371Y-51622172D01*
X149357514Y-51507886D01*
X149357514Y-51165029D01*
X149300371Y-51050743D01*
X149243228Y-50993601D01*
X149128942Y-50936458D01*
X148957514Y-50936458D01*
X148843228Y-50993601D01*
X148786085Y-51050743D01*
X148728942Y-51165029D01*
X148728942Y-51507886D01*
X148786085Y-51622172D01*
X148843228Y-51679315D01*
X148957514Y-51736458D01*
X149128942Y-51736458D01*
X147700371Y-51736458D02*
X147700371Y-51107886D01*
X147757514Y-50993601D01*
X147871800Y-50936458D01*
X148100371Y-50936458D01*
X148214657Y-50993601D01*
X147700371Y-51679315D02*
X147814657Y-51736458D01*
X148100371Y-51736458D01*
X148214657Y-51679315D01*
X148271800Y-51565029D01*
X148271800Y-51450743D01*
X148214657Y-51336458D01*
X148100371Y-51279315D01*
X147814657Y-51279315D01*
X147700371Y-51222172D01*
X147128942Y-51736458D02*
X147128942Y-50936458D01*
X147128942Y-51165029D02*
X147071800Y-51050743D01*
X147014657Y-50993601D01*
X146900371Y-50936458D01*
X146786085Y-50936458D01*
X145871800Y-51736458D02*
X145871800Y-50536458D01*
X145871800Y-51679315D02*
X145986085Y-51736458D01*
X146214657Y-51736458D01*
X146328942Y-51679315D01*
X146386085Y-51622172D01*
X146443228Y-51507886D01*
X146443228Y-51165029D01*
X146386085Y-51050743D01*
X146328942Y-50993601D01*
X146214657Y-50936458D01*
X145986085Y-50936458D01*
X145871800Y-50993601D01*
X145357514Y-51679315D02*
X145243228Y-51736458D01*
X145014657Y-51736458D01*
X144900371Y-51679315D01*
X144843228Y-51565029D01*
X144843228Y-51507886D01*
X144900371Y-51393601D01*
X145014657Y-51336458D01*
X145186085Y-51336458D01*
X145300371Y-51279315D01*
X145357514Y-51165029D01*
X145357514Y-51107886D01*
X145300371Y-50993601D01*
X145186085Y-50936458D01*
X145014657Y-50936458D01*
X144900371Y-50993601D01*
X143414657Y-51736458D02*
X143414657Y-50936458D01*
X143414657Y-51050743D02*
X143357514Y-50993601D01*
X143243228Y-50936458D01*
X143071800Y-50936458D01*
X142957514Y-50993601D01*
X142900371Y-51107886D01*
X142900371Y-51736458D01*
X142900371Y-51107886D02*
X142843228Y-50993601D01*
X142728942Y-50936458D01*
X142557514Y-50936458D01*
X142443228Y-50993601D01*
X142386085Y-51107886D01*
X142386085Y-51736458D01*
X141300371Y-51736458D02*
X141300371Y-51107886D01*
X141357514Y-50993601D01*
X141471800Y-50936458D01*
X141700371Y-50936458D01*
X141814657Y-50993601D01*
X141300371Y-51679315D02*
X141414657Y-51736458D01*
X141700371Y-51736458D01*
X141814657Y-51679315D01*
X141871800Y-51565029D01*
X141871800Y-51450743D01*
X141814657Y-51336458D01*
X141700371Y-51279315D01*
X141414657Y-51279315D01*
X141300371Y-51222172D01*
X140214657Y-51736458D02*
X140214657Y-50536458D01*
X140214657Y-51679315D02*
X140328942Y-51736458D01*
X140557514Y-51736458D01*
X140671800Y-51679315D01*
X140728942Y-51622172D01*
X140786085Y-51507886D01*
X140786085Y-51165029D01*
X140728942Y-51050743D01*
X140671800Y-50993601D01*
X140557514Y-50936458D01*
X140328942Y-50936458D01*
X140214657Y-50993601D01*
X139186085Y-51679315D02*
X139300371Y-51736458D01*
X139528942Y-51736458D01*
X139643228Y-51679315D01*
X139700371Y-51565029D01*
X139700371Y-51107886D01*
X139643228Y-50993601D01*
X139528942Y-50936458D01*
X139300371Y-50936458D01*
X139186085Y-50993601D01*
X139128942Y-51107886D01*
X139128942Y-51222172D01*
X139700371Y-51336458D01*
X137700371Y-51736458D02*
X137700371Y-50936458D01*
X137700371Y-50536458D02*
X137757514Y-50593601D01*
X137700371Y-50650743D01*
X137643228Y-50593601D01*
X137700371Y-50536458D01*
X137700371Y-50650743D01*
X137128942Y-50936458D02*
X137128942Y-51736458D01*
X137128942Y-51050743D02*
X137071800Y-50993601D01*
X136957514Y-50936458D01*
X136786085Y-50936458D01*
X136671800Y-50993601D01*
X136614657Y-51107886D01*
X136614657Y-51736458D01*
X135300371Y-50936458D02*
X134843228Y-50936458D01*
X135128942Y-50536458D02*
X135128942Y-51565029D01*
X135071800Y-51679315D01*
X134957514Y-51736458D01*
X134843228Y-51736458D01*
X134443228Y-51736458D02*
X134443228Y-50536458D01*
X133928942Y-51736458D02*
X133928942Y-51107886D01*
X133986085Y-50993601D01*
X134100371Y-50936458D01*
X134271800Y-50936458D01*
X134386085Y-50993601D01*
X134443228Y-51050743D01*
X132900371Y-51679315D02*
X133014657Y-51736458D01*
X133243228Y-51736458D01*
X133357514Y-51679315D01*
X133414657Y-51565029D01*
X133414657Y-51107886D01*
X133357514Y-50993601D01*
X133243228Y-50936458D01*
X133014657Y-50936458D01*
X132900371Y-50993601D01*
X132843228Y-51107886D01*
X132843228Y-51222172D01*
X133414657Y-51336458D01*
X131414657Y-51736458D02*
X131414657Y-50536458D01*
X130728942Y-51736458D01*
X130728942Y-50536458D01*
X129700371Y-51679315D02*
X129814657Y-51736458D01*
X130043228Y-51736458D01*
X130157514Y-51679315D01*
X130214657Y-51565029D01*
X130214657Y-51107886D01*
X130157514Y-50993601D01*
X130043228Y-50936458D01*
X129814657Y-50936458D01*
X129700371Y-50993601D01*
X129643228Y-51107886D01*
X129643228Y-51222172D01*
X130214657Y-51336458D01*
X129300371Y-50936458D02*
X128843228Y-50936458D01*
X129128942Y-50536458D02*
X129128942Y-51565029D01*
X129071800Y-51679315D01*
X128957514Y-51736458D01*
X128843228Y-51736458D01*
X128443228Y-51736458D02*
X128443228Y-50536458D01*
X127928942Y-51736458D02*
X127928942Y-51107886D01*
X127986085Y-50993601D01*
X128100371Y-50936458D01*
X128271800Y-50936458D01*
X128386085Y-50993601D01*
X128443228Y-51050743D01*
X126900371Y-51679315D02*
X127014657Y-51736458D01*
X127243228Y-51736458D01*
X127357514Y-51679315D01*
X127414657Y-51565029D01*
X127414657Y-51107886D01*
X127357514Y-50993601D01*
X127243228Y-50936458D01*
X127014657Y-50936458D01*
X126900371Y-50993601D01*
X126843228Y-51107886D01*
X126843228Y-51222172D01*
X127414657Y-51336458D01*
X126328942Y-51736458D02*
X126328942Y-50936458D01*
X126328942Y-51165029D02*
X126271800Y-51050743D01*
X126214657Y-50993601D01*
X126100371Y-50936458D01*
X125986085Y-50936458D01*
X125414657Y-51736458D02*
X125528942Y-51679315D01*
X125586085Y-51565029D01*
X125586085Y-50536458D01*
X124443228Y-51736458D02*
X124443228Y-51107886D01*
X124500371Y-50993601D01*
X124614657Y-50936458D01*
X124843228Y-50936458D01*
X124957514Y-50993601D01*
X124443228Y-51679315D02*
X124557514Y-51736458D01*
X124843228Y-51736458D01*
X124957514Y-51679315D01*
X125014657Y-51565029D01*
X125014657Y-51450743D01*
X124957514Y-51336458D01*
X124843228Y-51279315D01*
X124557514Y-51279315D01*
X124443228Y-51222172D01*
X123871800Y-50936458D02*
X123871800Y-51736458D01*
X123871800Y-51050743D02*
X123814657Y-50993601D01*
X123700371Y-50936458D01*
X123528942Y-50936458D01*
X123414657Y-50993601D01*
X123357514Y-51107886D01*
X123357514Y-51736458D01*
X122271800Y-51736458D02*
X122271800Y-50536458D01*
X122271800Y-51679315D02*
X122386085Y-51736458D01*
X122614657Y-51736458D01*
X122728942Y-51679315D01*
X122786085Y-51622172D01*
X122843228Y-51507886D01*
X122843228Y-51165029D01*
X122786085Y-51050743D01*
X122728942Y-50993601D01*
X122614657Y-50936458D01*
X122386085Y-50936458D01*
X122271800Y-50993601D01*
X121757514Y-51679315D02*
X121643228Y-51736458D01*
X121414657Y-51736458D01*
X121300371Y-51679315D01*
X121243228Y-51565029D01*
X121243228Y-51507886D01*
X121300371Y-51393601D01*
X121414657Y-51336458D01*
X121586085Y-51336458D01*
X121700371Y-51279315D01*
X121757514Y-51165029D01*
X121757514Y-51107886D01*
X121700371Y-50993601D01*
X121586085Y-50936458D01*
X121414657Y-50936458D01*
X121300371Y-50993601D01*
X149506771Y-99802455D02*
X149506771Y-99088169D01*
X148006771Y-99088169D01*
X148721057Y-100302455D02*
X148721057Y-100802455D01*
X149506771Y-101016741D02*
X149506771Y-100302455D01*
X148006771Y-100302455D01*
X148006771Y-101016741D01*
X148721057Y-102159598D02*
X148721057Y-101659598D01*
X149506771Y-101659598D02*
X148006771Y-101659598D01*
X148006771Y-102373884D01*
X148006771Y-102731027D02*
X148006771Y-103588169D01*
X149506771Y-103159598D02*
X148006771Y-103159598D01*
D11*
X52285059Y-80076751D02*
X51719374Y-79511065D01*
X51584687Y-79645752D01*
X51530812Y-79753502D01*
X51530812Y-79861251D01*
X51557749Y-79942064D01*
X51638561Y-80076751D01*
X51719374Y-80157563D01*
X51854061Y-80238375D01*
X51934873Y-80265312D01*
X52042622Y-80265312D01*
X52150372Y-80211438D01*
X52285059Y-80076751D01*
X51719374Y-80642436D02*
X51153688Y-80076751D01*
X51450000Y-80911810D02*
X50884314Y-80346125D01*
X51126751Y-81235059D01*
X50561065Y-80669374D01*
X119166666Y-81008280D02*
X119500000Y-80532090D01*
X119738095Y-81008280D02*
X119738095Y-80008280D01*
X119357142Y-80008280D01*
X119261904Y-80055900D01*
X119214285Y-80103519D01*
X119166666Y-80198757D01*
X119166666Y-80341614D01*
X119214285Y-80436852D01*
X119261904Y-80484471D01*
X119357142Y-80532090D01*
X119738095Y-80532090D01*
X118833333Y-80008280D02*
X118214285Y-80008280D01*
X118547619Y-80389233D01*
X118404761Y-80389233D01*
X118309523Y-80436852D01*
X118261904Y-80484471D01*
X118214285Y-80579709D01*
X118214285Y-80817804D01*
X118261904Y-80913042D01*
X118309523Y-80960661D01*
X118404761Y-81008280D01*
X118690476Y-81008280D01*
X118785714Y-80960661D01*
X118833333Y-80913042D01*
X146458376Y-113899338D02*
X146485314Y-113818526D01*
X146566126Y-113737714D01*
X146673875Y-113683839D01*
X146781625Y-113683839D01*
X146862437Y-113710777D01*
X146997124Y-113791589D01*
X147077936Y-113872401D01*
X147158749Y-114007088D01*
X147185686Y-114087900D01*
X147185686Y-114195650D01*
X147131811Y-114303399D01*
X147077936Y-114357274D01*
X146970187Y-114411149D01*
X146916312Y-114411149D01*
X146727750Y-114222587D01*
X146835500Y-114114838D01*
X146727750Y-114707460D02*
X146162065Y-114141775D01*
X146404501Y-115030709D01*
X145838816Y-114465024D01*
X146135127Y-115300083D02*
X145569442Y-114734398D01*
X145434755Y-114869085D01*
X145380880Y-114976834D01*
X145380880Y-115084584D01*
X145407818Y-115165396D01*
X145488630Y-115300083D01*
X145569442Y-115380895D01*
X145704129Y-115461708D01*
X145784941Y-115488645D01*
X145892691Y-115488645D01*
X146000440Y-115434770D01*
X146135127Y-115300083D01*
D12*
X39443228Y-92747544D02*
X39443228Y-93461830D01*
X40943228Y-93461830D01*
X40228942Y-92247544D02*
X40228942Y-91747544D01*
X39443228Y-91533258D02*
X39443228Y-92247544D01*
X40943228Y-92247544D01*
X40943228Y-91533258D01*
X40228942Y-90390401D02*
X40228942Y-90890401D01*
X39443228Y-90890401D02*
X40943228Y-90890401D01*
X40943228Y-90176115D01*
X40943228Y-89818973D02*
X40943228Y-88961830D01*
X39443228Y-89390401D02*
X40943228Y-89390401D01*
D10*
X92349085Y-85305886D02*
X92310990Y-85343981D01*
X92272895Y-85458267D01*
X92272895Y-85534458D01*
X92310990Y-85648743D01*
X92387180Y-85724934D01*
X92463371Y-85763029D01*
X92615752Y-85801124D01*
X92730038Y-85801124D01*
X92882419Y-85763029D01*
X92958609Y-85724934D01*
X93034800Y-85648743D01*
X93072895Y-85534458D01*
X93072895Y-85458267D01*
X93034800Y-85343981D01*
X92996704Y-85305886D01*
X93072895Y-85039220D02*
X93072895Y-84543981D01*
X92768133Y-84810648D01*
X92768133Y-84696362D01*
X92730038Y-84620172D01*
X92691942Y-84582077D01*
X92615752Y-84543981D01*
X92425276Y-84543981D01*
X92349085Y-84582077D01*
X92310990Y-84620172D01*
X92272895Y-84696362D01*
X92272895Y-84924934D01*
X92310990Y-85001124D01*
X92349085Y-85039220D01*
X92272895Y-83743981D02*
X92653847Y-84010648D01*
X92272895Y-84201124D02*
X93072895Y-84201124D01*
X93072895Y-83896362D01*
X93034800Y-83820172D01*
X92996704Y-83782077D01*
X92920514Y-83743981D01*
X92806228Y-83743981D01*
X92730038Y-83782077D01*
X92691942Y-83820172D01*
X92653847Y-83896362D01*
X92653847Y-84201124D01*
X92996704Y-83439220D02*
X93034800Y-83401124D01*
X93072895Y-83324934D01*
X93072895Y-83134458D01*
X93034800Y-83058267D01*
X92996704Y-83020172D01*
X92920514Y-82982077D01*
X92844323Y-82982077D01*
X92730038Y-83020172D01*
X92272895Y-83477315D01*
X92272895Y-82982077D01*
X114299085Y-83055886D02*
X114260990Y-83093981D01*
X114222895Y-83208267D01*
X114222895Y-83284458D01*
X114260990Y-83398743D01*
X114337180Y-83474934D01*
X114413371Y-83513029D01*
X114565752Y-83551124D01*
X114680038Y-83551124D01*
X114832419Y-83513029D01*
X114908609Y-83474934D01*
X114984800Y-83398743D01*
X115022895Y-83284458D01*
X115022895Y-83208267D01*
X114984800Y-83093981D01*
X114946704Y-83055886D01*
X114756228Y-82370172D02*
X114222895Y-82370172D01*
X115060990Y-82560648D02*
X114489561Y-82751124D01*
X114489561Y-82255886D01*
X114222895Y-81493981D02*
X114603847Y-81760648D01*
X114222895Y-81951124D02*
X115022895Y-81951124D01*
X115022895Y-81646362D01*
X114984800Y-81570172D01*
X114946704Y-81532077D01*
X114870514Y-81493981D01*
X114756228Y-81493981D01*
X114680038Y-81532077D01*
X114641942Y-81570172D01*
X114603847Y-81646362D01*
X114603847Y-81951124D01*
X114946704Y-81189220D02*
X114984800Y-81151124D01*
X115022895Y-81074934D01*
X115022895Y-80884458D01*
X114984800Y-80808267D01*
X114946704Y-80770172D01*
X114870514Y-80732077D01*
X114794323Y-80732077D01*
X114680038Y-80770172D01*
X114222895Y-81227315D01*
X114222895Y-80732077D01*
D11*
X119166666Y-85893142D02*
X119214285Y-85940761D01*
X119357142Y-85988380D01*
X119452380Y-85988380D01*
X119595238Y-85940761D01*
X119690476Y-85845523D01*
X119738095Y-85750285D01*
X119785714Y-85559809D01*
X119785714Y-85416952D01*
X119738095Y-85226476D01*
X119690476Y-85131238D01*
X119595238Y-85036000D01*
X119452380Y-84988380D01*
X119357142Y-84988380D01*
X119214285Y-85036000D01*
X119166666Y-85083619D01*
X118309523Y-85321714D02*
X118309523Y-85988380D01*
X118547619Y-84940761D02*
X118785714Y-85655047D01*
X118166666Y-85655047D01*
D10*
X92349085Y-62205886D02*
X92310990Y-62243981D01*
X92272895Y-62358267D01*
X92272895Y-62434458D01*
X92310990Y-62548743D01*
X92387180Y-62624934D01*
X92463371Y-62663029D01*
X92615752Y-62701124D01*
X92730038Y-62701124D01*
X92882419Y-62663029D01*
X92958609Y-62624934D01*
X93034800Y-62548743D01*
X93072895Y-62434458D01*
X93072895Y-62358267D01*
X93034800Y-62243981D01*
X92996704Y-62205886D01*
X93072895Y-61939220D02*
X93072895Y-61443981D01*
X92768133Y-61710648D01*
X92768133Y-61596362D01*
X92730038Y-61520172D01*
X92691942Y-61482077D01*
X92615752Y-61443981D01*
X92425276Y-61443981D01*
X92349085Y-61482077D01*
X92310990Y-61520172D01*
X92272895Y-61596362D01*
X92272895Y-61824934D01*
X92310990Y-61901124D01*
X92349085Y-61939220D01*
X92272895Y-60643981D02*
X92653847Y-60910648D01*
X92272895Y-61101124D02*
X93072895Y-61101124D01*
X93072895Y-60796362D01*
X93034800Y-60720172D01*
X92996704Y-60682077D01*
X92920514Y-60643981D01*
X92806228Y-60643981D01*
X92730038Y-60682077D01*
X92691942Y-60720172D01*
X92653847Y-60796362D01*
X92653847Y-61101124D01*
X92272895Y-59882077D02*
X92272895Y-60339220D01*
X92272895Y-60110648D02*
X93072895Y-60110648D01*
X92958609Y-60186839D01*
X92882419Y-60263029D01*
X92844323Y-60339220D01*
X159299085Y-86605886D02*
X159260990Y-86643981D01*
X159222895Y-86758267D01*
X159222895Y-86834458D01*
X159260990Y-86948743D01*
X159337180Y-87024934D01*
X159413371Y-87063029D01*
X159565752Y-87101124D01*
X159680038Y-87101124D01*
X159832419Y-87063029D01*
X159908609Y-87024934D01*
X159984800Y-86948743D01*
X160022895Y-86834458D01*
X160022895Y-86758267D01*
X159984800Y-86643981D01*
X159946704Y-86605886D01*
X160022895Y-85920172D02*
X160022895Y-86072553D01*
X159984800Y-86148743D01*
X159946704Y-86186839D01*
X159832419Y-86263029D01*
X159680038Y-86301124D01*
X159375276Y-86301124D01*
X159299085Y-86263029D01*
X159260990Y-86224934D01*
X159222895Y-86148743D01*
X159222895Y-85996362D01*
X159260990Y-85920172D01*
X159299085Y-85882077D01*
X159375276Y-85843981D01*
X159565752Y-85843981D01*
X159641942Y-85882077D01*
X159680038Y-85920172D01*
X159718133Y-85996362D01*
X159718133Y-86148743D01*
X159680038Y-86224934D01*
X159641942Y-86263029D01*
X159565752Y-86301124D01*
X159222895Y-85043981D02*
X159603847Y-85310648D01*
X159222895Y-85501124D02*
X160022895Y-85501124D01*
X160022895Y-85196362D01*
X159984800Y-85120172D01*
X159946704Y-85082077D01*
X159870514Y-85043981D01*
X159756228Y-85043981D01*
X159680038Y-85082077D01*
X159641942Y-85120172D01*
X159603847Y-85196362D01*
X159603847Y-85501124D01*
X159946704Y-84739220D02*
X159984800Y-84701124D01*
X160022895Y-84624934D01*
X160022895Y-84434458D01*
X159984800Y-84358267D01*
X159946704Y-84320172D01*
X159870514Y-84282077D01*
X159794323Y-84282077D01*
X159680038Y-84320172D01*
X159222895Y-84777315D01*
X159222895Y-84282077D01*
X130717037Y-102405505D02*
X130983703Y-102024553D01*
X131174179Y-102405505D02*
X131174179Y-101605505D01*
X130869418Y-101605505D01*
X130793227Y-101643601D01*
X130755132Y-101681696D01*
X130717037Y-101757886D01*
X130717037Y-101872172D01*
X130755132Y-101948362D01*
X130793227Y-101986458D01*
X130869418Y-102024553D01*
X131174179Y-102024553D01*
X130374179Y-101986458D02*
X130107513Y-101986458D01*
X129993227Y-102405505D02*
X130374179Y-102405505D01*
X130374179Y-101605505D01*
X129993227Y-101605505D01*
X129764656Y-101605505D02*
X129497989Y-102405505D01*
X129231322Y-101605505D01*
X128393227Y-101681696D02*
X128355132Y-101643601D01*
X128278941Y-101605505D01*
X128088465Y-101605505D01*
X128012275Y-101643601D01*
X127974179Y-101681696D01*
X127936084Y-101757886D01*
X127936084Y-101834077D01*
X127974179Y-101948362D01*
X128431322Y-102405505D01*
X127936084Y-102405505D01*
X127593227Y-102329315D02*
X127555132Y-102367410D01*
X127593227Y-102405505D01*
X127631322Y-102367410D01*
X127593227Y-102329315D01*
X127593227Y-102405505D01*
X127250370Y-101681696D02*
X127212275Y-101643601D01*
X127136084Y-101605505D01*
X126945608Y-101605505D01*
X126869418Y-101643601D01*
X126831322Y-101681696D01*
X126793227Y-101757886D01*
X126793227Y-101834077D01*
X126831322Y-101948362D01*
X127288465Y-102405505D01*
X126793227Y-102405505D01*
X126031322Y-102405505D02*
X126488465Y-102405505D01*
X126259894Y-102405505D02*
X126259894Y-101605505D01*
X126336084Y-101719791D01*
X126412275Y-101795981D01*
X126488465Y-101834077D01*
X137799085Y-63505886D02*
X137760990Y-63543981D01*
X137722895Y-63658267D01*
X137722895Y-63734458D01*
X137760990Y-63848743D01*
X137837180Y-63924934D01*
X137913371Y-63963029D01*
X138065752Y-64001124D01*
X138180038Y-64001124D01*
X138332419Y-63963029D01*
X138408609Y-63924934D01*
X138484800Y-63848743D01*
X138522895Y-63734458D01*
X138522895Y-63658267D01*
X138484800Y-63543981D01*
X138446704Y-63505886D01*
X138522895Y-62782077D02*
X138522895Y-63163029D01*
X138141942Y-63201124D01*
X138180038Y-63163029D01*
X138218133Y-63086839D01*
X138218133Y-62896362D01*
X138180038Y-62820172D01*
X138141942Y-62782077D01*
X138065752Y-62743981D01*
X137875276Y-62743981D01*
X137799085Y-62782077D01*
X137760990Y-62820172D01*
X137722895Y-62896362D01*
X137722895Y-63086839D01*
X137760990Y-63163029D01*
X137799085Y-63201124D01*
X137722895Y-61943981D02*
X138103847Y-62210648D01*
X137722895Y-62401124D02*
X138522895Y-62401124D01*
X138522895Y-62096362D01*
X138484800Y-62020172D01*
X138446704Y-61982077D01*
X138370514Y-61943981D01*
X138256228Y-61943981D01*
X138180038Y-61982077D01*
X138141942Y-62020172D01*
X138103847Y-62096362D01*
X138103847Y-62401124D01*
X137722895Y-61182077D02*
X137722895Y-61639220D01*
X137722895Y-61410648D02*
X138522895Y-61410648D01*
X138408609Y-61486839D01*
X138332419Y-61563029D01*
X138294323Y-61639220D01*
D11*
X118965666Y-93741480D02*
X119299000Y-93265290D01*
X119537095Y-93741480D02*
X119537095Y-92741480D01*
X119156142Y-92741480D01*
X119060904Y-92789100D01*
X119013285Y-92836719D01*
X118965666Y-92931957D01*
X118965666Y-93074814D01*
X119013285Y-93170052D01*
X119060904Y-93217671D01*
X119156142Y-93265290D01*
X119537095Y-93265290D01*
X118108523Y-93074814D02*
X118108523Y-93741480D01*
X118346619Y-92693861D02*
X118584714Y-93408147D01*
X117965666Y-93408147D01*
X49140476Y-84452380D02*
X49473809Y-83976190D01*
X49711904Y-84452380D02*
X49711904Y-83452380D01*
X49330952Y-83452380D01*
X49235714Y-83500000D01*
X49188095Y-83547619D01*
X49140476Y-83642857D01*
X49140476Y-83785714D01*
X49188095Y-83880952D01*
X49235714Y-83928571D01*
X49330952Y-83976190D01*
X49711904Y-83976190D01*
D10*
X111677752Y-75166601D02*
X111753942Y-75128505D01*
X111868228Y-75128505D01*
X111982514Y-75166601D01*
X112058704Y-75242791D01*
X112096800Y-75318981D01*
X112134895Y-75471362D01*
X112134895Y-75585648D01*
X112096800Y-75738029D01*
X112058704Y-75814220D01*
X111982514Y-75890410D01*
X111868228Y-75928505D01*
X111792038Y-75928505D01*
X111677752Y-75890410D01*
X111639657Y-75852315D01*
X111639657Y-75585648D01*
X111792038Y-75585648D01*
X111296800Y-75928505D02*
X111296800Y-75128505D01*
X111030133Y-75128505D02*
X110572990Y-75128505D01*
X110801561Y-75928505D02*
X110801561Y-75128505D01*
X110306323Y-75928505D02*
X110306323Y-75128505D01*
X110306323Y-75509458D02*
X109849180Y-75509458D01*
X109849180Y-75928505D02*
X109849180Y-75128505D01*
X109468228Y-75128505D02*
X109468228Y-75776124D01*
X109430133Y-75852315D01*
X109392038Y-75890410D01*
X109315847Y-75928505D01*
X109163466Y-75928505D01*
X109087276Y-75890410D01*
X109049180Y-75852315D01*
X109011085Y-75776124D01*
X109011085Y-75128505D01*
X108363466Y-75509458D02*
X108249180Y-75547553D01*
X108211085Y-75585648D01*
X108172990Y-75661839D01*
X108172990Y-75776124D01*
X108211085Y-75852315D01*
X108249180Y-75890410D01*
X108325371Y-75928505D01*
X108630133Y-75928505D01*
X108630133Y-75128505D01*
X108363466Y-75128505D01*
X108287276Y-75166601D01*
X108249180Y-75204696D01*
X108211085Y-75280886D01*
X108211085Y-75357077D01*
X108249180Y-75433267D01*
X108287276Y-75471362D01*
X108363466Y-75509458D01*
X108630133Y-75509458D01*
X107830133Y-75852315D02*
X107792038Y-75890410D01*
X107830133Y-75928505D01*
X107868228Y-75890410D01*
X107830133Y-75852315D01*
X107830133Y-75928505D01*
X106992038Y-75852315D02*
X107030133Y-75890410D01*
X107144419Y-75928505D01*
X107220609Y-75928505D01*
X107334895Y-75890410D01*
X107411085Y-75814220D01*
X107449180Y-75738029D01*
X107487276Y-75585648D01*
X107487276Y-75471362D01*
X107449180Y-75318981D01*
X107411085Y-75242791D01*
X107334895Y-75166601D01*
X107220609Y-75128505D01*
X107144419Y-75128505D01*
X107030133Y-75166601D01*
X106992038Y-75204696D01*
X106496800Y-75128505D02*
X106344419Y-75128505D01*
X106268228Y-75166601D01*
X106192038Y-75242791D01*
X106153942Y-75395172D01*
X106153942Y-75661839D01*
X106192038Y-75814220D01*
X106268228Y-75890410D01*
X106344419Y-75928505D01*
X106496800Y-75928505D01*
X106572990Y-75890410D01*
X106649180Y-75814220D01*
X106687276Y-75661839D01*
X106687276Y-75395172D01*
X106649180Y-75242791D01*
X106572990Y-75166601D01*
X106496800Y-75128505D01*
X105811085Y-75928505D02*
X105811085Y-75128505D01*
X105544419Y-75699934D01*
X105277752Y-75128505D01*
X105277752Y-75928505D01*
X104325371Y-75090410D02*
X105011085Y-76118981D01*
X103792038Y-75509458D02*
X103677752Y-75547553D01*
X103639657Y-75585648D01*
X103601561Y-75661839D01*
X103601561Y-75776124D01*
X103639657Y-75852315D01*
X103677752Y-75890410D01*
X103753942Y-75928505D01*
X104058704Y-75928505D01*
X104058704Y-75128505D01*
X103792038Y-75128505D01*
X103715847Y-75166601D01*
X103677752Y-75204696D01*
X103639657Y-75280886D01*
X103639657Y-75357077D01*
X103677752Y-75433267D01*
X103715847Y-75471362D01*
X103792038Y-75509458D01*
X104058704Y-75509458D01*
X103296800Y-75699934D02*
X102915847Y-75699934D01*
X103372990Y-75928505D02*
X103106323Y-75128505D01*
X102839657Y-75928505D01*
X102611085Y-75890410D02*
X102496800Y-75928505D01*
X102306323Y-75928505D01*
X102230133Y-75890410D01*
X102192038Y-75852315D01*
X102153942Y-75776124D01*
X102153942Y-75699934D01*
X102192038Y-75623743D01*
X102230133Y-75585648D01*
X102306323Y-75547553D01*
X102458704Y-75509458D01*
X102534895Y-75471362D01*
X102572990Y-75433267D01*
X102611085Y-75357077D01*
X102611085Y-75280886D01*
X102572990Y-75204696D01*
X102534895Y-75166601D01*
X102458704Y-75128505D01*
X102268228Y-75128505D01*
X102153942Y-75166601D01*
X101925371Y-75128505D02*
X101468228Y-75128505D01*
X101696800Y-75928505D02*
X101696800Y-75128505D01*
X101239657Y-75699934D02*
X100858704Y-75699934D01*
X101315847Y-75928505D02*
X101049180Y-75128505D01*
X100782514Y-75928505D01*
X100058704Y-75928505D02*
X100325371Y-75547553D01*
X100515847Y-75928505D02*
X100515847Y-75128505D01*
X100211085Y-75128505D01*
X100134895Y-75166601D01*
X100096800Y-75204696D01*
X100058704Y-75280886D01*
X100058704Y-75395172D01*
X100096800Y-75471362D01*
X100134895Y-75509458D01*
X100211085Y-75547553D01*
X100515847Y-75547553D01*
X99715847Y-75928505D02*
X99715847Y-75128505D01*
X99525371Y-75128505D01*
X99411085Y-75166601D01*
X99334895Y-75242791D01*
X99296800Y-75318981D01*
X99258704Y-75471362D01*
X99258704Y-75585648D01*
X99296800Y-75738029D01*
X99334895Y-75814220D01*
X99411085Y-75890410D01*
X99525371Y-75928505D01*
X99715847Y-75928505D01*
X98915847Y-75928505D02*
X98915847Y-75128505D01*
X98458704Y-75928505D02*
X98801561Y-75471362D01*
X98458704Y-75128505D02*
X98915847Y-75585648D01*
X97849180Y-75509458D02*
X97734895Y-75547553D01*
X97696800Y-75585648D01*
X97658704Y-75661839D01*
X97658704Y-75776124D01*
X97696800Y-75852315D01*
X97734895Y-75890410D01*
X97811085Y-75928505D01*
X98115847Y-75928505D01*
X98115847Y-75128505D01*
X97849180Y-75128505D01*
X97772990Y-75166601D01*
X97734895Y-75204696D01*
X97696800Y-75280886D01*
X97696800Y-75357077D01*
X97734895Y-75433267D01*
X97772990Y-75471362D01*
X97849180Y-75509458D01*
X98115847Y-75509458D01*
X152300571Y-78517904D02*
X152681523Y-78517904D01*
X152681523Y-77717904D01*
X152033904Y-78517904D02*
X152033904Y-77984571D01*
X152033904Y-77717904D02*
X152072000Y-77756000D01*
X152033904Y-77794095D01*
X151995809Y-77756000D01*
X152033904Y-77717904D01*
X152033904Y-77794095D01*
X151310095Y-78479809D02*
X151386285Y-78517904D01*
X151538666Y-78517904D01*
X151614857Y-78479809D01*
X151652952Y-78441714D01*
X151691047Y-78365523D01*
X151691047Y-78136952D01*
X151652952Y-78060761D01*
X151614857Y-78022666D01*
X151538666Y-77984571D01*
X151386285Y-77984571D01*
X151310095Y-78022666D01*
X150662476Y-78479809D02*
X150738666Y-78517904D01*
X150891047Y-78517904D01*
X150967238Y-78479809D01*
X151005333Y-78403619D01*
X151005333Y-78098857D01*
X150967238Y-78022666D01*
X150891047Y-77984571D01*
X150738666Y-77984571D01*
X150662476Y-78022666D01*
X150624380Y-78098857D01*
X150624380Y-78175047D01*
X151005333Y-78251238D01*
X150281523Y-77984571D02*
X150281523Y-78517904D01*
X150281523Y-78060761D02*
X150243428Y-78022666D01*
X150167238Y-77984571D01*
X150052952Y-77984571D01*
X149976761Y-78022666D01*
X149938666Y-78098857D01*
X149938666Y-78517904D01*
X149595809Y-78479809D02*
X149519619Y-78517904D01*
X149367238Y-78517904D01*
X149291047Y-78479809D01*
X149252952Y-78403619D01*
X149252952Y-78365523D01*
X149291047Y-78289333D01*
X149367238Y-78251238D01*
X149481523Y-78251238D01*
X149557714Y-78213142D01*
X149595809Y-78136952D01*
X149595809Y-78098857D01*
X149557714Y-78022666D01*
X149481523Y-77984571D01*
X149367238Y-77984571D01*
X149291047Y-78022666D01*
X148605333Y-78479809D02*
X148681523Y-78517904D01*
X148833904Y-78517904D01*
X148910095Y-78479809D01*
X148948190Y-78403619D01*
X148948190Y-78098857D01*
X148910095Y-78022666D01*
X148833904Y-77984571D01*
X148681523Y-77984571D01*
X148605333Y-78022666D01*
X148567238Y-78098857D01*
X148567238Y-78175047D01*
X148948190Y-78251238D01*
X147881523Y-78517904D02*
X147881523Y-77717904D01*
X147881523Y-78479809D02*
X147957714Y-78517904D01*
X148110095Y-78517904D01*
X148186285Y-78479809D01*
X148224380Y-78441714D01*
X148262476Y-78365523D01*
X148262476Y-78136952D01*
X148224380Y-78060761D01*
X148186285Y-78022666D01*
X148110095Y-77984571D01*
X147957714Y-77984571D01*
X147881523Y-78022666D01*
X146548190Y-77984571D02*
X146548190Y-78517904D01*
X146891047Y-77984571D02*
X146891047Y-78403619D01*
X146852952Y-78479809D01*
X146776761Y-78517904D01*
X146662476Y-78517904D01*
X146586285Y-78479809D01*
X146548190Y-78441714D01*
X146167238Y-77984571D02*
X146167238Y-78517904D01*
X146167238Y-78060761D02*
X146129142Y-78022666D01*
X146052952Y-77984571D01*
X145938666Y-77984571D01*
X145862476Y-78022666D01*
X145824380Y-78098857D01*
X145824380Y-78517904D01*
X145100571Y-78517904D02*
X145100571Y-77717904D01*
X145100571Y-78479809D02*
X145176761Y-78517904D01*
X145329142Y-78517904D01*
X145405333Y-78479809D01*
X145443428Y-78441714D01*
X145481523Y-78365523D01*
X145481523Y-78136952D01*
X145443428Y-78060761D01*
X145405333Y-78022666D01*
X145329142Y-77984571D01*
X145176761Y-77984571D01*
X145100571Y-78022666D01*
X144414857Y-78479809D02*
X144491047Y-78517904D01*
X144643428Y-78517904D01*
X144719619Y-78479809D01*
X144757714Y-78403619D01*
X144757714Y-78098857D01*
X144719619Y-78022666D01*
X144643428Y-77984571D01*
X144491047Y-77984571D01*
X144414857Y-78022666D01*
X144376761Y-78098857D01*
X144376761Y-78175047D01*
X144757714Y-78251238D01*
X144033904Y-78517904D02*
X144033904Y-77984571D01*
X144033904Y-78136952D02*
X143995809Y-78060761D01*
X143957714Y-78022666D01*
X143881523Y-77984571D01*
X143805333Y-77984571D01*
X142472000Y-78441714D02*
X142510095Y-78479809D01*
X142624380Y-78517904D01*
X142700571Y-78517904D01*
X142814857Y-78479809D01*
X142891047Y-78403619D01*
X142929142Y-78327428D01*
X142967238Y-78175047D01*
X142967238Y-78060761D01*
X142929142Y-77908380D01*
X142891047Y-77832190D01*
X142814857Y-77756000D01*
X142700571Y-77717904D01*
X142624380Y-77717904D01*
X142510095Y-77756000D01*
X142472000Y-77794095D01*
X141672000Y-78441714D02*
X141710095Y-78479809D01*
X141824380Y-78517904D01*
X141900571Y-78517904D01*
X142014857Y-78479809D01*
X142091047Y-78403619D01*
X142129142Y-78327428D01*
X142167238Y-78175047D01*
X142167238Y-78060761D01*
X142129142Y-77908380D01*
X142091047Y-77832190D01*
X142014857Y-77756000D01*
X141900571Y-77717904D01*
X141824380Y-77717904D01*
X141710095Y-77756000D01*
X141672000Y-77794095D01*
X140452952Y-78098857D02*
X140338666Y-78136952D01*
X140300571Y-78175047D01*
X140262476Y-78251238D01*
X140262476Y-78365523D01*
X140300571Y-78441714D01*
X140338666Y-78479809D01*
X140414857Y-78517904D01*
X140719619Y-78517904D01*
X140719619Y-77717904D01*
X140452952Y-77717904D01*
X140376761Y-77756000D01*
X140338666Y-77794095D01*
X140300571Y-77870285D01*
X140300571Y-77946476D01*
X140338666Y-78022666D01*
X140376761Y-78060761D01*
X140452952Y-78098857D01*
X140719619Y-78098857D01*
X139767238Y-78136952D02*
X139767238Y-78517904D01*
X140033904Y-77717904D02*
X139767238Y-78136952D01*
X139500571Y-77717904D01*
X139233904Y-78213142D02*
X138624380Y-78213142D01*
X138243428Y-78517904D02*
X138243428Y-77717904D01*
X137786285Y-78517904D01*
X137786285Y-77717904D01*
X136948190Y-78441714D02*
X136986285Y-78479809D01*
X137100571Y-78517904D01*
X137176761Y-78517904D01*
X137291047Y-78479809D01*
X137367238Y-78403619D01*
X137405333Y-78327428D01*
X137443428Y-78175047D01*
X137443428Y-78060761D01*
X137405333Y-77908380D01*
X137367238Y-77832190D01*
X137291047Y-77756000D01*
X137176761Y-77717904D01*
X137100571Y-77717904D01*
X136986285Y-77756000D01*
X136948190Y-77794095D01*
X136605333Y-78213142D02*
X135995809Y-78213142D01*
X135652952Y-78479809D02*
X135538666Y-78517904D01*
X135348190Y-78517904D01*
X135272000Y-78479809D01*
X135233904Y-78441714D01*
X135195809Y-78365523D01*
X135195809Y-78289333D01*
X135233904Y-78213142D01*
X135272000Y-78175047D01*
X135348190Y-78136952D01*
X135500571Y-78098857D01*
X135576761Y-78060761D01*
X135614857Y-78022666D01*
X135652952Y-77946476D01*
X135652952Y-77870285D01*
X135614857Y-77794095D01*
X135576761Y-77756000D01*
X135500571Y-77717904D01*
X135310095Y-77717904D01*
X135195809Y-77756000D01*
X134891047Y-78289333D02*
X134510095Y-78289333D01*
X134967238Y-78517904D02*
X134700571Y-77717904D01*
X134433904Y-78517904D01*
X133214857Y-77984571D02*
X133214857Y-78517904D01*
X133405333Y-77679809D02*
X133595809Y-78251238D01*
X133100571Y-78251238D01*
X132795809Y-78441714D02*
X132757714Y-78479809D01*
X132795809Y-78517904D01*
X132833904Y-78479809D01*
X132795809Y-78441714D01*
X132795809Y-78517904D01*
X132262476Y-77717904D02*
X132186285Y-77717904D01*
X132110095Y-77756000D01*
X132071999Y-77794095D01*
X132033904Y-77870285D01*
X131995809Y-78022666D01*
X131995809Y-78213142D01*
X132033904Y-78365523D01*
X132071999Y-78441714D01*
X132110095Y-78479809D01*
X132186285Y-78517904D01*
X132262476Y-78517904D01*
X132338666Y-78479809D01*
X132376761Y-78441714D01*
X132414857Y-78365523D01*
X132452952Y-78213142D01*
X132452952Y-78022666D01*
X132414857Y-77870285D01*
X132376761Y-77794095D01*
X132338666Y-77756000D01*
X132262476Y-77717904D01*
X152224380Y-79729714D02*
X152262476Y-79767809D01*
X152376761Y-79805904D01*
X152452952Y-79805904D01*
X152567238Y-79767809D01*
X152643428Y-79691619D01*
X152681523Y-79615428D01*
X152719619Y-79463047D01*
X152719619Y-79348761D01*
X152681523Y-79196380D01*
X152643428Y-79120190D01*
X152567238Y-79044000D01*
X152452952Y-79005904D01*
X152376761Y-79005904D01*
X152262476Y-79044000D01*
X152224380Y-79082095D01*
X151767238Y-79805904D02*
X151843428Y-79767809D01*
X151881523Y-79729714D01*
X151919619Y-79653523D01*
X151919619Y-79424952D01*
X151881523Y-79348761D01*
X151843428Y-79310666D01*
X151767238Y-79272571D01*
X151652952Y-79272571D01*
X151576761Y-79310666D01*
X151538666Y-79348761D01*
X151500571Y-79424952D01*
X151500571Y-79653523D01*
X151538666Y-79729714D01*
X151576761Y-79767809D01*
X151652952Y-79805904D01*
X151767238Y-79805904D01*
X151157714Y-79272571D02*
X151157714Y-80072571D01*
X151157714Y-79310666D02*
X151081523Y-79272571D01*
X150929142Y-79272571D01*
X150852952Y-79310666D01*
X150814857Y-79348761D01*
X150776761Y-79424952D01*
X150776761Y-79653523D01*
X150814857Y-79729714D01*
X150852952Y-79767809D01*
X150929142Y-79805904D01*
X151081523Y-79805904D01*
X151157714Y-79767809D01*
X150510095Y-79272571D02*
X150319619Y-79805904D01*
X150129142Y-79272571D02*
X150319619Y-79805904D01*
X150395809Y-79996380D01*
X150433904Y-80034476D01*
X150510095Y-80072571D01*
X149824380Y-79805904D02*
X149824380Y-79272571D01*
X149824380Y-79424952D02*
X149786285Y-79348761D01*
X149748190Y-79310666D01*
X149672000Y-79272571D01*
X149595809Y-79272571D01*
X149329142Y-79805904D02*
X149329142Y-79272571D01*
X149329142Y-79005904D02*
X149367238Y-79044000D01*
X149329142Y-79082095D01*
X149291047Y-79044000D01*
X149329142Y-79005904D01*
X149329142Y-79082095D01*
X148605333Y-79272571D02*
X148605333Y-79920190D01*
X148643428Y-79996380D01*
X148681523Y-80034476D01*
X148757714Y-80072571D01*
X148872000Y-80072571D01*
X148948190Y-80034476D01*
X148605333Y-79767809D02*
X148681523Y-79805904D01*
X148833904Y-79805904D01*
X148910095Y-79767809D01*
X148948190Y-79729714D01*
X148986285Y-79653523D01*
X148986285Y-79424952D01*
X148948190Y-79348761D01*
X148910095Y-79310666D01*
X148833904Y-79272571D01*
X148681523Y-79272571D01*
X148605333Y-79310666D01*
X148224380Y-79805904D02*
X148224380Y-79005904D01*
X147881523Y-79805904D02*
X147881523Y-79386857D01*
X147919619Y-79310666D01*
X147995809Y-79272571D01*
X148110095Y-79272571D01*
X148186285Y-79310666D01*
X148224380Y-79348761D01*
X147614857Y-79272571D02*
X147310095Y-79272571D01*
X147500571Y-79005904D02*
X147500571Y-79691619D01*
X147462476Y-79767809D01*
X147386285Y-79805904D01*
X147310095Y-79805904D01*
X145900571Y-79882095D02*
X145976761Y-79844000D01*
X146052952Y-79767809D01*
X146167238Y-79653523D01*
X146243428Y-79615428D01*
X146319619Y-79615428D01*
X146281523Y-79805904D02*
X146357714Y-79767809D01*
X146433904Y-79691619D01*
X146472000Y-79539238D01*
X146472000Y-79272571D01*
X146433904Y-79120190D01*
X146357714Y-79044000D01*
X146281523Y-79005904D01*
X146129142Y-79005904D01*
X146052952Y-79044000D01*
X145976761Y-79120190D01*
X145938666Y-79272571D01*
X145938666Y-79539238D01*
X145976761Y-79691619D01*
X146052952Y-79767809D01*
X146129142Y-79805904D01*
X146281523Y-79805904D01*
X145252952Y-79272571D02*
X145252952Y-79805904D01*
X145595809Y-79272571D02*
X145595809Y-79691619D01*
X145557714Y-79767809D01*
X145481523Y-79805904D01*
X145367238Y-79805904D01*
X145291047Y-79767809D01*
X145252952Y-79729714D01*
X144567238Y-79767809D02*
X144643428Y-79805904D01*
X144795809Y-79805904D01*
X144872000Y-79767809D01*
X144910095Y-79691619D01*
X144910095Y-79386857D01*
X144872000Y-79310666D01*
X144795809Y-79272571D01*
X144643428Y-79272571D01*
X144567238Y-79310666D01*
X144529142Y-79386857D01*
X144529142Y-79463047D01*
X144910095Y-79539238D01*
X144186285Y-79272571D02*
X144186285Y-79805904D01*
X144186285Y-79348761D02*
X144148190Y-79310666D01*
X144072000Y-79272571D01*
X143957714Y-79272571D01*
X143881523Y-79310666D01*
X143843428Y-79386857D01*
X143843428Y-79805904D01*
X143576761Y-79272571D02*
X143272000Y-79272571D01*
X143462476Y-79005904D02*
X143462476Y-79691619D01*
X143424380Y-79767809D01*
X143348190Y-79805904D01*
X143272000Y-79805904D01*
X143005333Y-79805904D02*
X143005333Y-79272571D01*
X143005333Y-79005904D02*
X143043428Y-79044000D01*
X143005333Y-79082095D01*
X142967238Y-79044000D01*
X143005333Y-79005904D01*
X143005333Y-79082095D01*
X142624380Y-79272571D02*
X142624380Y-79805904D01*
X142624380Y-79348761D02*
X142586285Y-79310666D01*
X142510095Y-79272571D01*
X142395809Y-79272571D01*
X142319619Y-79310666D01*
X142281523Y-79386857D01*
X142281523Y-79805904D01*
X140910095Y-79805904D02*
X141291047Y-79805904D01*
X141291047Y-79005904D01*
X140338666Y-79767809D02*
X140414857Y-79805904D01*
X140567238Y-79805904D01*
X140643428Y-79767809D01*
X140681523Y-79691619D01*
X140681523Y-79386857D01*
X140643428Y-79310666D01*
X140567238Y-79272571D01*
X140414857Y-79272571D01*
X140338666Y-79310666D01*
X140300571Y-79386857D01*
X140300571Y-79463047D01*
X140681523Y-79539238D01*
X139957714Y-79805904D02*
X139957714Y-79005904D01*
X139957714Y-79310666D02*
X139881523Y-79272571D01*
X139729142Y-79272571D01*
X139652952Y-79310666D01*
X139614857Y-79348761D01*
X139576761Y-79424952D01*
X139576761Y-79653523D01*
X139614857Y-79729714D01*
X139652952Y-79767809D01*
X139729142Y-79805904D01*
X139881523Y-79805904D01*
X139957714Y-79767809D01*
X138891047Y-79805904D02*
X138891047Y-79386857D01*
X138929142Y-79310666D01*
X139005333Y-79272571D01*
X139157714Y-79272571D01*
X139233904Y-79310666D01*
X138891047Y-79767809D02*
X138967238Y-79805904D01*
X139157714Y-79805904D01*
X139233904Y-79767809D01*
X139272000Y-79691619D01*
X139272000Y-79615428D01*
X139233904Y-79539238D01*
X139157714Y-79501142D01*
X138967238Y-79501142D01*
X138891047Y-79463047D01*
X138548190Y-79767809D02*
X138472000Y-79805904D01*
X138319619Y-79805904D01*
X138243428Y-79767809D01*
X138205333Y-79691619D01*
X138205333Y-79653523D01*
X138243428Y-79577333D01*
X138319619Y-79539238D01*
X138433904Y-79539238D01*
X138510095Y-79501142D01*
X138548190Y-79424952D01*
X138548190Y-79386857D01*
X138510095Y-79310666D01*
X138433904Y-79272571D01*
X138319619Y-79272571D01*
X138243428Y-79310666D01*
X137976761Y-79272571D02*
X137672000Y-79272571D01*
X137862476Y-79005904D02*
X137862476Y-79691619D01*
X137824380Y-79767809D01*
X137748190Y-79805904D01*
X137672000Y-79805904D01*
X137062476Y-79805904D02*
X137062476Y-79386857D01*
X137100571Y-79310666D01*
X137176761Y-79272571D01*
X137329142Y-79272571D01*
X137405333Y-79310666D01*
X137062476Y-79767809D02*
X137138666Y-79805904D01*
X137329142Y-79805904D01*
X137405333Y-79767809D01*
X137443428Y-79691619D01*
X137443428Y-79615428D01*
X137405333Y-79539238D01*
X137329142Y-79501142D01*
X137138666Y-79501142D01*
X137062476Y-79463047D01*
X136681523Y-79805904D02*
X136681523Y-79272571D01*
X136681523Y-79424952D02*
X136643428Y-79348761D01*
X136605333Y-79310666D01*
X136529142Y-79272571D01*
X136452952Y-79272571D01*
X135843428Y-79805904D02*
X135843428Y-79005904D01*
X135843428Y-79767809D02*
X135919619Y-79805904D01*
X136072000Y-79805904D01*
X136148190Y-79767809D01*
X136186285Y-79729714D01*
X136224380Y-79653523D01*
X136224380Y-79424952D01*
X136186285Y-79348761D01*
X136148190Y-79310666D01*
X136072000Y-79272571D01*
X135919619Y-79272571D01*
X135843428Y-79310666D01*
X134891047Y-79082095D02*
X134852952Y-79044000D01*
X134776761Y-79005904D01*
X134586285Y-79005904D01*
X134510095Y-79044000D01*
X134472000Y-79082095D01*
X134433904Y-79158285D01*
X134433904Y-79234476D01*
X134472000Y-79348761D01*
X134929142Y-79805904D01*
X134433904Y-79805904D01*
X133938666Y-79005904D02*
X133862476Y-79005904D01*
X133786285Y-79044000D01*
X133748190Y-79082095D01*
X133710095Y-79158285D01*
X133672000Y-79310666D01*
X133672000Y-79501142D01*
X133710095Y-79653523D01*
X133748190Y-79729714D01*
X133786285Y-79767809D01*
X133862476Y-79805904D01*
X133938666Y-79805904D01*
X134014857Y-79767809D01*
X134052952Y-79729714D01*
X134091047Y-79653523D01*
X134129142Y-79501142D01*
X134129142Y-79310666D01*
X134091047Y-79158285D01*
X134052952Y-79082095D01*
X134014857Y-79044000D01*
X133938666Y-79005904D01*
X133367238Y-79082095D02*
X133329142Y-79044000D01*
X133252952Y-79005904D01*
X133062476Y-79005904D01*
X132986285Y-79044000D01*
X132948190Y-79082095D01*
X132910095Y-79158285D01*
X132910095Y-79234476D01*
X132948190Y-79348761D01*
X133405333Y-79805904D01*
X132910095Y-79805904D01*
X132605333Y-79082095D02*
X132567238Y-79044000D01*
X132491047Y-79005904D01*
X132300571Y-79005904D01*
X132224380Y-79044000D01*
X132186285Y-79082095D01*
X132148190Y-79158285D01*
X132148190Y-79234476D01*
X132186285Y-79348761D01*
X132643428Y-79805904D01*
X132148190Y-79805904D01*
X137849085Y-109505886D02*
X137810990Y-109543981D01*
X137772895Y-109658267D01*
X137772895Y-109734458D01*
X137810990Y-109848743D01*
X137887180Y-109924934D01*
X137963371Y-109963029D01*
X138115752Y-110001124D01*
X138230038Y-110001124D01*
X138382419Y-109963029D01*
X138458609Y-109924934D01*
X138534800Y-109848743D01*
X138572895Y-109734458D01*
X138572895Y-109658267D01*
X138534800Y-109543981D01*
X138496704Y-109505886D01*
X138572895Y-108782077D02*
X138572895Y-109163029D01*
X138191942Y-109201124D01*
X138230038Y-109163029D01*
X138268133Y-109086839D01*
X138268133Y-108896362D01*
X138230038Y-108820172D01*
X138191942Y-108782077D01*
X138115752Y-108743981D01*
X137925276Y-108743981D01*
X137849085Y-108782077D01*
X137810990Y-108820172D01*
X137772895Y-108896362D01*
X137772895Y-109086839D01*
X137810990Y-109163029D01*
X137849085Y-109201124D01*
X137772895Y-107943981D02*
X138153847Y-108210648D01*
X137772895Y-108401124D02*
X138572895Y-108401124D01*
X138572895Y-108096362D01*
X138534800Y-108020172D01*
X138496704Y-107982077D01*
X138420514Y-107943981D01*
X138306228Y-107943981D01*
X138230038Y-107982077D01*
X138191942Y-108020172D01*
X138153847Y-108096362D01*
X138153847Y-108401124D01*
X138572895Y-107677315D02*
X138572895Y-107182077D01*
X138268133Y-107448743D01*
X138268133Y-107334458D01*
X138230038Y-107258267D01*
X138191942Y-107220172D01*
X138115752Y-107182077D01*
X137925276Y-107182077D01*
X137849085Y-107220172D01*
X137810990Y-107258267D01*
X137772895Y-107334458D01*
X137772895Y-107563029D01*
X137810990Y-107639220D01*
X137849085Y-107677315D01*
X114262085Y-106105886D02*
X114223990Y-106143981D01*
X114185895Y-106258267D01*
X114185895Y-106334458D01*
X114223990Y-106448743D01*
X114300180Y-106524934D01*
X114376371Y-106563029D01*
X114528752Y-106601124D01*
X114643038Y-106601124D01*
X114795419Y-106563029D01*
X114871609Y-106524934D01*
X114947800Y-106448743D01*
X114985895Y-106334458D01*
X114985895Y-106258267D01*
X114947800Y-106143981D01*
X114909704Y-106105886D01*
X114719228Y-105420172D02*
X114185895Y-105420172D01*
X115023990Y-105610648D02*
X114452561Y-105801124D01*
X114452561Y-105305886D01*
X114185895Y-104543981D02*
X114566847Y-104810648D01*
X114185895Y-105001124D02*
X114985895Y-105001124D01*
X114985895Y-104696362D01*
X114947800Y-104620172D01*
X114909704Y-104582077D01*
X114833514Y-104543981D01*
X114719228Y-104543981D01*
X114643038Y-104582077D01*
X114604942Y-104620172D01*
X114566847Y-104696362D01*
X114566847Y-105001124D01*
X114985895Y-104277315D02*
X114985895Y-103782077D01*
X114681133Y-104048743D01*
X114681133Y-103934458D01*
X114643038Y-103858267D01*
X114604942Y-103820172D01*
X114528752Y-103782077D01*
X114338276Y-103782077D01*
X114262085Y-103820172D01*
X114223990Y-103858267D01*
X114185895Y-103934458D01*
X114185895Y-104163029D01*
X114223990Y-104239220D01*
X114262085Y-104277315D01*
D11*
X36625200Y-85664400D02*
X38025200Y-85664400D01*
X38025200Y-84764400D02*
X37325200Y-85664400D01*
X36625200Y-84764400D02*
X38025200Y-84764400D01*
X37325200Y-85664400D02*
X36625200Y-84764400D01*
X126525200Y-117464400D02*
X125825200Y-118364400D01*
X125825200Y-118364400D02*
X125125200Y-117464400D01*
X125125200Y-118364400D02*
X126525200Y-118364400D01*
X125125200Y-117464400D02*
X126525200Y-117464400D01*
X102875200Y-69014400D02*
X102175200Y-68114400D01*
X102175200Y-68114400D02*
X103575200Y-68114400D01*
X103575200Y-68114400D02*
X102875200Y-69014400D01*
X102175200Y-69014400D02*
X103575200Y-69014400D01*
X59084000Y-115806000D02*
X58384000Y-114906000D01*
X58384000Y-115806000D02*
X59784000Y-115806000D01*
X58384000Y-114906000D02*
X59784000Y-114906000D01*
X59784000Y-114906000D02*
X59084000Y-115806000D01*
X80875200Y-93664400D02*
X80175200Y-92764400D01*
X80175200Y-93664400D02*
X81575200Y-93664400D01*
X81575200Y-92764400D02*
X80875200Y-93664400D01*
X80175200Y-92764400D02*
X81575200Y-92764400D01*
X102371482Y-90845200D02*
X103771482Y-90845200D01*
X103771482Y-90845200D02*
X103071482Y-91745200D01*
X103071482Y-91745200D02*
X102371482Y-90845200D01*
X102371482Y-91745200D02*
X103771482Y-91745200D01*
X36725200Y-108314400D02*
X36025200Y-107414400D01*
X36025200Y-107414400D02*
X37425200Y-107414400D01*
X36025200Y-108314400D02*
X37425200Y-108314400D01*
X37425200Y-107414400D02*
X36725200Y-108314400D01*
X80375200Y-71364400D02*
X79675200Y-70464400D01*
X79675200Y-70464400D02*
X81075200Y-70464400D01*
X81075200Y-70464400D02*
X80375200Y-71364400D01*
X79675200Y-71364400D02*
X81075200Y-71364400D01*
X125675200Y-95314400D02*
X127075200Y-95314400D01*
X126375200Y-95314400D02*
X125675200Y-94414400D01*
X127075200Y-94414400D02*
X126375200Y-95314400D01*
X125675200Y-94414400D02*
X127075200Y-94414400D01*
X59375200Y-83414400D02*
X58675200Y-84314400D01*
X57975200Y-83414400D02*
X59375200Y-83414400D01*
X57975200Y-84314400D02*
X59375200Y-84314400D01*
X58675200Y-84314400D02*
X57975200Y-83414400D01*
X80575200Y-118014400D02*
X79875200Y-117114400D01*
X79875200Y-118014400D02*
X81275200Y-118014400D01*
X79875200Y-117114400D02*
X81275200Y-117114400D01*
X81275200Y-117114400D02*
X80575200Y-118014400D01*
X125675200Y-72914400D02*
X127075200Y-72914400D01*
X127075200Y-72014400D02*
X126375200Y-72914400D01*
X125675200Y-72014400D02*
X127075200Y-72014400D01*
X126375200Y-72914400D02*
X125675200Y-72014400D01*
X102775200Y-115614400D02*
X102075200Y-114714400D01*
X103475200Y-114714400D02*
X102775200Y-115614400D01*
X102075200Y-114714400D02*
X103475200Y-114714400D01*
X102075200Y-115614400D02*
X103475200Y-115614400D01*
X36125200Y-115364400D02*
X37525200Y-115364400D01*
X36825200Y-116264400D02*
X36125200Y-115364400D01*
X37525200Y-115364400D02*
X36825200Y-116264400D01*
X36125200Y-116264400D02*
X37525200Y-116264400D01*
X156875200Y-101864400D02*
X156175200Y-102764400D01*
X155475200Y-102764400D02*
X156875200Y-102764400D01*
X156175200Y-102764400D02*
X155475200Y-101864400D01*
X155475200Y-101864400D02*
X156875200Y-101864400D01*
X58189893Y-107414400D02*
X59589893Y-107414400D01*
X58189893Y-108314400D02*
X59589893Y-108314400D01*
X59589893Y-107414400D02*
X58889893Y-108314400D01*
X58889893Y-108314400D02*
X58189893Y-107414400D01*
X147525200Y-72864400D02*
X146825200Y-71964400D01*
X146825200Y-72864400D02*
X148225200Y-72864400D01*
X146825200Y-71964400D02*
X148225200Y-71964400D01*
X148225200Y-71964400D02*
X147525200Y-72864400D01*
X153125200Y-101864400D02*
X152425200Y-102764400D01*
X151725200Y-101864400D02*
X153125200Y-101864400D01*
X151725200Y-102764400D02*
X153125200Y-102764400D01*
X152425200Y-102764400D02*
X151725200Y-101864400D01*
D13*
X39650000Y-105810000D02*
X39200000Y-105810000D01*
X39200000Y-105810000D02*
X39200000Y-106760000D01*
X39200000Y-106760000D02*
X39650000Y-106760000D01*
X39650000Y-106760000D02*
X39650000Y-105810000D01*
G36*
X39650000Y-106760000D02*
G01*
X39200000Y-106760000D01*
X39200000Y-105810000D01*
X39650000Y-105810000D01*
X39650000Y-106760000D01*
G37*
X39650000Y-106760000D02*
X39200000Y-106760000D01*
X39200000Y-105810000D01*
X39650000Y-105810000D01*
X39650000Y-106760000D01*
X128656000Y-71168000D02*
X128206000Y-71168000D01*
X128206000Y-71168000D02*
X128206000Y-72118000D01*
X128206000Y-72118000D02*
X128656000Y-72118000D01*
X128656000Y-72118000D02*
X128656000Y-71168000D01*
G36*
X128656000Y-72118000D02*
G01*
X128206000Y-72118000D01*
X128206000Y-71168000D01*
X128656000Y-71168000D01*
X128656000Y-72118000D01*
G37*
X128656000Y-72118000D02*
X128206000Y-72118000D01*
X128206000Y-71168000D01*
X128656000Y-71168000D01*
X128656000Y-72118000D01*
D10*
X93428400Y-105565700D02*
X93428400Y-108890700D01*
X93428400Y-105565700D02*
X91903400Y-105565700D01*
D13*
X105081000Y-113417999D02*
X104631000Y-113417999D01*
X104631000Y-113417999D02*
X104631000Y-114367999D01*
X104631000Y-114367999D02*
X105081000Y-114367999D01*
X105081000Y-114367999D02*
X105081000Y-113417999D01*
G36*
X105081000Y-114367999D02*
G01*
X104631000Y-114367999D01*
X104631000Y-113417999D01*
X105081000Y-113417999D01*
X105081000Y-114367999D01*
G37*
X105081000Y-114367999D02*
X104631000Y-114367999D01*
X104631000Y-113417999D01*
X105081000Y-113417999D01*
X105081000Y-114367999D01*
D10*
X71416599Y-95608900D02*
X69891599Y-95608900D01*
X71416599Y-95608900D02*
X71416599Y-98933900D01*
X115399400Y-80394300D02*
X115399400Y-83719300D01*
X115399400Y-80394300D02*
X113874400Y-80394300D01*
G36*
X59097403Y-59579457D02*
G01*
X59080121Y-59874001D01*
X59049284Y-60155014D01*
X59003950Y-60430862D01*
X58943177Y-60709908D01*
X58892035Y-60906231D01*
X58761246Y-61318509D01*
X58602515Y-61717719D01*
X58416840Y-62102624D01*
X58205223Y-62471988D01*
X57968665Y-62824574D01*
X57708165Y-63159147D01*
X57424726Y-63474469D01*
X57119346Y-63769304D01*
X56793028Y-64042417D01*
X56446771Y-64292570D01*
X56081577Y-64518527D01*
X55698445Y-64719052D01*
X55504927Y-64807618D01*
X55144784Y-64951235D01*
X54776474Y-65070453D01*
X54395920Y-65166378D01*
X53999047Y-65240113D01*
X53581779Y-65292763D01*
X53537378Y-65295649D01*
X53458508Y-65297834D01*
X53357756Y-65298640D01*
X53240450Y-65298190D01*
X53111916Y-65296608D01*
X52977483Y-65294016D01*
X52842478Y-65290538D01*
X52712227Y-65286297D01*
X52592059Y-65281417D01*
X52487301Y-65276019D01*
X52403280Y-65270229D01*
X52345324Y-65264168D01*
X52115176Y-65227735D01*
X51688924Y-65139674D01*
X51280859Y-65027079D01*
X50888995Y-64889212D01*
X50511344Y-64725337D01*
X50145920Y-64534716D01*
X49790734Y-64316613D01*
X49655838Y-64224783D01*
X49307555Y-63962084D01*
X48981910Y-63677976D01*
X48679589Y-63373589D01*
X48401276Y-63050055D01*
X48147657Y-62708503D01*
X47919415Y-62350064D01*
X47717236Y-61975870D01*
X47541804Y-61587052D01*
X47393805Y-61184739D01*
X47273922Y-60770064D01*
X47182842Y-60344156D01*
X47121247Y-59908147D01*
X47119188Y-59887687D01*
X47109873Y-59762634D01*
X47103271Y-59615462D01*
X47099386Y-59453827D01*
X47098221Y-59285386D01*
X47098379Y-59268408D01*
X48078819Y-59268408D01*
X48079163Y-59373865D01*
X48080950Y-59483766D01*
X48084941Y-59578905D01*
X48091878Y-59668442D01*
X48102505Y-59761535D01*
X48117566Y-59867343D01*
X48137803Y-59995025D01*
X48171707Y-60191878D01*
X48212517Y-60397002D01*
X48257054Y-60583786D01*
X48307588Y-60759347D01*
X48366389Y-60930802D01*
X48435726Y-61105267D01*
X48517868Y-61289860D01*
X48615085Y-61491698D01*
X48653118Y-61567779D01*
X48698461Y-61656726D01*
X48738118Y-61732559D01*
X48770050Y-61791456D01*
X48792219Y-61829597D01*
X48802585Y-61843159D01*
X48806090Y-61841707D01*
X48821828Y-61821116D01*
X48839871Y-61783924D01*
X48840105Y-61783351D01*
X48852244Y-61756283D01*
X48876614Y-61703946D01*
X48911766Y-61629384D01*
X48956255Y-61535638D01*
X49008634Y-61425751D01*
X49067455Y-61302765D01*
X49131271Y-61169722D01*
X49198635Y-61029664D01*
X49253584Y-60915479D01*
X49325884Y-60764973D01*
X49396841Y-60616986D01*
X49464387Y-60475841D01*
X49526458Y-60345859D01*
X49580989Y-60231362D01*
X49625913Y-60136671D01*
X49659166Y-60066107D01*
X49707593Y-59962901D01*
X49771853Y-59826694D01*
X49824241Y-59716736D01*
X49865494Y-59631510D01*
X49896350Y-59569497D01*
X49917546Y-59529180D01*
X49929821Y-59509041D01*
X49939244Y-59492433D01*
X49959412Y-59451163D01*
X49986479Y-59392825D01*
X50017519Y-59323992D01*
X50049608Y-59251237D01*
X50079820Y-59181134D01*
X50105229Y-59120256D01*
X50122911Y-59075175D01*
X50144554Y-59016208D01*
X50000134Y-58830337D01*
X49934646Y-58745597D01*
X49858994Y-58646951D01*
X49784053Y-58548594D01*
X49719213Y-58462811D01*
X49658986Y-58383839D01*
X49586532Y-58290902D01*
X49514395Y-58200136D01*
X49451753Y-58123197D01*
X49447495Y-58118056D01*
X49395896Y-58055051D01*
X49350107Y-57997930D01*
X49314965Y-57952794D01*
X49295304Y-57925746D01*
X49278380Y-57901562D01*
X49245421Y-57856921D01*
X49202435Y-57800089D01*
X49154423Y-57737737D01*
X49110944Y-57679401D01*
X49074820Y-57626162D01*
X49051232Y-57585744D01*
X49043890Y-57563981D01*
X49045796Y-57559637D01*
X49053894Y-57553989D01*
X49070793Y-57549367D01*
X49099341Y-57545639D01*
X49142387Y-57542672D01*
X49202780Y-57540334D01*
X49283369Y-57538491D01*
X49387004Y-57537013D01*
X49516533Y-57535765D01*
X49674804Y-57534615D01*
X50300862Y-57530486D01*
X50362802Y-57605697D01*
X50374614Y-57620352D01*
X50416646Y-57675270D01*
X50464957Y-57741319D01*
X50511282Y-57807276D01*
X50548017Y-57860787D01*
X50609077Y-57948990D01*
X50669623Y-58035316D01*
X50734483Y-58126580D01*
X50808485Y-58229601D01*
X50896455Y-58351196D01*
X50920710Y-58384705D01*
X50986502Y-58476101D01*
X51053570Y-58569879D01*
X51115277Y-58656739D01*
X51164987Y-58727385D01*
X51275560Y-58885760D01*
X51285159Y-58149068D01*
X51285364Y-58133239D01*
X51287586Y-57947627D01*
X51289738Y-57744001D01*
X51291750Y-57530626D01*
X51293552Y-57315771D01*
X51295076Y-57107702D01*
X51296250Y-56914688D01*
X51297006Y-56744994D01*
X51299254Y-56077612D01*
X52468159Y-56077612D01*
X52468159Y-61543035D01*
X51299254Y-61543035D01*
X51299254Y-60443653D01*
X51163334Y-60262778D01*
X51148282Y-60242809D01*
X51097008Y-60175674D01*
X51050879Y-60116547D01*
X51014450Y-60071217D01*
X50992281Y-60045475D01*
X50957147Y-60009047D01*
X50890611Y-60156047D01*
X50871402Y-60198062D01*
X50843552Y-60257443D01*
X50821410Y-60302811D01*
X50808545Y-60326741D01*
X50799993Y-60341399D01*
X50779462Y-60380699D01*
X50755664Y-60429415D01*
X50744681Y-60452465D01*
X50718226Y-60507580D01*
X50680460Y-60585997D01*
X50632845Y-60684697D01*
X50576840Y-60800664D01*
X50513908Y-60930880D01*
X50445507Y-61072328D01*
X50373099Y-61221991D01*
X50298143Y-61376852D01*
X50222101Y-61533892D01*
X50146433Y-61690096D01*
X50072600Y-61842446D01*
X50002061Y-61987925D01*
X49936278Y-62123514D01*
X49876711Y-62246198D01*
X49824820Y-62352959D01*
X49782066Y-62440780D01*
X49587018Y-62840950D01*
X49649386Y-62894835D01*
X49734470Y-62967664D01*
X49855405Y-63068936D01*
X49972117Y-63164183D01*
X50080764Y-63250373D01*
X50177505Y-63324472D01*
X50258497Y-63383447D01*
X50319900Y-63424265D01*
X50412145Y-63480393D01*
X50491020Y-63527657D01*
X50559130Y-63567205D01*
X50624295Y-63603374D01*
X50694336Y-63640500D01*
X50777074Y-63682918D01*
X50880330Y-63734964D01*
X51041004Y-63813034D01*
X51214164Y-63890160D01*
X51383890Y-63957222D01*
X51555184Y-64015646D01*
X51733051Y-64066858D01*
X51922495Y-64112287D01*
X52128519Y-64153357D01*
X52356127Y-64191495D01*
X52610323Y-64228128D01*
X52619280Y-64229261D01*
X52687171Y-64235257D01*
X52778101Y-64240313D01*
X52884793Y-64244292D01*
X52999976Y-64247056D01*
X53116374Y-64248464D01*
X53226714Y-64248379D01*
X53323722Y-64246663D01*
X53400124Y-64243176D01*
X53417127Y-64241887D01*
X53502892Y-64233309D01*
X53597873Y-64221299D01*
X53684453Y-64208034D01*
X53707062Y-64204168D01*
X53800570Y-64188525D01*
X53901850Y-64171990D01*
X53992632Y-64157555D01*
X54083236Y-64141705D01*
X54300957Y-64091716D01*
X54532185Y-64023788D01*
X54770102Y-63940231D01*
X55007889Y-63843356D01*
X55238726Y-63735473D01*
X55412814Y-63646494D01*
X55578126Y-63556987D01*
X55725063Y-63470885D01*
X55859521Y-63384379D01*
X55987397Y-63293662D01*
X56114586Y-63194927D01*
X56246985Y-63084367D01*
X56392195Y-62955534D01*
X56636491Y-62718833D01*
X56859227Y-62476320D01*
X57057190Y-62231590D01*
X57227168Y-61988233D01*
X57228626Y-61985956D01*
X57280382Y-61901488D01*
X57340595Y-61797505D01*
X57404387Y-61682775D01*
X57466879Y-61566069D01*
X57523191Y-61456157D01*
X57601635Y-61293974D01*
X57693690Y-61086225D01*
X57770888Y-60886602D01*
X57835741Y-60687176D01*
X57890762Y-60480022D01*
X57938464Y-60257212D01*
X57981361Y-60010821D01*
X57997047Y-59910854D01*
X58012897Y-59804784D01*
X58024579Y-59716231D01*
X58032723Y-59637543D01*
X58037960Y-59561069D01*
X58040920Y-59479156D01*
X58042234Y-59384153D01*
X58042532Y-59268408D01*
X58042528Y-59260804D01*
X58041751Y-59155028D01*
X58039774Y-59053388D01*
X58036816Y-58962746D01*
X58033099Y-58889967D01*
X58028842Y-58841915D01*
X58021401Y-58787641D01*
X57998112Y-58632493D01*
X57971748Y-58474685D01*
X57943300Y-58319076D01*
X57913761Y-58170526D01*
X57884124Y-58033894D01*
X57855382Y-57914038D01*
X57828528Y-57815818D01*
X57804554Y-57744092D01*
X57794942Y-57718995D01*
X57772017Y-57657359D01*
X57744964Y-57583085D01*
X57717803Y-57507152D01*
X57698195Y-57455336D01*
X57654791Y-57352822D01*
X57600112Y-57233787D01*
X57537400Y-57104695D01*
X57469899Y-56972009D01*
X57400853Y-56842190D01*
X57333504Y-56721703D01*
X57271095Y-56617009D01*
X57261269Y-56601172D01*
X57221367Y-56536066D01*
X57188948Y-56481900D01*
X57167123Y-56443942D01*
X57159009Y-56427457D01*
X57158259Y-56424809D01*
X57144684Y-56402686D01*
X57119597Y-56369838D01*
X57080754Y-56322450D01*
X57080073Y-57799378D01*
X57079855Y-58000039D01*
X57079330Y-58222720D01*
X57078530Y-58441156D01*
X57077480Y-58652309D01*
X57076205Y-58853141D01*
X57074727Y-59040611D01*
X57073073Y-59211683D01*
X57071265Y-59363317D01*
X57069327Y-59492474D01*
X57067285Y-59596117D01*
X57065163Y-59671207D01*
X57064320Y-59694612D01*
X57050933Y-60066107D01*
X56985483Y-60263557D01*
X56957222Y-60344256D01*
X56923438Y-60432479D01*
X56890308Y-60511787D01*
X56862100Y-60571526D01*
X56848517Y-60596765D01*
X56754212Y-60747202D01*
X56639001Y-60897856D01*
X56509801Y-61040957D01*
X56373529Y-61168738D01*
X56237103Y-61273427D01*
X56225767Y-61281003D01*
X56116279Y-61348014D01*
X55998079Y-61410951D01*
X55879522Y-61465910D01*
X55768962Y-61508986D01*
X55674751Y-61536274D01*
X55667519Y-61537867D01*
X55606274Y-61552927D01*
X55555189Y-61568045D01*
X55524689Y-61580171D01*
X55510387Y-61584702D01*
X55462902Y-61591138D01*
X55386656Y-61596476D01*
X55283386Y-61600606D01*
X55154827Y-61603421D01*
X55147809Y-61603526D01*
X55029637Y-61604814D01*
X54938319Y-61604610D01*
X54869377Y-61602708D01*
X54818333Y-61598898D01*
X54780710Y-61592972D01*
X54752028Y-61584724D01*
X54742898Y-61581469D01*
X54691072Y-61564806D01*
X54623798Y-61544997D01*
X54553234Y-61525653D01*
X54438403Y-61490678D01*
X54303735Y-61435101D01*
X54168482Y-61361785D01*
X54024067Y-61266531D01*
X53951760Y-61210832D01*
X53867052Y-61138160D01*
X53778771Y-61056564D01*
X53694163Y-60972971D01*
X53620470Y-60894307D01*
X53564936Y-60827499D01*
X53563376Y-60825421D01*
X53465086Y-60673672D01*
X53376455Y-60494952D01*
X53299016Y-60292771D01*
X53234304Y-60070640D01*
X53229167Y-60049940D01*
X53215221Y-59989460D01*
X53205652Y-59936088D01*
X53199811Y-59882088D01*
X53197052Y-59819724D01*
X53196727Y-59741260D01*
X53197538Y-59684499D01*
X54205721Y-59684499D01*
X54205945Y-59705193D01*
X54210160Y-59785607D01*
X54218614Y-59863006D01*
X54229864Y-59923117D01*
X54279079Y-60061498D01*
X54359217Y-60202958D01*
X54463146Y-60329695D01*
X54587292Y-60438082D01*
X54728079Y-60524486D01*
X54881935Y-60585280D01*
X54929182Y-60596593D01*
X55009974Y-60609395D01*
X55096952Y-60617741D01*
X55177839Y-60620551D01*
X55240361Y-60616748D01*
X55270461Y-60611713D01*
X55434131Y-60566963D01*
X55583899Y-60496710D01*
X55717324Y-60403721D01*
X55831965Y-60290765D01*
X55925380Y-60160609D01*
X55995128Y-60016020D01*
X56038767Y-59859765D01*
X56053856Y-59694612D01*
X56051530Y-59621075D01*
X56027353Y-59460032D01*
X55975840Y-59312549D01*
X55895648Y-59175381D01*
X55785438Y-59045286D01*
X55697747Y-58965982D01*
X55558962Y-58873073D01*
X55410873Y-58807941D01*
X55256760Y-58770684D01*
X55099905Y-58761405D01*
X54943592Y-58780204D01*
X54791101Y-58827182D01*
X54645714Y-58902441D01*
X54510715Y-59006080D01*
X54437310Y-59079699D01*
X54335490Y-59213693D01*
X54263174Y-59358663D01*
X54220029Y-59515351D01*
X54205721Y-59684499D01*
X53197538Y-59684499D01*
X53198189Y-59638961D01*
X53198550Y-59619833D01*
X53201064Y-59520465D01*
X53204891Y-59442864D01*
X53211056Y-59378601D01*
X53220586Y-59319243D01*
X53234505Y-59256363D01*
X53253840Y-59181530D01*
X53259192Y-59161929D01*
X53328616Y-58955208D01*
X53417572Y-58760164D01*
X53522925Y-58582879D01*
X53641540Y-58429437D01*
X53712751Y-58351345D01*
X53842497Y-58220936D01*
X53968385Y-58112661D01*
X54096754Y-58022287D01*
X54233939Y-57945586D01*
X54386277Y-57878328D01*
X54560105Y-57816282D01*
X54764427Y-57749684D01*
X55572077Y-57762602D01*
X55730037Y-57818173D01*
X55771283Y-57833077D01*
X55848884Y-57862914D01*
X55919219Y-57892025D01*
X55970927Y-57915807D01*
X56053856Y-57957871D01*
X56053856Y-55288291D01*
X55978825Y-55231221D01*
X55936838Y-55200888D01*
X55850715Y-55144143D01*
X55745826Y-55079769D01*
X55627225Y-55010488D01*
X55499965Y-54939021D01*
X55369099Y-54868088D01*
X55239681Y-54800411D01*
X55116765Y-54738712D01*
X55005404Y-54685711D01*
X54910652Y-54644129D01*
X54837562Y-54616688D01*
X54825591Y-54612773D01*
X54763818Y-54591427D01*
X54689589Y-54564521D01*
X54616418Y-54536930D01*
X54542356Y-54511559D01*
X54439007Y-54481651D01*
X54318160Y-54450666D01*
X54186972Y-54420258D01*
X54052598Y-54392080D01*
X53922196Y-54367786D01*
X53802923Y-54349027D01*
X53746557Y-54340793D01*
X53673133Y-54328859D01*
X53612521Y-54317651D01*
X53573985Y-54308795D01*
X53564735Y-54306842D01*
X53521184Y-54302420D01*
X53453140Y-54298830D01*
X53365699Y-54296075D01*
X53263960Y-54294153D01*
X53153021Y-54293065D01*
X53037979Y-54292811D01*
X52923931Y-54293391D01*
X52815976Y-54294804D01*
X52719211Y-54297051D01*
X52638734Y-54300132D01*
X52579643Y-54304047D01*
X52547035Y-54308795D01*
X52521466Y-54314960D01*
X52465901Y-54325694D01*
X52395023Y-54337592D01*
X52318097Y-54349027D01*
X52207761Y-54366249D01*
X52077914Y-54390204D01*
X51943586Y-54418161D01*
X51811935Y-54448464D01*
X51690115Y-54479463D01*
X51585286Y-54509502D01*
X51504602Y-54536930D01*
X51487058Y-54543660D01*
X51412349Y-54571546D01*
X51339978Y-54597530D01*
X51283458Y-54616735D01*
X51252831Y-54627771D01*
X51182121Y-54657499D01*
X51092149Y-54698841D01*
X50988015Y-54749187D01*
X50874821Y-54805923D01*
X50757669Y-54866436D01*
X50641658Y-54928115D01*
X50531891Y-54988347D01*
X50433469Y-55044519D01*
X50351492Y-55094019D01*
X50251239Y-55159419D01*
X50081500Y-55281646D01*
X49910357Y-55420005D01*
X49733175Y-55578330D01*
X49545315Y-55760454D01*
X49398578Y-55911520D01*
X49235961Y-56091481D01*
X49091533Y-56268308D01*
X48960399Y-56448820D01*
X48837666Y-56639837D01*
X48718441Y-56848177D01*
X48597828Y-57080659D01*
X48546121Y-57186285D01*
X48459353Y-57374881D01*
X48385685Y-57553655D01*
X48322946Y-57729512D01*
X48268961Y-57909351D01*
X48221557Y-58100076D01*
X48178563Y-58308589D01*
X48137803Y-58541791D01*
X48121077Y-58646613D01*
X48105067Y-58755962D01*
X48093635Y-58850812D01*
X48086038Y-58940324D01*
X48081532Y-59033654D01*
X48079373Y-59139963D01*
X48078819Y-59268408D01*
X47098379Y-59268408D01*
X47099778Y-59117794D01*
X47104060Y-58958707D01*
X47111069Y-58815782D01*
X47120809Y-58696674D01*
X47136142Y-58565266D01*
X47206661Y-58132348D01*
X47306336Y-57709717D01*
X47434462Y-57298552D01*
X47590331Y-56900032D01*
X47773237Y-56515336D01*
X47982473Y-56145643D01*
X48217332Y-55792132D01*
X48477108Y-55455981D01*
X48761094Y-55138371D01*
X49068583Y-54840479D01*
X49398869Y-54563485D01*
X49751244Y-54308568D01*
X49946330Y-54182885D01*
X50313027Y-53973420D01*
X50690435Y-53792164D01*
X51080286Y-53638469D01*
X51484309Y-53511685D01*
X51904234Y-53411162D01*
X52341791Y-53336252D01*
X52402413Y-53329148D01*
X52511554Y-53320171D01*
X52641557Y-53312678D01*
X52786125Y-53306791D01*
X52938961Y-53302630D01*
X53093770Y-53300317D01*
X53244253Y-53299973D01*
X53384116Y-53301717D01*
X53507061Y-53305672D01*
X53606792Y-53311959D01*
X53869225Y-53340506D01*
X54294565Y-53411410D01*
X54709922Y-53511185D01*
X55114096Y-53638884D01*
X55505889Y-53793564D01*
X55884101Y-53974278D01*
X56247533Y-54180083D01*
X56594988Y-54410032D01*
X56925265Y-54663181D01*
X57237166Y-54938583D01*
X57529492Y-55235296D01*
X57801045Y-55552372D01*
X58050624Y-55888867D01*
X58277032Y-56243836D01*
X58479070Y-56616333D01*
X58655538Y-57005414D01*
X58805237Y-57410134D01*
X58864029Y-57597254D01*
X58952841Y-57928936D01*
X59019901Y-58257679D01*
X59066367Y-58590855D01*
X59093397Y-58935838D01*
X59101390Y-59268408D01*
X59102149Y-59300000D01*
X59097403Y-59579457D01*
G37*
X138921400Y-83855300D02*
X137396400Y-83855300D01*
X138921400Y-83855300D02*
X138921400Y-87180300D01*
D13*
X39650000Y-82810000D02*
X39200000Y-82810000D01*
X39200000Y-82810000D02*
X39200000Y-83760000D01*
X39200000Y-83760000D02*
X39650000Y-83760000D01*
X39650000Y-83760000D02*
X39650000Y-82810000D01*
G36*
X39650000Y-83760000D02*
G01*
X39200000Y-83760000D01*
X39200000Y-82810000D01*
X39650000Y-82810000D01*
X39650000Y-83760000D01*
G37*
X39650000Y-83760000D02*
X39200000Y-83760000D01*
X39200000Y-82810000D01*
X39650000Y-82810000D01*
X39650000Y-83760000D01*
X83106000Y-92567999D02*
X82656000Y-92567999D01*
X82656000Y-92567999D02*
X82656000Y-93517999D01*
X82656000Y-93517999D02*
X83106000Y-93517999D01*
X83106000Y-93517999D02*
X83106000Y-92567999D01*
G36*
X83106000Y-93517999D02*
G01*
X82656000Y-93517999D01*
X82656000Y-92567999D01*
X83106000Y-92567999D01*
X83106000Y-93517999D01*
G37*
X83106000Y-93517999D02*
X82656000Y-93517999D01*
X82656000Y-92567999D01*
X83106000Y-92567999D01*
X83106000Y-93517999D01*
D10*
X93428400Y-82604100D02*
X91903400Y-82604100D01*
X93428400Y-82604100D02*
X93428400Y-85929100D01*
G36*
X87438051Y-132267943D02*
G01*
X87455521Y-132274686D01*
X87473150Y-132289807D01*
X87485201Y-132319742D01*
X87492733Y-132373033D01*
X87496803Y-132458225D01*
X87498469Y-132583861D01*
X87498790Y-132758484D01*
X87498789Y-132767647D01*
X87498089Y-132942618D01*
X87495531Y-133068922D01*
X87490288Y-133155033D01*
X87481534Y-133209425D01*
X87468442Y-133240572D01*
X87450187Y-133256948D01*
X87420882Y-133271171D01*
X87388204Y-133275234D01*
X87364169Y-133254537D01*
X87346894Y-133202526D01*
X87334492Y-133112649D01*
X87325080Y-132978353D01*
X87316773Y-132793084D01*
X87311368Y-132634744D01*
X87309669Y-132480848D01*
X87315098Y-132372700D01*
X87329154Y-132303819D01*
X87353333Y-132267721D01*
X87389133Y-132257924D01*
X87438051Y-132267943D01*
G37*
G36*
X93210777Y-132255562D02*
G01*
X93316606Y-132259454D01*
X93383155Y-132267406D01*
X93419771Y-132280564D01*
X93435803Y-132300079D01*
X93438134Y-132308949D01*
X93444475Y-132369240D01*
X93449025Y-132468558D01*
X93451817Y-132594837D01*
X93452880Y-132736010D01*
X93452247Y-132880008D01*
X93449947Y-133014765D01*
X93446013Y-133128214D01*
X93440476Y-133208286D01*
X93433366Y-133242915D01*
X93423200Y-133246275D01*
X93364712Y-133251813D01*
X93264378Y-133255282D01*
X93132732Y-133256404D01*
X92980309Y-133254901D01*
X92547148Y-133246990D01*
X92547148Y-133103162D01*
X92906717Y-133088779D01*
X93266287Y-133074397D01*
X93284143Y-132858655D01*
X93113408Y-132858655D01*
X93040687Y-132857241D01*
X92931881Y-132850605D01*
X92851248Y-132840369D01*
X92806288Y-132828901D01*
X92771153Y-132801198D01*
X92768547Y-132746881D01*
X92768897Y-132743888D01*
X92775734Y-132708994D01*
X92793872Y-132687160D01*
X92834861Y-132674718D01*
X92910254Y-132667997D01*
X93031604Y-132663329D01*
X93076308Y-132661739D01*
X93182378Y-132655762D01*
X93243482Y-132646663D01*
X93269152Y-132632327D01*
X93268920Y-132610636D01*
X93260912Y-132583339D01*
X93251904Y-132512001D01*
X93250830Y-132498657D01*
X93239471Y-132479800D01*
X93208021Y-132467126D01*
X93147120Y-132458977D01*
X93047408Y-132453698D01*
X92899526Y-132449631D01*
X92547148Y-132441554D01*
X92538422Y-132366351D01*
X92537347Y-132345917D01*
X92546960Y-132311710D01*
X92578432Y-132287111D01*
X92638889Y-132270610D01*
X92735459Y-132260696D01*
X92875269Y-132255855D01*
X93065446Y-132254578D01*
X93210777Y-132255562D01*
G37*
G36*
X95017730Y-132258961D02*
G01*
X95064135Y-132282889D01*
X95072545Y-132290081D01*
X95086945Y-132318659D01*
X95096710Y-132371787D01*
X95102549Y-132457705D01*
X95105172Y-132584650D01*
X95105287Y-132760859D01*
X95105175Y-132784714D01*
X95103683Y-132950461D01*
X95100438Y-133068877D01*
X95094396Y-133149053D01*
X95084515Y-133200080D01*
X95069752Y-133231049D01*
X95049065Y-133251050D01*
X94996314Y-133275405D01*
X94955883Y-133258222D01*
X94926896Y-133195128D01*
X94907640Y-133082365D01*
X94896404Y-132916175D01*
X94892459Y-132832538D01*
X94885481Y-132727314D01*
X94878093Y-132655255D01*
X94871356Y-132628530D01*
X94862616Y-132634035D01*
X94817704Y-132670394D01*
X94741956Y-132735141D01*
X94643047Y-132821670D01*
X94528655Y-132923377D01*
X94470387Y-132975178D01*
X94356055Y-133074554D01*
X94257182Y-133157572D01*
X94182774Y-133216751D01*
X94141838Y-133244613D01*
X94117951Y-133254053D01*
X94079691Y-133257126D01*
X94051673Y-133234303D01*
X94032148Y-133179262D01*
X94019366Y-133085678D01*
X94011576Y-132947229D01*
X94007027Y-132757592D01*
X94006423Y-132719258D01*
X94004627Y-132559965D01*
X94005507Y-132447419D01*
X94009944Y-132372660D01*
X94018817Y-132326721D01*
X94033006Y-132300641D01*
X94053393Y-132285456D01*
X94092811Y-132272416D01*
X94157409Y-132293723D01*
X94162058Y-132297375D01*
X94185353Y-132329184D01*
X94201225Y-132385182D01*
X94211821Y-132476482D01*
X94219284Y-132614194D01*
X94222764Y-132693381D01*
X94228589Y-132800435D01*
X94234127Y-132875416D01*
X94238537Y-132905612D01*
X94242506Y-132905374D01*
X94276565Y-132882555D01*
X94331654Y-132835511D01*
X94344102Y-132824140D01*
X94467709Y-132712351D01*
X94594108Y-132599797D01*
X94715721Y-132493034D01*
X94824967Y-132398617D01*
X94914267Y-132323105D01*
X94976042Y-132273053D01*
X95002712Y-132255018D01*
X95017730Y-132258961D01*
G37*
G36*
X87868562Y-129604994D02*
G01*
X87855754Y-129813615D01*
X87831627Y-129983298D01*
X87800159Y-130110042D01*
X87701222Y-130367474D01*
X87564545Y-130597476D01*
X87395651Y-130794205D01*
X87200062Y-130951823D01*
X86983299Y-131064489D01*
X86750885Y-131126363D01*
X86542871Y-131142145D01*
X86282710Y-131120896D01*
X86041647Y-131054744D01*
X85830483Y-130945809D01*
X85758146Y-130899125D01*
X85690742Y-130860069D01*
X85654902Y-130845065D01*
X85647173Y-130850999D01*
X85634168Y-130897304D01*
X85629027Y-130974510D01*
X85629027Y-131103955D01*
X85053716Y-131103955D01*
X85018130Y-131103925D01*
X84846792Y-131102891D01*
X84698539Y-131100560D01*
X84581983Y-131097167D01*
X84505734Y-131092949D01*
X84478405Y-131088144D01*
X84478887Y-131085075D01*
X84495599Y-131044823D01*
X84528744Y-130980273D01*
X84534644Y-130968298D01*
X84542904Y-130945030D01*
X84550122Y-130912819D01*
X84556387Y-130867927D01*
X84561784Y-130806617D01*
X84566402Y-130725152D01*
X84570326Y-130619794D01*
X84573644Y-130486805D01*
X84576443Y-130322447D01*
X84578809Y-130122984D01*
X84580831Y-129884678D01*
X84582594Y-129603791D01*
X84584186Y-129276585D01*
X84585694Y-128899324D01*
X84587091Y-128500916D01*
X85700941Y-128500916D01*
X85708132Y-129291847D01*
X85708274Y-129307533D01*
X85710147Y-129514431D01*
X85711830Y-129701944D01*
X85713257Y-129862443D01*
X85714360Y-129988300D01*
X85715071Y-130071887D01*
X85715323Y-130105573D01*
X85715363Y-130106072D01*
X85741175Y-130129543D01*
X85805575Y-130168016D01*
X85895109Y-130213421D01*
X86080302Y-130280989D01*
X86252559Y-130299388D01*
X86403091Y-130264985D01*
X86531108Y-130177965D01*
X86635823Y-130038515D01*
X86637641Y-130035262D01*
X86665312Y-129981190D01*
X86685019Y-129926936D01*
X86698443Y-129861029D01*
X86707261Y-129772000D01*
X86713154Y-129648380D01*
X86717801Y-129478700D01*
X86718391Y-129251633D01*
X86703151Y-128998223D01*
X86668662Y-128792002D01*
X86613777Y-128628596D01*
X86537349Y-128503632D01*
X86438230Y-128412735D01*
X86323868Y-128360039D01*
X86169413Y-128339051D01*
X86004615Y-128359907D01*
X85844769Y-128422360D01*
X85700941Y-128500916D01*
X84587091Y-128500916D01*
X84587205Y-128468269D01*
X84595326Y-126048325D01*
X85205665Y-126034931D01*
X85269199Y-126033593D01*
X85444553Y-126030522D01*
X85596728Y-126028756D01*
X85717142Y-126028341D01*
X85797211Y-126029320D01*
X85828351Y-126031737D01*
X85829666Y-126037793D01*
X85816714Y-126081130D01*
X85785202Y-126149446D01*
X85770365Y-126181515D01*
X85756502Y-126224312D01*
X85745825Y-126279991D01*
X85737778Y-126355991D01*
X85731805Y-126459756D01*
X85727351Y-126598727D01*
X85723859Y-126780345D01*
X85720774Y-127012052D01*
X85718997Y-127204671D01*
X85718348Y-127387123D01*
X85718882Y-127542111D01*
X85720538Y-127662122D01*
X85723253Y-127739639D01*
X85726967Y-127767149D01*
X85743950Y-127760189D01*
X85798643Y-127729667D01*
X85874625Y-127683098D01*
X85991919Y-127625010D01*
X86184392Y-127571049D01*
X86412513Y-127543460D01*
X86666708Y-127543926D01*
X86788111Y-127553302D01*
X86895339Y-127571087D01*
X86988592Y-127601952D01*
X87091257Y-127651841D01*
X87263564Y-127764458D01*
X87451808Y-127947176D01*
X87608114Y-128172859D01*
X87729502Y-128437034D01*
X87812994Y-128735229D01*
X87841674Y-128919650D01*
X87861262Y-129140596D01*
X87865551Y-129251633D01*
X87870311Y-129374849D01*
X87868562Y-129604994D01*
G37*
G36*
X97370470Y-132286067D02*
G01*
X97380524Y-132291819D01*
X97399875Y-132309034D01*
X97412783Y-132338168D01*
X97420183Y-132388337D01*
X97423009Y-132468658D01*
X97422198Y-132588249D01*
X97418683Y-132756227D01*
X97417134Y-132816463D01*
X97410103Y-132993171D01*
X97400189Y-133119373D01*
X97386841Y-133200509D01*
X97369509Y-133242016D01*
X97331173Y-133271513D01*
X97276064Y-133259756D01*
X97267325Y-133254563D01*
X97249392Y-133236361D01*
X97236844Y-133204050D01*
X97228733Y-133148946D01*
X97224113Y-133062366D01*
X97222035Y-132935625D01*
X97221553Y-132760041D01*
X97222067Y-132603259D01*
X97224380Y-132468476D01*
X97229257Y-132376088D01*
X97237448Y-132317980D01*
X97249707Y-132286036D01*
X97266785Y-132272141D01*
X97305114Y-132267986D01*
X97370470Y-132286067D01*
G37*
G36*
X86774131Y-132261977D02*
G01*
X86874734Y-132270699D01*
X86937928Y-132286890D01*
X86970154Y-132312101D01*
X86977850Y-132347886D01*
X86967455Y-132395796D01*
X86952339Y-132424223D01*
X86917930Y-132444015D01*
X86852239Y-132455290D01*
X86742145Y-132461899D01*
X86535143Y-132470320D01*
X86532466Y-132832523D01*
X86532371Y-132844003D01*
X86529471Y-132983692D01*
X86523972Y-133102733D01*
X86516623Y-133188832D01*
X86508178Y-133229694D01*
X86483271Y-133248669D01*
X86424558Y-133255826D01*
X86422725Y-133255559D01*
X86398211Y-133248643D01*
X86380898Y-133230329D01*
X86369010Y-133191394D01*
X86360775Y-133122619D01*
X86354418Y-133014779D01*
X86348167Y-132858655D01*
X86333784Y-132470320D01*
X85902300Y-132441554D01*
X85902300Y-132268961D01*
X86408830Y-132261122D01*
X86434947Y-132260730D01*
X86629682Y-132259172D01*
X86774131Y-132261977D01*
G37*
G36*
X99853603Y-132256318D02*
G01*
X99872423Y-132256569D01*
X100015693Y-132260638D01*
X100139485Y-132267751D01*
X100231113Y-132276977D01*
X100277895Y-132287389D01*
X100294595Y-132300064D01*
X100309357Y-132327371D01*
X100319108Y-132376258D01*
X100324841Y-132455710D01*
X100327552Y-132574713D01*
X100328235Y-132742252D01*
X100328016Y-132809824D01*
X100325952Y-132957663D01*
X100322059Y-133082383D01*
X100316765Y-133172513D01*
X100310501Y-133216585D01*
X100299706Y-133232226D01*
X100272691Y-133245043D01*
X100221964Y-133253027D01*
X100139081Y-133256868D01*
X100015595Y-133257260D01*
X99843060Y-133254895D01*
X99393354Y-133246990D01*
X99393354Y-133103162D01*
X99760115Y-133095111D01*
X100126876Y-133087061D01*
X100126876Y-132858655D01*
X99972261Y-132858655D01*
X99922432Y-132858127D01*
X99768783Y-132846528D01*
X99669521Y-132819583D01*
X99623752Y-132777080D01*
X99620970Y-132734060D01*
X99665232Y-132691515D01*
X99763911Y-132665876D01*
X99916632Y-132657296D01*
X100126876Y-132657296D01*
X100126876Y-132571547D01*
X100126838Y-132565126D01*
X100122058Y-132522771D01*
X100103168Y-132493031D01*
X100061484Y-132473330D01*
X99988322Y-132461091D01*
X99874998Y-132453736D01*
X99712828Y-132448690D01*
X99648608Y-132446824D01*
X99534856Y-132440767D01*
X99462453Y-132430610D01*
X99420076Y-132414236D01*
X99396406Y-132389529D01*
X99391760Y-132381564D01*
X99383250Y-132336556D01*
X99422119Y-132294749D01*
X99439773Y-132284245D01*
X99489997Y-132269095D01*
X99569442Y-132259948D01*
X99687511Y-132255968D01*
X99853603Y-132256318D01*
G37*
G36*
X89386581Y-132286369D02*
G01*
X89396787Y-132295058D01*
X89415106Y-132315346D01*
X89423991Y-132341061D01*
X89421234Y-132378840D01*
X89404630Y-132435318D01*
X89371971Y-132517128D01*
X89321052Y-132630907D01*
X89249666Y-132783289D01*
X89155606Y-132980908D01*
X89133745Y-133026332D01*
X89066664Y-133155528D01*
X89012346Y-133232711D01*
X88964186Y-133259025D01*
X88915580Y-133235617D01*
X88859922Y-133163631D01*
X88790606Y-133044214D01*
X88766677Y-133001615D01*
X88714358Y-132915801D01*
X88674232Y-132860108D01*
X88653492Y-132844987D01*
X88651777Y-132846981D01*
X88627245Y-132886090D01*
X88585532Y-132960112D01*
X88534616Y-133054954D01*
X88506194Y-133107510D01*
X88442162Y-133207295D01*
X88387838Y-133253003D01*
X88336817Y-133244908D01*
X88282694Y-133183284D01*
X88219063Y-133068403D01*
X88153075Y-132934441D01*
X88072174Y-132765348D01*
X88002942Y-132615080D01*
X87949005Y-132491741D01*
X87913986Y-132403432D01*
X87901508Y-132358258D01*
X87908356Y-132331619D01*
X87945196Y-132282896D01*
X87947736Y-132280850D01*
X87989353Y-132266318D01*
X88034237Y-132289704D01*
X88085797Y-132355276D01*
X88147445Y-132467303D01*
X88222590Y-132630052D01*
X88265393Y-132725012D01*
X88312894Y-132823435D01*
X88349142Y-132890563D01*
X88368587Y-132915539D01*
X88371398Y-132914494D01*
X88397689Y-132881715D01*
X88439571Y-132812199D01*
X88489367Y-132718470D01*
X88535760Y-132632349D01*
X88601681Y-132537510D01*
X88658982Y-132494621D01*
X88710256Y-132501132D01*
X88713539Y-132503886D01*
X88742581Y-132544788D01*
X88786806Y-132620820D01*
X88838033Y-132718091D01*
X88850761Y-132742915D01*
X88899561Y-132829811D01*
X88938919Y-132887518D01*
X88961289Y-132904612D01*
X88979081Y-132878542D01*
X89015836Y-132809740D01*
X89065259Y-132709527D01*
X89121747Y-132588926D01*
X89135851Y-132558300D01*
X89204355Y-132418245D01*
X89259098Y-132326259D01*
X89304661Y-132277108D01*
X89345628Y-132265557D01*
X89386581Y-132286369D01*
G37*
G36*
X101886130Y-126615920D02*
G01*
X101887591Y-126916301D01*
X101888676Y-127263033D01*
X101889417Y-127658910D01*
X101889849Y-128106727D01*
X101890004Y-128609279D01*
X101889874Y-128978430D01*
X101889387Y-129378348D01*
X101888563Y-129759327D01*
X101887427Y-130117508D01*
X101886005Y-130449032D01*
X101884319Y-130750040D01*
X101882397Y-131016672D01*
X101880262Y-131245069D01*
X101877939Y-131431371D01*
X101875453Y-131571720D01*
X101872830Y-131662257D01*
X101870093Y-131699122D01*
X101837556Y-131746241D01*
X101757929Y-131774166D01*
X101757285Y-131774242D01*
X101713983Y-131775830D01*
X101617178Y-131777299D01*
X101470719Y-131778638D01*
X101278456Y-131779836D01*
X101044239Y-131780883D01*
X100771918Y-131781768D01*
X100465342Y-131782480D01*
X100128362Y-131783009D01*
X99764826Y-131783344D01*
X99378586Y-131783474D01*
X98973490Y-131783388D01*
X98553388Y-131783076D01*
X98505154Y-131783026D01*
X98003758Y-131782386D01*
X97556792Y-131781546D01*
X97161411Y-131780470D01*
X96814772Y-131779120D01*
X96514032Y-131777461D01*
X96256345Y-131775456D01*
X96038870Y-131773068D01*
X95858761Y-131770260D01*
X95713175Y-131766997D01*
X95599268Y-131763241D01*
X95514197Y-131758957D01*
X95455117Y-131754106D01*
X95419186Y-131748653D01*
X95403558Y-131742562D01*
X95397599Y-131727553D01*
X95392044Y-131691838D01*
X95387057Y-131632767D01*
X95382597Y-131547492D01*
X95378623Y-131433163D01*
X95375091Y-131286935D01*
X95371960Y-131105959D01*
X95371570Y-131075189D01*
X95749817Y-131075189D01*
X96428154Y-131075189D01*
X96552724Y-131074822D01*
X96730846Y-131072906D01*
X96883097Y-131069575D01*
X97001561Y-131065082D01*
X97078324Y-131059678D01*
X97105471Y-131053615D01*
X97093609Y-131019340D01*
X97063342Y-130960127D01*
X97060103Y-130951780D01*
X97050176Y-130888942D01*
X97041520Y-130777178D01*
X97034135Y-130623088D01*
X97028020Y-130433275D01*
X97023173Y-130214340D01*
X97019595Y-129972885D01*
X97017285Y-129715512D01*
X97016241Y-129448823D01*
X97016463Y-129179419D01*
X97017950Y-128913902D01*
X97020701Y-128658873D01*
X97024716Y-128420935D01*
X97029995Y-128206689D01*
X97036535Y-128022736D01*
X97044336Y-127875680D01*
X97053398Y-127772120D01*
X97063720Y-127718660D01*
X97072090Y-127697549D01*
X97091518Y-127632655D01*
X97091496Y-127598738D01*
X97087369Y-127597207D01*
X97039350Y-127591782D01*
X96945164Y-127586038D01*
X96813517Y-127580367D01*
X96653114Y-127575162D01*
X96472659Y-127570815D01*
X95869571Y-127558642D01*
X95869571Y-129220032D01*
X95869534Y-129547698D01*
X95869314Y-129849326D01*
X95868753Y-130102353D01*
X95867693Y-130311410D01*
X95865977Y-130481128D01*
X95863446Y-130616136D01*
X95859944Y-130721066D01*
X95855313Y-130800548D01*
X95849394Y-130859213D01*
X95842030Y-130901690D01*
X95833064Y-130932611D01*
X95822338Y-130956606D01*
X95809694Y-130978306D01*
X95749817Y-131075189D01*
X95371570Y-131075189D01*
X95369189Y-130887386D01*
X95366735Y-130628370D01*
X95364557Y-130326062D01*
X95362613Y-129977614D01*
X95360860Y-129580179D01*
X95359258Y-129130908D01*
X95357763Y-128626954D01*
X95357289Y-128455558D01*
X95355923Y-127968534D01*
X95354817Y-127534597D01*
X95354149Y-127150399D01*
X95354094Y-126812592D01*
X95354828Y-126517828D01*
X95356087Y-126328870D01*
X97412143Y-126328870D01*
X97685147Y-126609334D01*
X97691691Y-126616065D01*
X97805113Y-126734851D01*
X97914344Y-126852799D01*
X98007245Y-126956603D01*
X98071676Y-127032960D01*
X98125350Y-127100217D01*
X98194870Y-127186225D01*
X98246383Y-127248702D01*
X98290495Y-127302152D01*
X98361736Y-127389905D01*
X98453634Y-127503900D01*
X98560519Y-127637030D01*
X98676722Y-127782186D01*
X98796571Y-127932260D01*
X98914397Y-128080144D01*
X99024530Y-128218728D01*
X99121299Y-128340905D01*
X99199036Y-128439566D01*
X99252069Y-128507604D01*
X99274728Y-128537908D01*
X99277452Y-128560921D01*
X99250097Y-128627732D01*
X99184962Y-128724884D01*
X99159691Y-128758871D01*
X99093977Y-128848590D01*
X99004862Y-128971269D01*
X98898654Y-129118194D01*
X98781657Y-129280654D01*
X98660178Y-129449935D01*
X98536028Y-129622831D01*
X98300803Y-129947692D01*
X98093245Y-130230404D01*
X97914212Y-130469827D01*
X97764559Y-130664823D01*
X97645144Y-130814253D01*
X97556822Y-130916979D01*
X97556284Y-130917565D01*
X97489917Y-130991730D01*
X97442360Y-131048343D01*
X97438730Y-131053615D01*
X97423876Y-131075189D01*
X97424053Y-131075513D01*
X97455794Y-131079250D01*
X97537108Y-131082608D01*
X97660653Y-131085454D01*
X97819082Y-131087652D01*
X98005052Y-131089070D01*
X98211218Y-131089572D01*
X98999518Y-131089572D01*
X99017018Y-130960127D01*
X99033559Y-130888534D01*
X99074583Y-130774915D01*
X99127639Y-130664688D01*
X99140767Y-130642180D01*
X99194477Y-130557309D01*
X99270528Y-130443393D01*
X99363917Y-130307375D01*
X99469637Y-130156197D01*
X99582685Y-129996803D01*
X99698056Y-129836136D01*
X99810745Y-129681138D01*
X99915747Y-129538752D01*
X100008058Y-129415922D01*
X100082673Y-129319590D01*
X100134586Y-129256699D01*
X100158794Y-129234193D01*
X100163686Y-129249231D01*
X100168620Y-129313087D01*
X100171715Y-129418723D01*
X100173096Y-129557097D01*
X100172890Y-129719164D01*
X100171223Y-129895881D01*
X100168220Y-130078206D01*
X100164008Y-130257095D01*
X100158712Y-130423506D01*
X100152458Y-130568394D01*
X100145373Y-130682716D01*
X100137582Y-130757430D01*
X100134945Y-130772008D01*
X100106948Y-130869219D01*
X100066358Y-130965980D01*
X100010644Y-131075189D01*
X100406755Y-131075320D01*
X100572480Y-131076585D01*
X100770569Y-131080393D01*
X100961180Y-131086126D01*
X101119288Y-131093157D01*
X101228336Y-131098088D01*
X101339922Y-131100253D01*
X101418979Y-131098361D01*
X101453075Y-131092440D01*
X101454610Y-131075660D01*
X101437854Y-131018887D01*
X101402735Y-130940284D01*
X101335030Y-130806549D01*
X101335030Y-126596329D01*
X101406134Y-126462599D01*
X101477239Y-126328870D01*
X100744526Y-126328870D01*
X100571970Y-126329501D01*
X100390661Y-126331670D01*
X100236361Y-126335160D01*
X100116699Y-126339740D01*
X100039307Y-126345176D01*
X100011813Y-126351235D01*
X100020354Y-126377562D01*
X100050869Y-126430340D01*
X100082289Y-126483996D01*
X100108052Y-126550897D01*
X100127614Y-126636589D01*
X100141950Y-126748816D01*
X100152038Y-126895324D01*
X100158854Y-127083858D01*
X100163377Y-127322163D01*
X100164312Y-127397563D01*
X100165608Y-127581046D01*
X100165408Y-127744416D01*
X100163803Y-127878324D01*
X100160880Y-127973415D01*
X100156730Y-128020339D01*
X100154125Y-128027589D01*
X100140823Y-128033883D01*
X100115133Y-128018856D01*
X100073361Y-127978394D01*
X100011816Y-127908383D01*
X99926804Y-127804709D01*
X99814632Y-127663258D01*
X99671607Y-127479917D01*
X99509342Y-127269599D01*
X99359262Y-127071186D01*
X99239760Y-126907583D01*
X99147560Y-126773803D01*
X99079383Y-126664862D01*
X99031953Y-126575774D01*
X99001993Y-126501553D01*
X98986225Y-126437213D01*
X98968900Y-126328870D01*
X97412143Y-126328870D01*
X95356087Y-126328870D01*
X95356527Y-126262757D01*
X95359368Y-126044031D01*
X95363525Y-125858303D01*
X95369176Y-125702223D01*
X95370202Y-125684031D01*
X95876439Y-125684031D01*
X95917536Y-125843313D01*
X96002301Y-125984457D01*
X96126005Y-126097243D01*
X96283917Y-126171448D01*
X96336463Y-126186256D01*
X96413771Y-126204797D01*
X96457295Y-126210727D01*
X96641103Y-126169984D01*
X96798551Y-126088999D01*
X96919535Y-125975632D01*
X96999870Y-125837167D01*
X97035372Y-125680891D01*
X97021855Y-125514088D01*
X96955134Y-125344044D01*
X96874655Y-125235402D01*
X96747595Y-125138356D01*
X96599945Y-125081988D01*
X96442300Y-125065798D01*
X96285252Y-125089285D01*
X96139397Y-125151948D01*
X96015329Y-125253286D01*
X95923641Y-125392799D01*
X95883741Y-125516837D01*
X95876439Y-125684031D01*
X95370202Y-125684031D01*
X95376496Y-125572444D01*
X95385660Y-125465616D01*
X95396846Y-125378392D01*
X95410229Y-125307423D01*
X95425985Y-125249361D01*
X95444289Y-125200857D01*
X95465319Y-125158563D01*
X95489249Y-125119130D01*
X95516257Y-125079211D01*
X95546517Y-125035456D01*
X95568125Y-125004826D01*
X95736499Y-124820038D01*
X95936503Y-124682770D01*
X96165244Y-124594604D01*
X96419832Y-124557125D01*
X96453303Y-124556014D01*
X96671338Y-124569930D01*
X96865245Y-124625470D01*
X97047170Y-124727491D01*
X97229261Y-124880853D01*
X97353600Y-125022910D01*
X97461469Y-125203692D01*
X97520973Y-125386797D01*
X97540581Y-125494668D01*
X99678791Y-125494668D01*
X100084847Y-125494775D01*
X100437181Y-125495145D01*
X100739585Y-125495855D01*
X100995858Y-125496983D01*
X101209799Y-125498604D01*
X101385210Y-125500796D01*
X101525890Y-125503635D01*
X101635640Y-125507198D01*
X101718258Y-125511561D01*
X101777545Y-125516802D01*
X101817302Y-125522997D01*
X101841328Y-125530222D01*
X101853422Y-125538555D01*
X101856897Y-125546042D01*
X101862568Y-125576251D01*
X101867596Y-125630448D01*
X101870349Y-125680891D01*
X101872015Y-125711429D01*
X101875857Y-125821988D01*
X101879156Y-125964922D01*
X101881946Y-126143025D01*
X101883936Y-126328870D01*
X101884260Y-126359093D01*
X101886130Y-126615920D01*
G37*
G36*
X85497230Y-132272038D02*
G01*
X85512221Y-132282880D01*
X85525258Y-132311394D01*
X85534057Y-132364714D01*
X85539389Y-132451020D01*
X85542024Y-132578489D01*
X85542731Y-132755300D01*
X85540801Y-132953329D01*
X85534720Y-133108349D01*
X85524575Y-133208842D01*
X85510460Y-133253372D01*
X85469982Y-133277189D01*
X85421032Y-133262474D01*
X85380028Y-133203938D01*
X85351849Y-133109287D01*
X85341372Y-132986227D01*
X85341372Y-132858655D01*
X84653627Y-132858655D01*
X84645121Y-133052822D01*
X84643466Y-133089070D01*
X84637083Y-133177263D01*
X84625344Y-133224490D01*
X84602975Y-133243488D01*
X84564701Y-133246990D01*
X84558123Y-133246945D01*
X84521541Y-133241191D01*
X84499564Y-133216709D01*
X84485979Y-133160613D01*
X84474575Y-133060014D01*
X84471523Y-133025312D01*
X84463150Y-132894964D01*
X84456571Y-132742303D01*
X84453001Y-132593585D01*
X84452361Y-132477557D01*
X84455345Y-132387718D01*
X84464356Y-132333160D01*
X84481531Y-132302001D01*
X84509009Y-132282359D01*
X84563484Y-132264838D01*
X84612837Y-132287433D01*
X84641641Y-132361363D01*
X84650998Y-132488225D01*
X84650998Y-132657296D01*
X85341372Y-132657296D01*
X85341372Y-132501140D01*
X85341406Y-132492654D01*
X85353360Y-132370094D01*
X85386575Y-132299781D01*
X85420130Y-132267864D01*
X85450547Y-132257079D01*
X85497230Y-132272038D01*
G37*
G36*
X98508215Y-132267692D02*
G01*
X98655295Y-132283071D01*
X98776861Y-132309819D01*
X98857945Y-132347819D01*
X98941068Y-132435212D01*
X98977967Y-132532424D01*
X98963939Y-132626946D01*
X98901929Y-132712120D01*
X98794880Y-132781288D01*
X98645736Y-132827790D01*
X98593710Y-132837926D01*
X98458989Y-132864204D01*
X98336219Y-132888183D01*
X98326363Y-132890126D01*
X98208948Y-132917583D01*
X98142613Y-132944847D01*
X98121455Y-132975688D01*
X98139574Y-133013880D01*
X98161050Y-133030216D01*
X98207590Y-133044712D01*
X98285267Y-133054860D01*
X98402874Y-133061735D01*
X98569207Y-133066412D01*
X98593342Y-133066907D01*
X98743437Y-133070551D01*
X98846412Y-133075229D01*
X98911445Y-133082536D01*
X98947715Y-133094068D01*
X98964399Y-133111418D01*
X98970677Y-133136183D01*
X98971058Y-133139077D01*
X98958592Y-133191958D01*
X98898763Y-133228852D01*
X98849133Y-133239321D01*
X98749666Y-133248432D01*
X98619072Y-133253384D01*
X98471552Y-133253362D01*
X98371723Y-133250759D01*
X98222775Y-133241129D01*
X98114467Y-133222295D01*
X98035860Y-133190691D01*
X97976019Y-133142753D01*
X97924006Y-133074918D01*
X97917828Y-133064779D01*
X97895704Y-132972886D01*
X97924326Y-132878638D01*
X98000037Y-132795477D01*
X98029299Y-132779467D01*
X98113669Y-132748513D01*
X98228995Y-132716133D01*
X98359189Y-132687177D01*
X98442194Y-132670721D01*
X98559303Y-132646148D01*
X98649189Y-132625623D01*
X98697184Y-132612391D01*
X98735209Y-132584637D01*
X98740946Y-132538611D01*
X98698167Y-132501219D01*
X98670047Y-132492406D01*
X98563114Y-132474333D01*
X98427107Y-132465324D01*
X98282402Y-132466243D01*
X98149376Y-132477954D01*
X98065170Y-132488842D01*
X97996474Y-132491019D01*
X97953612Y-132478274D01*
X97919501Y-132448414D01*
X97890340Y-132412237D01*
X97890594Y-132381004D01*
X97933748Y-132340713D01*
X97964079Y-132322153D01*
X98063553Y-132290911D01*
X98197378Y-132271497D01*
X98350587Y-132263795D01*
X98508215Y-132267692D01*
G37*
G36*
X92940845Y-126259775D02*
G01*
X93267759Y-126297721D01*
X93583255Y-126387906D01*
X93878244Y-126527112D01*
X94143637Y-126712118D01*
X94319679Y-126871358D01*
X94534008Y-127113754D01*
X94704583Y-127378013D01*
X94837450Y-127674019D01*
X94938656Y-128011656D01*
X94963032Y-128149452D01*
X94981290Y-128340546D01*
X94990699Y-128558212D01*
X94991249Y-128786623D01*
X94982928Y-129009947D01*
X94965725Y-129212357D01*
X94939629Y-129378021D01*
X94844503Y-129711082D01*
X94704276Y-130029004D01*
X94525578Y-130315390D01*
X94312410Y-130566216D01*
X94068770Y-130777458D01*
X93798657Y-130945091D01*
X93506072Y-131065092D01*
X93195012Y-131133437D01*
X93038694Y-131148306D01*
X92735631Y-131150016D01*
X92440232Y-131118516D01*
X92173195Y-131055386D01*
X92128066Y-131039339D01*
X92030403Y-130999257D01*
X91913348Y-130947010D01*
X91788928Y-130888442D01*
X91669172Y-130829399D01*
X91566107Y-130775727D01*
X91491760Y-130733271D01*
X91458160Y-130707877D01*
X91459675Y-130695783D01*
X91483111Y-130640736D01*
X91529166Y-130550617D01*
X91593127Y-130434460D01*
X91670279Y-130301301D01*
X91713334Y-130228408D01*
X91787456Y-130101637D01*
X91848141Y-129996184D01*
X91890030Y-129921405D01*
X91907765Y-129886655D01*
X91914216Y-129883315D01*
X91956328Y-129898857D01*
X92027768Y-129941532D01*
X92117712Y-130005227D01*
X92234045Y-130084935D01*
X92455622Y-130194511D01*
X92676702Y-130251625D01*
X92892295Y-130256449D01*
X93097413Y-130209155D01*
X93287066Y-130109918D01*
X93456265Y-129958908D01*
X93538966Y-129856825D01*
X93642599Y-129687808D01*
X93719022Y-129497664D01*
X93770618Y-129277988D01*
X93799774Y-129020372D01*
X93808876Y-128716412D01*
X93806781Y-128568662D01*
X93786059Y-128266130D01*
X93741691Y-128007862D01*
X93671864Y-127787399D01*
X93574761Y-127598282D01*
X93448568Y-127434051D01*
X93442273Y-127427240D01*
X93305554Y-127303335D01*
X93159598Y-127221895D01*
X92990241Y-127177156D01*
X92783318Y-127163353D01*
X92661234Y-127166392D01*
X92531993Y-127183116D01*
X92417105Y-127220258D01*
X92297955Y-127284297D01*
X92155930Y-127381712D01*
X92023603Y-127478066D01*
X91758067Y-127073603D01*
X91690557Y-126970034D01*
X91613073Y-126849039D01*
X91552514Y-126751947D01*
X91513852Y-126686761D01*
X91502060Y-126661486D01*
X91502465Y-126661186D01*
X91535304Y-126646489D01*
X91597884Y-126622781D01*
X91624937Y-126612499D01*
X91709312Y-126578228D01*
X91820952Y-126531208D01*
X91943071Y-126478460D01*
X92163910Y-126389363D01*
X92403282Y-126315309D01*
X92630964Y-126273104D01*
X92863569Y-126258784D01*
X92940845Y-126259775D01*
G37*
G36*
X91342460Y-130393069D02*
G01*
X91237735Y-130614706D01*
X91089237Y-130802902D01*
X90900219Y-130953862D01*
X90673933Y-131063794D01*
X90413633Y-131128902D01*
X90260216Y-131143065D01*
X90002000Y-131127824D01*
X89757927Y-131065091D01*
X89540208Y-130957266D01*
X89531181Y-130951442D01*
X89446122Y-130897626D01*
X89382983Y-130859526D01*
X89354852Y-130845065D01*
X89351442Y-130849395D01*
X89342115Y-130892651D01*
X89334249Y-130967318D01*
X89325403Y-131089572D01*
X89167193Y-131099198D01*
X89154132Y-131099867D01*
X89056630Y-131101405D01*
X88920976Y-131099923D01*
X88763332Y-131095711D01*
X88599860Y-131089056D01*
X88190738Y-131069287D01*
X88237559Y-130978750D01*
X88240106Y-130973578D01*
X88251713Y-130941304D01*
X88261598Y-130894510D01*
X88270057Y-130827821D01*
X88277385Y-130735861D01*
X88283879Y-130613253D01*
X88289835Y-130454621D01*
X88295547Y-130254590D01*
X88301312Y-130007783D01*
X88301997Y-129974274D01*
X89400248Y-129974274D01*
X89403274Y-130054488D01*
X89414844Y-130107656D01*
X89437875Y-130148179D01*
X89475285Y-130190454D01*
X89484262Y-130199659D01*
X89561405Y-130266935D01*
X89636346Y-130317094D01*
X89639157Y-130318532D01*
X89736581Y-130349680D01*
X89863153Y-130367441D01*
X89992598Y-130369699D01*
X90098642Y-130354336D01*
X90149242Y-130335001D01*
X90256440Y-130255824D01*
X90330082Y-130144129D01*
X90362602Y-130014366D01*
X90346438Y-129880984D01*
X90323734Y-129830204D01*
X90242908Y-129725492D01*
X90131974Y-129636299D01*
X90009063Y-129578862D01*
X89995458Y-129575363D01*
X89905284Y-129562483D01*
X89784806Y-129555546D01*
X89656208Y-129555990D01*
X89411700Y-129564997D01*
X89403371Y-129835508D01*
X89402849Y-129852615D01*
X89400248Y-129974274D01*
X88301997Y-129974274D01*
X88307425Y-129708825D01*
X88313275Y-129421521D01*
X88319567Y-129156536D01*
X88326363Y-128937381D01*
X88334304Y-128757943D01*
X88344027Y-128612108D01*
X88356172Y-128493765D01*
X88371379Y-128396801D01*
X88390286Y-128315101D01*
X88413533Y-128242555D01*
X88441758Y-128173048D01*
X88475602Y-128100468D01*
X88522194Y-128021948D01*
X88629349Y-127893002D01*
X88760907Y-127774954D01*
X88898413Y-127685897D01*
X89047678Y-127624539D01*
X89278162Y-127567388D01*
X89538521Y-127536341D01*
X89816340Y-127532067D01*
X90099200Y-127555233D01*
X90374683Y-127606507D01*
X90393812Y-127611138D01*
X90508012Y-127637646D01*
X90647072Y-127668647D01*
X90785145Y-127698358D01*
X90817424Y-127705229D01*
X90927343Y-127731084D01*
X90991819Y-127752742D01*
X91020117Y-127774159D01*
X91021500Y-127799292D01*
X91005655Y-127839802D01*
X90970723Y-127922112D01*
X90922360Y-128032824D01*
X90865894Y-128159595D01*
X90839327Y-128218066D01*
X90780789Y-128339512D01*
X90736455Y-128416826D01*
X90701897Y-128457058D01*
X90672687Y-128467260D01*
X90669661Y-128466913D01*
X90613574Y-128452805D01*
X90523870Y-128423503D01*
X90418495Y-128384827D01*
X90356944Y-128362965D01*
X90184898Y-128318379D01*
X90009479Y-128293165D01*
X89844780Y-128288076D01*
X89704893Y-128303867D01*
X89603911Y-128341289D01*
X89567987Y-128368877D01*
X89487826Y-128467373D01*
X89425705Y-128594751D01*
X89392591Y-128730795D01*
X89389121Y-128776521D01*
X89400566Y-128804629D01*
X89441831Y-128814163D01*
X89526762Y-128813679D01*
X89597408Y-128813361D01*
X89752515Y-128818489D01*
X89927731Y-128829762D01*
X90107531Y-128845720D01*
X90276389Y-128864899D01*
X90418779Y-128885840D01*
X90519175Y-128907082D01*
X90531553Y-128910617D01*
X90788794Y-129009398D01*
X91005427Y-129143360D01*
X91178703Y-129309240D01*
X91305873Y-129503775D01*
X91384191Y-129723704D01*
X91410907Y-129965764D01*
X91407940Y-130014366D01*
X91400160Y-130141784D01*
X91342460Y-130393069D01*
G37*
G36*
X96171010Y-132280228D02*
G01*
X96363809Y-132314884D01*
X96515757Y-132383120D01*
X96632551Y-132487946D01*
X96719888Y-132632372D01*
X96750673Y-132712462D01*
X96755028Y-132776423D01*
X96733785Y-132853199D01*
X96667461Y-132995020D01*
X96569756Y-133108231D01*
X96433362Y-133192507D01*
X96413587Y-133201215D01*
X96284289Y-133240193D01*
X96139463Y-133260005D01*
X95991064Y-133261807D01*
X95851052Y-133246755D01*
X95731383Y-133216005D01*
X95644015Y-133170713D01*
X95600905Y-133112035D01*
X95600851Y-133111827D01*
X95593976Y-133042315D01*
X95598242Y-132949970D01*
X95610963Y-132854882D01*
X95629455Y-132777142D01*
X95651034Y-132736842D01*
X95665579Y-132729799D01*
X95739055Y-132717283D01*
X95840931Y-132718061D01*
X95950433Y-132732438D01*
X96026427Y-132763013D01*
X96060233Y-132810363D01*
X96049809Y-132860414D01*
X95998161Y-132900058D01*
X95908294Y-132916186D01*
X95873499Y-132918788D01*
X95809314Y-132944120D01*
X95784138Y-132987501D01*
X95807159Y-133037874D01*
X95807646Y-133038348D01*
X95858481Y-133057618D01*
X95948311Y-133067240D01*
X96059848Y-133067769D01*
X96175805Y-133059760D01*
X96278896Y-133043771D01*
X96351834Y-133020357D01*
X96413149Y-132982600D01*
X96496608Y-132894959D01*
X96530358Y-132797945D01*
X96516634Y-132700124D01*
X96457667Y-132610059D01*
X96355689Y-132536316D01*
X96212933Y-132487459D01*
X96136279Y-132475365D01*
X96000075Y-132464003D01*
X95869571Y-132462731D01*
X95860805Y-132463083D01*
X95763194Y-132465182D01*
X95708491Y-132459168D01*
X95683158Y-132441226D01*
X95673658Y-132407543D01*
X95672507Y-132387518D01*
X95695257Y-132334514D01*
X95761708Y-132298977D01*
X95875972Y-132279421D01*
X96042165Y-132274358D01*
X96171010Y-132280228D01*
G37*
G36*
X92045360Y-132757382D02*
G01*
X92044668Y-132816887D01*
X92041546Y-132963317D01*
X92036929Y-133086765D01*
X92031321Y-133175715D01*
X92025224Y-133218650D01*
X92024727Y-133219875D01*
X92003412Y-133240151D01*
X91953930Y-133252856D01*
X91866526Y-133259406D01*
X91731443Y-133261212D01*
X91579481Y-133258197D01*
X91427515Y-133244161D01*
X91309620Y-133215576D01*
X91213027Y-133169074D01*
X91124965Y-133101288D01*
X91107689Y-133085053D01*
X91010676Y-132956367D01*
X90965800Y-132817948D01*
X90969851Y-132716278D01*
X91166362Y-132716278D01*
X91169932Y-132819067D01*
X91222249Y-132916518D01*
X91321948Y-132997530D01*
X91359879Y-133015784D01*
X91485069Y-133054135D01*
X91636680Y-133077922D01*
X91842391Y-133097041D01*
X91842391Y-132455937D01*
X91745638Y-132455937D01*
X91726433Y-132456181D01*
X91596552Y-132467628D01*
X91463516Y-132492828D01*
X91347554Y-132527116D01*
X91268893Y-132565831D01*
X91212901Y-132619249D01*
X91166362Y-132716278D01*
X90969851Y-132716278D01*
X90971355Y-132678518D01*
X91025635Y-132546803D01*
X91126935Y-132431526D01*
X91273547Y-132341412D01*
X91359669Y-132312285D01*
X91480963Y-132286484D01*
X91615731Y-132268482D01*
X91750041Y-132259197D01*
X91869962Y-132259547D01*
X91961565Y-132270450D01*
X92010917Y-132292825D01*
X92018964Y-132306027D01*
X92032696Y-132357357D01*
X92041325Y-132445003D01*
X92041663Y-132455937D01*
X92045372Y-132575999D01*
X92045360Y-132757382D01*
G37*
G36*
X101885814Y-132968791D02*
G01*
X101881041Y-133092024D01*
X101875571Y-133179998D01*
X101869887Y-133221577D01*
X101868850Y-133223598D01*
X101829472Y-133241958D01*
X101747796Y-133254526D01*
X101637489Y-133261199D01*
X101512216Y-133261870D01*
X101385645Y-133256436D01*
X101271442Y-133244792D01*
X101183274Y-133226833D01*
X101091175Y-133188285D01*
X100967412Y-133093631D01*
X100877222Y-132968409D01*
X100828478Y-132824878D01*
X100828847Y-132729306D01*
X101007942Y-132729306D01*
X101011124Y-132801694D01*
X101053099Y-132886587D01*
X101122757Y-132964988D01*
X101208361Y-133019879D01*
X101256121Y-133036141D01*
X101352592Y-133058295D01*
X101460931Y-133074904D01*
X101564165Y-133084093D01*
X101645316Y-133083991D01*
X101687408Y-133072725D01*
X101694071Y-133051038D01*
X101701773Y-132980866D01*
X101707034Y-132875831D01*
X101708982Y-132749029D01*
X101708982Y-132447633D01*
X101496592Y-132463696D01*
X101327969Y-132487163D01*
X101173991Y-132539728D01*
X101067934Y-132620106D01*
X101007942Y-132729306D01*
X100828847Y-132729306D01*
X100829055Y-132675300D01*
X100832718Y-132658363D01*
X100890188Y-132531416D01*
X100990728Y-132419340D01*
X101121574Y-132336900D01*
X101198515Y-132312729D01*
X101311811Y-132290994D01*
X101443341Y-132274281D01*
X101578156Y-132263740D01*
X101701305Y-132260521D01*
X101797840Y-132265774D01*
X101852810Y-132280649D01*
X101859962Y-132286807D01*
X101874796Y-132314549D01*
X101884584Y-132365866D01*
X101890016Y-132449235D01*
X101891778Y-132573134D01*
X101890558Y-132746041D01*
X101890512Y-132749029D01*
X101889404Y-132821435D01*
X101885814Y-132968791D01*
G37*
D13*
X39650000Y-128530000D02*
X39200000Y-128530000D01*
X39200000Y-128530000D02*
X39200000Y-129480000D01*
X39200000Y-129480000D02*
X39650000Y-129480000D01*
X39650000Y-129480000D02*
X39650000Y-128530000D01*
G36*
X39650000Y-129480000D02*
G01*
X39200000Y-129480000D01*
X39200000Y-128530000D01*
X39650000Y-128530000D01*
X39650000Y-129480000D01*
G37*
X39650000Y-129480000D02*
X39200000Y-129480000D01*
X39200000Y-128530000D01*
X39650000Y-128530000D01*
X39650000Y-129480000D01*
X61065200Y-128254400D02*
X60615200Y-128254400D01*
X60615200Y-128254400D02*
X60615200Y-129204400D01*
X60615200Y-129204400D02*
X61065200Y-129204400D01*
X61065200Y-129204400D02*
X61065200Y-128254400D01*
G36*
X61065200Y-129204400D02*
G01*
X60615200Y-129204400D01*
X60615200Y-128254400D01*
X61065200Y-128254400D01*
X61065200Y-129204400D01*
G37*
X61065200Y-129204400D02*
X60615200Y-129204400D01*
X60615200Y-128254400D01*
X61065200Y-128254400D01*
X61065200Y-129204400D01*
X128656000Y-93868000D02*
X128206000Y-93868000D01*
X128206000Y-93868000D02*
X128206000Y-94818000D01*
X128206000Y-94818000D02*
X128656000Y-94818000D01*
X128656000Y-94818000D02*
X128656000Y-93868000D01*
G36*
X128656000Y-94818000D02*
G01*
X128206000Y-94818000D01*
X128206000Y-93868000D01*
X128656000Y-93868000D01*
X128656000Y-94818000D01*
G37*
X128656000Y-94818000D02*
X128206000Y-94818000D01*
X128206000Y-93868000D01*
X128656000Y-93868000D01*
X128656000Y-94818000D01*
X83106000Y-69767999D02*
X82656000Y-69767999D01*
X82656000Y-69767999D02*
X82656000Y-70717999D01*
X82656000Y-70717999D02*
X83106000Y-70717999D01*
X83106000Y-70717999D02*
X83106000Y-69767999D01*
G36*
X83106000Y-70717999D02*
G01*
X82656000Y-70717999D01*
X82656000Y-69767999D01*
X83106000Y-69767999D01*
X83106000Y-70717999D01*
G37*
X83106000Y-70717999D02*
X82656000Y-70717999D01*
X82656000Y-69767999D01*
X83106000Y-69767999D01*
X83106000Y-70717999D01*
D10*
X115399400Y-103305100D02*
X113874400Y-103305100D01*
X115399400Y-103305100D02*
X115399400Y-106630100D01*
D13*
X83106000Y-115567999D02*
X82656000Y-115567999D01*
X82656000Y-115567999D02*
X82656000Y-116517999D01*
X82656000Y-116517999D02*
X83106000Y-116517999D01*
X83106000Y-116517999D02*
X83106000Y-115567999D01*
G36*
X83106000Y-116517999D02*
G01*
X82656000Y-116517999D01*
X82656000Y-115567999D01*
X83106000Y-115567999D01*
X83106000Y-116517999D01*
G37*
X83106000Y-116517999D02*
X82656000Y-116517999D01*
X82656000Y-115567999D01*
X83106000Y-115567999D01*
X83106000Y-116517999D01*
X105156000Y-67767999D02*
X104706000Y-67767999D01*
X104706000Y-67767999D02*
X104706000Y-68717999D01*
X104706000Y-68717999D02*
X105156000Y-68717999D01*
X105156000Y-68717999D02*
X105156000Y-67767999D01*
G36*
X105156000Y-68717999D02*
G01*
X104706000Y-68717999D01*
X104706000Y-67767999D01*
X105156000Y-67767999D01*
X105156000Y-68717999D01*
G37*
X105156000Y-68717999D02*
X104706000Y-68717999D01*
X104706000Y-67767999D01*
X105156000Y-67767999D01*
X105156000Y-68717999D01*
D10*
X115399400Y-57432700D02*
X113874400Y-57432700D01*
X115399400Y-57432700D02*
X115399400Y-60757700D01*
D13*
X61065999Y-82907999D02*
X60615999Y-82907999D01*
X60615999Y-82907999D02*
X60615999Y-83857999D01*
X60615999Y-83857999D02*
X61065999Y-83857999D01*
X61065999Y-83857999D02*
X61065999Y-82907999D01*
G36*
X61065999Y-83857999D02*
G01*
X60615999Y-83857999D01*
X60615999Y-82907999D01*
X61065999Y-82907999D01*
X61065999Y-83857999D01*
G37*
X61065999Y-83857999D02*
X60615999Y-83857999D01*
X60615999Y-82907999D01*
X61065999Y-82907999D01*
X61065999Y-83857999D01*
X150155999Y-117167998D02*
X149705999Y-117167998D01*
X149705999Y-117167998D02*
X149705999Y-118117998D01*
X149705999Y-118117998D02*
X150155999Y-118117998D01*
X150155999Y-118117998D02*
X150155999Y-117167998D01*
G36*
X150155999Y-118117998D02*
G01*
X149705999Y-118117998D01*
X149705999Y-117167998D01*
X150155999Y-117167998D01*
X150155999Y-118117998D01*
G37*
X150155999Y-118117998D02*
X149705999Y-118117998D01*
X149705999Y-117167998D01*
X150155999Y-117167998D01*
X150155999Y-118117998D01*
D10*
X160384399Y-60919098D02*
X160384399Y-64244098D01*
X160384399Y-60919098D02*
X158859399Y-60919098D01*
D13*
X150155999Y-71117998D02*
X149705999Y-71117998D01*
X149705999Y-71117998D02*
X149705999Y-72067998D01*
X149705999Y-72067998D02*
X150155999Y-72067998D01*
X150155999Y-72067998D02*
X150155999Y-71117998D01*
G36*
X150155999Y-72067998D02*
G01*
X149705999Y-72067998D01*
X149705999Y-71117998D01*
X150155999Y-71117998D01*
X150155999Y-72067998D01*
G37*
X150155999Y-72067998D02*
X149705999Y-72067998D01*
X149705999Y-71117998D01*
X150155999Y-71117998D01*
X150155999Y-72067998D01*
D10*
X71416599Y-118545100D02*
X69891599Y-118545100D01*
X71416599Y-118545100D02*
X71416599Y-121870100D01*
X93428400Y-59667900D02*
X93428400Y-62992900D01*
X93428400Y-59667900D02*
X91903400Y-59667900D01*
X160409799Y-83855298D02*
X160409799Y-87180298D01*
X160409799Y-83855298D02*
X158884799Y-83855298D01*
X160409799Y-106816898D02*
X158884799Y-106816898D01*
X160409799Y-106816898D02*
X160409799Y-110141898D01*
D13*
X128556000Y-116918000D02*
X128106000Y-116918000D01*
X128106000Y-116918000D02*
X128106000Y-117868000D01*
X128106000Y-117868000D02*
X128556000Y-117868000D01*
X128556000Y-117868000D02*
X128556000Y-116918000D01*
G36*
X128556000Y-117868000D02*
G01*
X128106000Y-117868000D01*
X128106000Y-116918000D01*
X128556000Y-116918000D01*
X128556000Y-117868000D01*
G37*
X128556000Y-117868000D02*
X128106000Y-117868000D01*
X128106000Y-116918000D01*
X128556000Y-116918000D01*
X128556000Y-117868000D01*
D10*
X138896000Y-60919100D02*
X137371000Y-60919100D01*
X138896000Y-60919100D02*
X138896000Y-64244100D01*
X49912200Y-72704701D02*
X49912200Y-76029701D01*
X49912200Y-72704701D02*
X48387200Y-72704701D01*
X138921400Y-106816900D02*
X138921400Y-110141900D01*
X138921400Y-106816900D02*
X137396400Y-106816900D01*
D13*
X61065999Y-105797999D02*
X60615999Y-105797999D01*
X60615999Y-105797999D02*
X60615999Y-106747999D01*
X60615999Y-106747999D02*
X61065999Y-106747999D01*
X61065999Y-106747999D02*
X61065999Y-105797999D01*
G36*
X61065999Y-106747999D02*
G01*
X60615999Y-106747999D01*
X60615999Y-105797999D01*
X61065999Y-105797999D01*
X61065999Y-106747999D01*
G37*
X61065999Y-106747999D02*
X60615999Y-106747999D01*
X60615999Y-105797999D01*
X61065999Y-105797999D01*
X61065999Y-106747999D01*
D10*
X71416599Y-72647300D02*
X69891599Y-72647300D01*
X71416599Y-72647300D02*
X71416599Y-75972300D01*
D13*
X150255999Y-94467998D02*
X149805999Y-94467998D01*
X149805999Y-94467998D02*
X149805999Y-95417998D01*
X149805999Y-95417998D02*
X150255999Y-95417998D01*
X150255999Y-95417998D02*
X150255999Y-94467998D01*
G36*
X150255999Y-95417998D02*
G01*
X149805999Y-95417998D01*
X149805999Y-94467998D01*
X150255999Y-94467998D01*
X150255999Y-95417998D01*
G37*
X150255999Y-95417998D02*
X149805999Y-95417998D01*
X149805999Y-94467998D01*
X150255999Y-94467998D01*
X150255999Y-95417998D01*
X105156000Y-90367999D02*
X104706000Y-90367999D01*
X104706000Y-90367999D02*
X104706000Y-91317999D01*
X104706000Y-91317999D02*
X105156000Y-91317999D01*
X105156000Y-91317999D02*
X105156000Y-90367999D01*
G36*
X105156000Y-91317999D02*
G01*
X104706000Y-91317999D01*
X104706000Y-90367999D01*
X105156000Y-90367999D01*
X105156000Y-91317999D01*
G37*
X105156000Y-91317999D02*
X104706000Y-91317999D01*
X104706000Y-90367999D01*
X105156000Y-90367999D01*
X105156000Y-91317999D01*
D10*
X49912200Y-95640901D02*
X48387200Y-95640901D01*
X49912200Y-95640901D02*
X49912200Y-98965901D01*
X49912200Y-118602501D02*
X49912200Y-121927501D01*
X49912200Y-118602501D02*
X48387200Y-118602501D01*
M02*
