M48
; DRILL file {KiCad (6.0.0)} date Mon Jan 24 15:56:25 2022
; FORMAT={-:-/ absolute / inch / decimal}
; #@! TF.CreationDate,2022-01-24T15:56:25+01:00
; #@! TF.GenerationSoftware,Kicad,Pcbnew,(6.0.0)
; #@! TF.FileFunction,NonPlated,1,2,NPTH
FMAT,2
INCH
; #@! TA.AperFunction,NonPlated,NPTH,ComponentDrill
T1C0.0670
%
G90
G05
T1
X1.5219Y-3.1217
X1.5219Y-4.0247
X1.5219Y-4.9287
X1.9219Y-3.1217
X1.9219Y-4.0247
X1.9219Y-4.9287
X2.3686Y-3.1195
X2.3686Y-4.0235
X2.3686Y-4.9265
X2.7686Y-3.1195
X2.7686Y-4.0235
X2.7686Y-4.9265
X3.2352Y-2.6085
X3.2352Y-3.5115
X3.2352Y-4.4155
X3.6352Y-2.6085
X3.6352Y-3.5115
X3.6352Y-4.4155
X4.1002Y-2.5205
X4.1002Y-3.4245
X4.1002Y-4.3265
X4.5002Y-2.5205
X4.5002Y-3.4245
X4.5002Y-4.3265
X5.0252Y-2.6577
X5.0262Y-3.5607
X5.0262Y-4.4647
X5.4252Y-2.6577
X5.4262Y-3.5607
X5.4262Y-4.4647
X5.8712Y-2.6577
X5.8722Y-3.5607
X5.8722Y-4.4647
X6.2712Y-2.6577
X6.2722Y-3.5607
X6.2722Y-4.4647
T0
M30
