G04 #@! TF.GenerationSoftware,KiCad,Pcbnew,(6.0.0)*
G04 #@! TF.CreationDate,2022-01-24T15:56:27+01:00*
G04 #@! TF.ProjectId,flex,666c6578-2e6b-4696-9361-645f70636258,rev?*
G04 #@! TF.SameCoordinates,Original*
G04 #@! TF.FileFunction,Paste,Bot*
G04 #@! TF.FilePolarity,Positive*
%FSLAX46Y46*%
G04 Gerber Fmt 4.6, Leading zero omitted, Abs format (unit mm)*
G04 Created by KiCad (PCBNEW (6.0.0)) date 2022-01-24 15:56:27*
%MOMM*%
%LPD*%
G01*
G04 APERTURE LIST*
G04 Aperture macros list*
%AMRoundRect*
0 Rectangle with rounded corners*
0 $1 Rounding radius*
0 $2 $3 $4 $5 $6 $7 $8 $9 X,Y pos of 4 corners*
0 Add a 4 corners polygon primitive as box body*
4,1,4,$2,$3,$4,$5,$6,$7,$8,$9,$2,$3,0*
0 Add four circle primitives for the rounded corners*
1,1,$1+$1,$2,$3*
1,1,$1+$1,$4,$5*
1,1,$1+$1,$6,$7*
1,1,$1+$1,$8,$9*
0 Add four rect primitives between the rounded corners*
20,1,$1+$1,$2,$3,$4,$5,0*
20,1,$1+$1,$4,$5,$6,$7,0*
20,1,$1+$1,$6,$7,$8,$9,0*
20,1,$1+$1,$8,$9,$2,$3,0*%
G04 Aperture macros list end*
%ADD10R,1.524000X1.524000*%
%ADD11R,2.400000X0.820000*%
%ADD12RoundRect,0.250001X-0.624999X0.462499X-0.624999X-0.462499X0.624999X-0.462499X0.624999X0.462499X0*%
G04 APERTURE END LIST*
D10*
X37325200Y-86864400D03*
X37325200Y-83464400D03*
X125825200Y-119564400D03*
X125825200Y-116164400D03*
X102875200Y-70214400D03*
X102875200Y-66814400D03*
X59084000Y-117006000D03*
X59084000Y-113606000D03*
X80875200Y-94864400D03*
X80875200Y-91464400D03*
X103071482Y-92945200D03*
X103071482Y-89545200D03*
X36725200Y-109514400D03*
X36725200Y-106114400D03*
X80375200Y-72564400D03*
X80375200Y-69164400D03*
X126375200Y-96514400D03*
X126375200Y-93114400D03*
X58675200Y-85514400D03*
X58675200Y-82114400D03*
X80575200Y-119214400D03*
X80575200Y-115814400D03*
X126375200Y-74114400D03*
X126375200Y-70714400D03*
X102775200Y-116814400D03*
X102775200Y-113414400D03*
X36825200Y-117464400D03*
X36825200Y-114064400D03*
X156175200Y-103964400D03*
X156175200Y-100564400D03*
X58889893Y-109514400D03*
X58889893Y-106114400D03*
X147525200Y-74064400D03*
X147525200Y-70664400D03*
X152425200Y-103964400D03*
X152425200Y-100564400D03*
D11*
X46550000Y-106260000D03*
X40950000Y-106260000D03*
X40950000Y-107760000D03*
X46550000Y-107760000D03*
D12*
X51360000Y-74992500D03*
X51360000Y-77967500D03*
D11*
X135556000Y-71618000D03*
X129956000Y-71618000D03*
X129956000Y-73118000D03*
X135556000Y-73118000D03*
X111981000Y-113867999D03*
X106381000Y-113867999D03*
X106381000Y-115367999D03*
X111981000Y-115367999D03*
X46550000Y-83260000D03*
X40950000Y-83260000D03*
X40950000Y-84760000D03*
X46550000Y-84760000D03*
X90006000Y-93017999D03*
X84406000Y-93017999D03*
X84406000Y-94517999D03*
X90006000Y-94517999D03*
X46550000Y-128980000D03*
X40950000Y-128980000D03*
X40950000Y-130480000D03*
X46550000Y-130480000D03*
X67965200Y-128704400D03*
X62365200Y-128704400D03*
X62365200Y-130204400D03*
X67965200Y-130204400D03*
X135556000Y-94318000D03*
X129956000Y-94318000D03*
X129956000Y-95818000D03*
X135556000Y-95818000D03*
X90006000Y-70217999D03*
X84406000Y-70217999D03*
X84406000Y-71717999D03*
X90006000Y-71717999D03*
X90006000Y-116017999D03*
X84406000Y-116017999D03*
X84406000Y-117517999D03*
X90006000Y-117517999D03*
X112056000Y-68217999D03*
X106456000Y-68217999D03*
X106456000Y-69717999D03*
X112056000Y-69717999D03*
X67965999Y-83357999D03*
X62365999Y-83357999D03*
X62365999Y-84857999D03*
X67965999Y-84857999D03*
X157055999Y-117617998D03*
X151455999Y-117617998D03*
X151455999Y-119117998D03*
X157055999Y-119117998D03*
D12*
X49530000Y-82420000D03*
X49530000Y-85395000D03*
D11*
X157055999Y-71567998D03*
X151455999Y-71567998D03*
X151455999Y-73067998D03*
X157055999Y-73067998D03*
X135456000Y-117368000D03*
X129856000Y-117368000D03*
X129856000Y-118868000D03*
X135456000Y-118868000D03*
X67965999Y-106247999D03*
X62365999Y-106247999D03*
X62365999Y-107747999D03*
X67965999Y-107747999D03*
X157155999Y-94917998D03*
X151555999Y-94917998D03*
X151555999Y-96417998D03*
X157155999Y-96417998D03*
X112056000Y-90817999D03*
X106456000Y-90817999D03*
X106456000Y-92317999D03*
X112056000Y-92317999D03*
M02*
