M48
; DRILL file {KiCad (6.0.0)} date Mon Jan 24 15:56:25 2022
; FORMAT={-:-/ absolute / inch / decimal}
; #@! TF.CreationDate,2022-01-24T15:56:25+01:00
; #@! TF.GenerationSoftware,Kicad,Pcbnew,(6.0.0)
; #@! TF.FileFunction,Plated,1,2,PTH
FMAT,2
INCH
; #@! TA.AperFunction,Plated,PTH,ViaDrill
T1C0.0079
; #@! TA.AperFunction,Plated,PTH,ViaDrill
T2C0.0157
; #@! TA.AperFunction,Plated,PTH,ComponentDrill
T3C0.0394
; #@! TA.AperFunction,Plated,PTH,ComponentDrill
T4C0.0610
%
G90
G05
T1
X1.4183Y-4.2309
X1.436Y-4.538
X1.4439Y-3.3352
X1.4616Y-4.2525
X1.4734Y-4.5636
X1.4971Y-3.3726
X1.5045Y-3.6939
X1.5354Y-3.3071
X1.5394Y-4.2362
X1.5394Y-5.1378
X1.5459Y-4.2112
X1.5522Y-3.3825
X1.5577Y-5.1069
X1.708Y-3.738
X1.8961Y-3.3055
X1.8965Y-3.3488
X1.8976Y-4.2087
X1.9034Y-5.1189
X1.9094Y-5.1457
X1.9291Y-4.2244
X1.9555Y-3.3169
X1.9657Y-3.1917
X2.2982Y-4.2269
X2.3024Y-3.2821
X2.3248Y-4.2516
X2.3258Y-3.3175
X2.364Y-4.5687
X2.3642Y-4.5177
X2.3707Y-5.1147
X2.3711Y-4.4159
X2.3812Y-5.1359
X2.3825Y-3.3137
X2.3865Y-3.3413
X2.3865Y-4.2153
X2.3865Y-4.2468
X2.477Y-4.4515
X2.7136Y-3.2309
X2.7388Y-3.3373
X2.7402Y-3.3137
X2.7526Y-5.1069
X2.7526Y-5.1305
X2.7526Y-4.2192
X2.7526Y-4.2468
X2.7569Y-3.6766
X2.799Y-3.7029
X2.8034Y-5.071
X3.1545Y-4.6344
X3.1644Y-2.658
X3.1644Y-2.788
X3.1821Y-3.664
X3.186Y-4.6069
X3.228Y-3.5807
X3.2333Y-2.8988
X3.2365Y-2.9672
X3.2404Y-2.8137
X3.2443Y-2.7861
X3.2475Y-3.7171
X3.2553Y-4.5901
X3.2601Y-4.62
X3.2605Y-3.6905
X3.2642Y-3.0067
X3.3039Y-3.1593
X3.3882Y-3.1031
X3.4431Y-3.2704
X3.5742Y-3.9227
X3.6042Y-4.0227
X3.6102Y-3.8967
X3.6105Y-2.8255
X3.6105Y-4.6011
X3.6144Y-4.6247
X3.6172Y-2.7929
X3.6197Y-3.6877
X3.6292Y-3.798
X3.6382Y-3.7192
X3.6422Y-3.8647
X3.6526Y-2.8805
X4.0384Y-3.5931
X4.0423Y-4.5281
X4.0472Y-4.6516
X4.0502Y-2.5754
X4.0522Y-2.8195
X4.0699Y-3.6029
X4.1124Y-4.5361
X4.1223Y-2.7113
X4.1223Y-4.5145
X4.1262Y-3.5972
X4.1401Y-3.675
X4.145Y-3.9779
X4.2097Y-2.784
X4.2327Y-3.9291
X4.2619Y-3.9991
X4.3702Y-2.8887
X4.3923Y-2.9132
X4.4122Y-3.0915
X4.4262Y-3.1547
X4.4442Y-3.0587
X4.4743Y-4.507
X4.4762Y-3.4987
X4.4766Y-4.5361
X4.4786Y-2.7212
X4.4904Y-3.605
X4.4985Y-3.5623
X4.5187Y-2.6994
X4.5262Y-4.4427
X4.5264Y-2.866
X4.5266Y-2.7506
X4.5282Y-2.9127
X4.6072Y-3.641
X4.9321Y-3.4769
X4.9459Y-4.6502
X4.9478Y-4.6246
X4.9577Y-2.8313
X4.9616Y-2.975
X4.9656Y-3.6167
X4.9892Y-3.7486
X5.0322Y-4.7027
X5.0376Y-2.8604
X5.0376Y-4.6503
X5.0396Y-3.7704
X5.0422Y-3.7389
X5.0455Y-2.8381
X5.1349Y-3.8273
X5.1862Y-3.0965
X5.2234Y-4.2112
X5.3522Y-4.0407
X5.3903Y-2.925
X5.3962Y-4.1047
X5.4057Y-3.7724
X5.4077Y-4.6759
X5.4095Y-4.6482
X5.4108Y-2.8581
X5.4135Y-3.7387
X5.4182Y-3.8447
X5.4542Y-4.0187
X5.4602Y-3.8227
X5.7884Y-2.8273
X5.8238Y-2.8687
X5.8841Y-4.6936
X5.8856Y-2.8722
X5.8865Y-3.7646
X5.888Y-3.792
X5.892Y-4.6562
X5.8925Y-2.8375
X5.9144Y-2.939
X5.9666Y-4.586
X6.0167Y-4.0065
X6.0443Y-4.0813
X6.0882Y-4.2929
X6.0935Y-4.0793
X6.1053Y-4.0025
X6.191Y-3.2116
X6.2022Y-3.2687
X6.2182Y-3.0127
X6.2589Y-3.7715
X6.2601Y-3.7999
X6.266Y-4.6641
X6.2719Y-2.8413
X6.2746Y-4.6171
X6.2749Y-3.1347
X6.2762Y-3.0148
X6.2778Y-2.8747
X6.2923Y-4.6856
X6.3016Y-3.9947
X6.3099Y-3.2961
X6.3302Y-3.0527
X6.3322Y-3.1427
T2
X2.6962Y-3.3912
X2.7466Y-3.4547
X4.063Y-3.8898
X4.2582Y-3.8907
X4.3122Y-3.1567
X4.5167Y-2.9702
X5.0342Y-3.2907
X5.1082Y-3.1027
T3
X2.113Y-2.9567
X2.113Y-3.0567
X2.113Y-3.1567
X4.7598Y-4.2165
X4.7598Y-4.3165
X4.7598Y-4.4165
X4.7598Y-4.5165
X4.7622Y-2.6267
X4.7622Y-2.7267
X4.7622Y-2.8267
X4.7622Y-2.9267
X4.7622Y-3.0267
X4.7622Y-3.1707
X4.7622Y-3.2707
X4.7622Y-3.3707
X4.7622Y-3.4707
X4.7622Y-3.5707
X4.7622Y-3.6707
X5.6675Y-4.4305
X5.6675Y-4.5305
X5.6675Y-4.6305
T4
X1.5719Y-3.0217
X1.5719Y-3.9247
X1.5719Y-4.8287
X1.6219Y-2.9217
X1.6219Y-3.8247
X1.6219Y-4.7287
X1.8219Y-2.9217
X1.8219Y-3.8247
X1.8219Y-4.7287
X1.8719Y-3.0217
X1.8719Y-3.9247
X1.8719Y-4.8287
X2.4186Y-3.0195
X2.4186Y-3.9235
X2.4186Y-4.8265
X2.4686Y-2.9195
X2.4686Y-3.8235
X2.4686Y-4.7265
X2.6686Y-2.9195
X2.6686Y-3.8235
X2.6686Y-4.7265
X2.7186Y-3.0195
X2.7186Y-3.9235
X2.7186Y-4.8265
X3.2852Y-2.5085
X3.2852Y-3.4115
X3.2852Y-4.3155
X3.3352Y-2.4085
X3.3352Y-3.3115
X3.3352Y-4.2155
X3.5352Y-2.4085
X3.5352Y-3.3115
X3.5352Y-4.2155
X3.5852Y-2.5085
X3.5852Y-3.4115
X3.5852Y-4.3155
X4.1502Y-2.4205
X4.1502Y-3.3245
X4.1502Y-4.2265
X4.2002Y-2.3205
X4.2002Y-3.2245
X4.2002Y-4.1265
X4.4002Y-2.3205
X4.4002Y-3.2245
X4.4002Y-4.1265
X4.4502Y-2.4205
X4.4502Y-3.3245
X4.4502Y-4.2265
X5.0752Y-2.5577
X5.0762Y-3.4607
X5.0762Y-4.3647
X5.1252Y-2.4577
X5.1262Y-3.3607
X5.1262Y-4.2647
X5.3252Y-2.4577
X5.3262Y-3.3607
X5.3262Y-4.2647
X5.3752Y-2.5577
X5.3762Y-3.4607
X5.3762Y-4.3647
X5.9212Y-2.5577
X5.9222Y-3.4607
X5.9222Y-4.3647
X5.9712Y-2.4577
X5.9722Y-3.3607
X5.9722Y-4.2647
X6.1712Y-2.4577
X6.1722Y-3.3607
X6.1722Y-4.2647
X6.2212Y-2.5577
X6.2222Y-3.4607
X6.2222Y-4.3647
T0
M30
